<svg width="20" height="20" viewBox="0 0 20 20" xmlns="http://www.w3.org/2000/svg">
<path d="M15.7 3.76922H10.94C10.38 3.76922 10 4.13461 10 4.67307C10 5.21153 10.38 5.57691 10.94 5.57691H15.8C17.1 5.57691 18.22 6.65383 18.22 7.90383V11.2308C18.22 12.4807 17.1 13.5577 15.8 13.5577H10.94C9.82 13.5577 8.88 12.8461 8.6 11.8461L6.82 5.92307L5.6 1.71154C5.24 0.711537 4.3 0 3.18 0H0.94C0.38 0 0 0.365384 0 0.903845C0 1.44231 0.38 1.80769 0.94 1.80769H3.18C3.46 1.80769 3.74 1.98077 3.84 2.25L5.14 6.3846L6.82 12.4038C7.28 14.1923 9.06 15.4615 10.94 15.4615H15.7C18.04 15.4615 20 13.5769 20 11.3269V7.98075C20 5.65384 18.14 3.76922 15.7 3.76922Z" fill="currentColor"/>
<path d="M12 18.5577C12 19.3543 11.3284 20 10.5 20C9.67157 20 9 19.3543 9 18.5577C9 17.7611 9.67157 17.1154 10.5 17.1154C11.3284 17.1154 12 17.7611 12 18.5577Z" fill="currentColor"/>
<path d="M18 18.5577C18 19.3543 17.3284 20 16.5 20C15.6716 20 15 19.3543 15 18.5577C15 17.7611 15.6716 17.1154 16.5 17.1154C17.3284 17.1154 18 17.7611 18 18.5577Z" fill="currentColor"/>
</svg>
