<svg width="18" height="18" viewBox="0 0 18 18" xmlns="http://www.w3.org/2000/svg">
<path d="M2.72557 16.2001C2.48847 16.2001 2.25137 16.1099 2.07122 15.9284C1.70958 15.5667 1.70958 14.9804 2.07122 14.6188L14.6187 2.07128C14.9803 1.70964 15.5666 1.70964 15.9283 2.07128C16.2899 2.43293 16.2899 3.01925 15.9283 3.38112L3.38105 15.9284C3.19955 16.1087 2.96245 16.2001 2.72557 16.2001Z" fill="currentColor"/>
<path d="M15.2742 16.2001C15.0371 16.2001 14.8002 16.1099 14.6198 15.9284L2.07122 3.38112C1.70958 3.01925 1.70958 2.43293 2.07122 2.07128C2.43287 1.70964 3.01918 1.70964 3.38105 2.07128L15.9283 14.6188C16.2899 14.9804 16.2899 15.5667 15.9283 15.9284C15.7468 16.1087 15.5099 16.2001 15.2742 16.2001Z" fill="currentColor"/>
</svg>
