<svg width="22" height="16" viewBox="0 0 22 16" xmlns="http://www.w3.org/2000/svg">
<path d="M16.6154 10.0798C15.0863 10.0798 13.8423 11.3238 13.8423 12.853C13.8423 14.3821 15.0863 15.6261 16.6154 15.6261C18.1448 15.6261 19.3885 14.3821 19.3885 12.853C19.3885 11.3238 18.1446 10.0798 16.6154 10.0798ZM16.6154 14.2395C15.8507 14.2395 15.2289 13.6176 15.2289 12.853C15.2289 12.0883 15.8507 11.4664 16.6154 11.4664C17.3801 11.4664 18.002 12.0883 18.002 12.853C18.002 13.6177 17.3801 14.2395 16.6154 14.2395Z" fill="currentColor"/>
<path d="M7.14081 10.0798C5.61167 10.0798 4.36768 11.3238 4.36768 12.853C4.36768 14.3821 5.61167 15.6261 7.14081 15.6261C8.66994 15.6261 9.91394 14.3821 9.91394 12.853C9.91394 11.3238 8.66994 10.0798 7.14081 10.0798ZM7.14081 14.2395C6.37613 14.2395 5.75424 13.6176 5.75424 12.853C5.75424 12.0883 6.37613 11.4664 7.14081 11.4664C7.90527 11.4664 8.52737 12.0883 8.52737 12.853C8.52737 13.6177 7.90548 14.2395 7.14081 14.2395Z" fill="currentColor"/>
<path d="M18.4833 2.14252C18.3654 1.90843 18.1258 1.76074 17.8637 1.76074H14.2124V3.14731H17.4361L19.3239 6.90211L20.5631 6.27906L18.4833 2.14252Z" fill="currentColor"/>
<path d="M14.5359 12.1829H9.29004V13.5694H14.5359V12.1829Z" fill="currentColor"/>
<path d="M5.06096 12.1829H2.65762C2.27468 12.1829 1.96436 12.4932 1.96436 12.8761C1.96436 13.2591 2.27472 13.5694 2.65762 13.5694H5.061C5.44394 13.5694 5.75426 13.259 5.75426 12.8761C5.75426 12.4932 5.4439 12.1829 5.06096 12.1829Z" fill="currentColor"/>
<path d="M21.8546 7.94464L20.4909 6.18833C20.3599 6.01916 20.1577 5.92024 19.9434 5.92024H14.9056V1.06728C14.9056 0.684345 14.5952 0.374023 14.2123 0.374023H2.65762C2.27468 0.374023 1.96436 0.684388 1.96436 1.06728C1.96436 1.45018 2.27472 1.76055 2.65762 1.76055H13.519V6.6135C13.519 6.99644 13.8294 7.30677 14.2123 7.30677H19.6039L20.6136 8.60735V12.1828H18.6955C18.3125 12.1828 18.0022 12.4932 18.0022 12.8761C18.0022 13.259 18.3126 13.5694 18.6955 13.5694H21.3068C21.6898 13.5694 22.0001 13.259 22.0001 12.8761V8.36986C22.0001 8.21595 21.9488 8.0662 21.8546 7.94464Z" fill="currentColor"/>
<path d="M5.0147 8.67017H1.82559C1.44265 8.67017 1.13232 8.98053 1.13232 9.36343C1.13232 9.74637 1.44269 10.0567 1.82559 10.0567H5.01466C5.3976 10.0567 5.70792 9.74632 5.70792 9.36343C5.70796 8.98053 5.3976 8.67017 5.0147 8.67017Z" fill="currentColor"/>
<path d="M6.60927 5.94336H0.693261C0.310365 5.94336 0 6.25372 0 6.63666C0 7.01959 0.310365 7.32991 0.693261 7.32991H6.60927C6.99221 7.32991 7.30253 7.01955 7.30253 6.63666C7.30253 6.25376 6.99221 5.94336 6.60927 5.94336Z" fill="currentColor"/>
<path d="M7.7416 3.21631H1.82559C1.44265 3.21631 1.13232 3.52667 1.13232 3.90957C1.13232 4.29251 1.44269 4.60283 1.82559 4.60283H7.7416C8.12454 4.60283 8.43486 4.29247 8.43486 3.90957C8.4349 3.52667 8.12454 3.21631 7.7416 3.21631Z" fill="currentColor"/>
</svg>
