<svg width="12" height="12" viewBox="0 0 12 12" xmlns="http://www.w3.org/2000/svg">
<path d="M11.5307 0H0.468749C0.209838 0 0 0.209839 0 0.46875C0 1.77411 0.559569 3.02032 1.53524 3.8876L3.58813 5.71225C3.94408 6.02865 4.14825 6.48331 4.14825 6.95965V11.5307C4.14825 11.9042 4.56573 12.1282 4.87691 11.9206L7.64244 10.077C7.77281 9.99005 7.85118 9.84375 7.85118 9.68701V6.95965C7.85118 6.48331 8.05534 6.02865 8.4113 5.71225L10.4641 3.8876C11.4398 3.02032 11.9993 1.77411 11.9993 0.46875C11.9993 0.209839 11.7895 0 11.5307 0ZM9.84126 3.18686L7.78847 5.0116C7.23256 5.5058 6.91368 6.21579 6.91368 6.95956V9.43616L5.08565 10.6548V6.95965C5.08565 6.21579 4.76678 5.5058 4.21087 5.0116L2.15808 3.18695C1.50018 2.60202 1.08023 1.80057 0.967802 0.937408H11.0315C10.9191 1.80057 10.4992 2.60202 9.84126 3.18686Z" fill="currentColor"/>
</svg>
