<svg width="20" height="20" viewBox="0 0 20 20" xmlns="http://www.w3.org/2000/svg">
<path d="M11.7039 17.1876C9.6533 19.2332 6.2708 19.1713 4.08642 16.992C1.90204 14.812 1.83767 11.4382 3.89017 9.39321L10.9071 2.38884C12.3789 0.920091 14.8058 0.966966 16.3852 2.54071C17.9627 4.11634 18.0052 6.53571 16.5321 8.00384L10.4089 14.1107C9.51642 15.002 8.04392 14.9826 7.07267 14.012C6.1008 13.0426 6.08142 11.572 6.97392 10.6807L10.4045 7.25634C10.6739 7.00571 10.6883 6.58321 10.437 6.31321C10.1864 6.04446 9.76517 6.03009 9.47955 6.29571L6.02892 9.74134C4.60579 11.1613 4.67267 13.502 6.12767 14.9538C7.58267 16.4045 9.93017 16.4776 11.3545 15.0563L17.4764 8.94446C19.4789 6.94696 19.3858 3.65259 17.3239 1.59697C16.2933 0.567591 14.9564 0.031966 13.6233 0.00134099C12.2914 -0.028659 10.962 0.444466 9.96142 1.44447L2.94392 8.44759C0.361416 11.0232 0.478291 15.2738 3.14517 17.9363C5.81455 20.5988 10.067 20.7101 12.6489 18.1338L17.8746 12.9201C18.1358 12.6601 18.1358 12.2363 17.8746 11.9751C17.6146 11.7145 17.1908 11.7145 16.9302 11.9751L11.7039 17.1876Z" fill="currentColor"/>
</svg>
