<svg width="19" height="18" viewBox="0 0 19 18" xmlns="http://www.w3.org/2000/svg">
<path fill-rule="evenodd" clip-rule="evenodd" d="M9.52094 9.30704C6.97741 9.30704 4.86497 7.1957 4.86497 4.69659C4.86497 2.11131 6.97741 0 9.52094 0C12.1507 0 14.1769 2.11131 14.1769 4.69659C14.1769 7.1957 12.1507 9.30704 9.52094 9.30704ZM9.52094 2.71454C8.44319 2.71454 7.62406 3.61939 7.62406 4.6966C7.62406 5.77379 8.44319 6.59244 9.52094 6.59244C10.6418 6.59244 11.4178 5.77379 11.4178 4.6966C11.4178 3.61939 10.6418 2.71454 9.52094 2.71454ZM11.3747 13.1419L14.0045 15.6841C14.5218 16.2442 14.5218 17.0629 14.0045 17.5799C13.444 18.14 12.5818 18.14 12.1507 17.5799L9.52094 14.9947L6.97741 17.5799C6.71874 17.8385 6.37385 17.9677 5.98585 17.9677C5.68407 17.9677 5.33919 17.8385 5.03741 17.5799C4.52008 17.0629 4.52008 16.2442 5.03741 15.6841L7.71026 13.1419C6.71874 12.8402 5.81341 12.4524 4.95119 11.9354C4.30453 11.5907 4.1752 10.7289 4.52008 10.0826C4.95119 9.43625 5.72719 9.2639 6.41696 9.69481C8.31384 10.8582 10.728 10.8582 12.6249 9.69481C13.3147 9.2639 14.1338 9.43625 14.5218 10.0826C14.9098 10.7289 14.7373 11.5907 14.1338 11.9354C13.3147 12.4524 12.3663 12.8402 11.3747 13.1419Z" fill="currentColor"/>
</svg>
