<svg width="20" height="20" viewBox="0 0 20 20" xmlns="http://www.w3.org/2000/svg">
<path d="M10.4687 2.29523C10.4819 2.29523 10.4947 2.29516 10.5078 2.29516C12.4117 2.29516 14.1957 3.03125 15.5346 4.37008C16.8845 5.71997 17.6228 7.51924 17.6137 9.43639C17.6116 9.86784 17.9597 10.2193 18.3912 10.2214H18.395C18.8247 10.2214 19.1741 9.87401 19.1761 9.44381C19.1873 7.10642 18.2864 4.9122 16.6394 3.2652C15.0053 1.63101 12.8293 0.732651 10.508 0.732651C10.4937 0.732651 10.4794 0.73269 10.4651 0.732729C10.0336 0.7348 9.68549 1.08625 9.68752 1.51769C9.68959 1.94789 10.039 2.29523 10.4687 2.29523Z" fill="currentColor"/>
<path d="M19.9981 16.0243C19.9702 15.2507 19.6479 14.5287 19.0907 13.9914C17.9996 12.9393 17.0855 12.332 16.2139 12.0801C15.0127 11.733 13.9004 12.0487 12.9076 13.0182C12.9061 13.0197 12.9046 13.0212 12.9031 13.0227L11.8458 14.0721C11.1891 13.7032 9.91256 12.8913 8.51635 11.4951L8.41354 11.3923C7.0265 10.0053 6.20951 8.72151 5.83779 8.06214L6.88619 7.00584C6.88767 7.00436 6.88912 7.00288 6.8906 7.00135C7.86017 6.00861 8.17584 4.89619 7.82873 3.69509C7.57685 2.82349 6.96955 1.90934 5.91743 0.818284C5.38013 0.261056 4.65817 -0.0612107 3.88461 -0.0891015C3.11121 -0.116953 2.36773 0.152345 1.7916 0.669534L1.76918 0.68969C1.75875 0.699026 1.74859 0.708675 1.73871 0.718557C0.59183 1.86536 -0.00934337 3.47091 0.000109789 5.36158C0.0161255 8.57331 1.78133 12.2463 4.72196 15.1869C4.72442 15.1894 4.72684 15.1918 4.7293 15.1942C5.28212 15.7462 5.90978 16.2925 6.59501 16.8179C6.9374 17.0804 7.42779 17.0157 7.69037 16.6733C7.95291 16.3309 7.88818 15.8405 7.54576 15.5779C6.91154 15.0917 6.33322 14.5884 5.82685 14.082C5.82443 14.0796 5.822 14.0772 5.81954 14.0748C3.16778 11.42 1.5766 8.16046 1.56258 5.35373C1.55531 3.89763 1.99332 2.68228 2.82942 1.83755L2.83539 1.83216C3.40328 1.32247 4.26305 1.35348 4.79274 1.90278C6.81544 4.00037 6.66896 4.99064 5.77521 5.90713L4.327 7.36624C4.09989 7.59506 4.03665 7.93991 4.16782 8.23444C4.20458 8.31702 5.09395 10.2824 7.309 12.4974L7.41181 12.6001C9.62659 14.8149 11.5919 15.7043 11.6745 15.7411C11.9691 15.8723 12.3139 15.809 12.5427 15.5819L14.0016 14.1339C14.9182 13.24 15.9085 13.0934 18.0062 15.1161C18.5555 15.6458 18.5865 16.5056 18.0769 17.0734L18.0714 17.0795C17.2335 17.9088 16.0311 18.3464 14.5908 18.3464C14.579 18.3464 14.5671 18.3464 14.5552 18.3464C13.404 18.3406 12.0709 18.025 10.7001 17.4338C10.304 17.2628 9.84424 17.4455 9.67334 17.8417C9.50245 18.2379 9.6851 18.6976 10.0813 18.8685C11.6657 19.5519 13.1684 19.9019 14.5474 19.9089C14.562 19.9089 14.5766 19.9089 14.5912 19.9089C16.4629 19.9089 18.0525 19.3082 19.1904 18.1703C19.2003 18.1603 19.2099 18.1502 19.2192 18.1398L19.2395 18.1173C19.7565 17.5412 20.026 16.7979 19.9981 16.0243Z" fill="currentColor"/>
<path d="M14.432 5.47717C13.5939 4.63912 12.7896 4.41673 12.4031 4.30982C11.9871 4.19478 11.5569 4.43869 11.4419 4.85459C11.3269 5.27045 11.5707 5.7008 11.9866 5.8158C12.3027 5.90322 12.7804 6.03533 13.3271 6.58201C13.8534 7.1083 13.9932 7.58342 14.0857 7.89784L14.097 7.93608C14.1976 8.27581 14.5087 8.49581 14.8458 8.49581C14.9193 8.49585 14.9939 8.48538 15.0679 8.46346C15.4816 8.341 15.7178 7.90631 15.5953 7.4926L15.5847 7.45674C15.4642 7.04729 15.2399 6.2851 14.432 5.47717Z" fill="currentColor"/>
</svg>
