<svg width="18" height="18" viewBox="0 0 18 18" xmlns="http://www.w3.org/2000/svg">
<path d="M7.92287 6.92314C7.54003 6.92314 7.23057 7.23261 7.23057 7.61545V13.1539C7.23057 13.5368 7.54003 13.8462 7.92287 13.8462C8.30572 13.8462 8.61518 13.5368 8.61518 13.1539V7.61545C8.61518 7.23261 8.30572 6.92314 7.92287 6.92314Z" fill="currentColor"/>
<path d="M10.6923 6.92314C10.3095 6.92314 10 7.23261 10 7.61545V13.1539C10 13.5368 10.3095 13.8462 10.6923 13.8462C11.0752 13.8462 11.3846 13.5368 11.3846 13.1539V7.61545C11.3846 7.23261 11.0752 6.92314 10.6923 6.92314Z" fill="currentColor"/>
<path d="M11.3846 0H7.23077C6.46715 0 5.84615 0.621 5.84615 1.38462V2.76923H1.69231C1.30946 2.76923 1 3.07869 1 3.46154C1 3.84438 1.30946 4.15385 1.69231 4.15385H3.07692V15.9231C3.07692 17.0682 4.00877 18 5.15385 18H13.4615C14.6066 18 15.5385 17.0682 15.5385 15.9231V4.15385H16.9231C17.3059 4.15385 17.6154 3.84438 17.6154 3.46154C17.6154 3.07869 17.3059 2.76923 16.9231 2.76923H12.7692V1.38462C12.7692 0.621 12.1482 0 11.3846 0ZM14.1538 15.9231C14.1538 16.3052 13.8437 16.6154 13.4615 16.6154H5.15385C4.77169 16.6154 4.46154 16.3052 4.46154 15.9231V4.15385H14.1538V15.9231ZM7.23077 2.76923V1.38462H11.3846V2.76923H7.23077Z" fill="currentColor"/>
</svg>
