<svg width="19" height="18" viewBox="0 0 19 18" xmlns="http://www.w3.org/2000/svg">
<path d="M8.74516 0C4.29284 0 0.666016 3.62558 0.666016 8.07641C0.666016 12.5272 4.29284 16.1599 8.74516 16.1599C10.6469 16.1599 12.3959 15.4936 13.7782 14.3875L17.1435 17.7498C17.3133 17.9126 17.5401 18.0024 17.7754 18C18.0106 17.9975 18.2355 17.9032 18.402 17.737C18.5685 17.5708 18.6632 17.3461 18.666 17.111C18.6687 16.8758 18.5792 16.6489 18.4166 16.4789L15.0513 13.1148C16.1588 11.7308 16.8261 9.97968 16.8261 8.07641C16.8261 3.62558 13.1975 0 8.74516 0ZM8.74516 1.79517C12.227 1.79517 15.0285 4.59577 15.0285 8.07641C15.0285 11.557 12.227 14.3647 8.74516 14.3647C5.26334 14.3647 2.46177 11.557 2.46177 8.07641C2.46177 4.59577 5.26334 1.79517 8.74516 1.79517Z" fill="currentColor"/>
</svg>
