<svg width="12" height="12" viewBox="0 0 12 12" xmlns="http://www.w3.org/2000/svg">
<path d="M11.7143 1.57146C11.7143 1.7609 11.639 1.94259 11.5051 2.07654C11.3711 2.21049 11.1894 2.28575 11 2.28575H0.714286C0.524846 2.28575 0.343164 2.21049 0.20921 2.07654C0.0752549 1.94259 0 1.7609 0 1.57146C0 1.38202 0.0752549 1.20034 0.20921 1.06639C0.343164 0.932433 0.524846 0.857178 0.714286 0.857178H11C11.1894 0.857178 11.3711 0.932433 11.5051 1.06639C11.639 1.20034 11.7143 1.38202 11.7143 1.57146ZM8.14286 5.14289H0.714286C0.524846 5.14289 0.343164 5.21815 0.20921 5.3521C0.0752549 5.48606 0 5.66774 0 5.85718C0 6.04662 0.0752549 6.2283 0.20921 6.36226C0.343164 6.49621 0.524846 6.57147 0.714286 6.57147H8.14286C8.3323 6.57147 8.51398 6.49621 8.64794 6.36226C8.78189 6.2283 8.85715 6.04662 8.85715 5.85718C8.85715 5.66774 8.78189 5.48606 8.64794 5.3521C8.51398 5.21815 8.3323 5.14289 8.14286 5.14289ZM4.57143 9.42861H0.714286C0.524846 9.42861 0.343164 9.50386 0.20921 9.63782C0.0752549 9.77177 0 9.95345 0 10.1429C0 10.3323 0.0752549 10.514 0.20921 10.648C0.343164 10.7819 0.524846 10.8572 0.714286 10.8572H4.57143C4.76087 10.8572 4.94255 10.7819 5.07651 10.648C5.21046 10.514 5.28572 10.3323 5.28572 10.1429C5.28572 9.95345 5.21046 9.77177 5.07651 9.63782C4.94255 9.50386 4.76087 9.42861 4.57143 9.42861Z" fill="currentColor"/>
</svg>
