<svg width="19" height="18" viewBox="0 0 19 18" xmlns="http://www.w3.org/2000/svg">
<path fill-rule="evenodd" clip-rule="evenodd" d="M17.3526 3.96512C17.6321 4.24462 17.8335 4.59248 17.9368 4.97404C18.5313 7.36712 18.3939 11.1466 17.9483 13.6321C17.845 14.0136 17.6436 14.3615 17.3641 14.641C17.0846 14.9205 16.7368 15.1219 16.3552 15.2252C14.9584 15.6061 9.33642 15.6061 9.33642 15.6061C9.33642 15.6061 3.71446 15.6061 2.31763 15.2252C1.93607 15.1219 1.58822 14.9205 1.30871 14.641C1.0292 14.3615 0.827798 14.0136 0.72455 13.6321C0.126567 11.2494 0.290493 7.46755 0.713006 4.98558C0.816254 4.60402 1.01766 4.25617 1.29717 3.97666C1.57667 3.69715 1.92453 3.49575 2.30609 3.3925C3.70292 3.01154 9.32488 3 9.32488 3C9.32488 3 14.9468 3 16.3437 3.38095C16.7252 3.4842 17.0731 3.68561 17.3526 3.96512ZM12.1994 9.30312L7.53558 12.0044V6.60181L12.1994 9.30312Z" fill="currentColor"/>
</svg>
