<svg width="30" height="30" viewBox="0 0 30 30" xmlns="http://www.w3.org/2000/svg">
<path d="M21.5625 15.9375H8.4375C7.92 15.9375 7.5 15.5175 7.5 15C7.5 14.4825 7.92 14.0625 8.4375 14.0625H21.5625C22.08 14.0625 22.5 14.4825 22.5 15C22.5 15.5175 22.08 15.9375 21.5625 15.9375Z" fill="currentColor"/>
<path d="M15 22.5C14.4825 22.5 14.0625 22.08 14.0625 21.5625V8.4375C14.0625 7.92 14.4825 7.5 15 7.5C15.5175 7.5 15.9375 7.92 15.9375 8.4375V21.5625C15.9375 22.08 15.5175 22.5 15 22.5Z" fill="currentColor"/>
<path d="M26.5624 30H3.43758C1.54129 30 0 28.4587 0 26.5624V3.43758C0 1.54129 1.54129 0 3.43758 0H26.5624C28.4587 0 30 1.54129 30 3.43758V26.5624C30 28.4587 28.4587 30 26.5624 30ZM3.43758 1.875C2.57629 1.875 1.875 2.57629 1.875 3.43758V26.5624C1.875 27.4237 2.57629 28.125 3.43758 28.125H26.5624C27.4237 28.125 28.125 27.4237 28.125 26.5624V3.43758C28.125 2.57629 27.4237 1.875 26.5624 1.875H3.43758Z" fill="currentColor"/>
</svg>
