<svg width="160" height="464" viewBox="0 0 160 464" fill="none" xmlns="http://www.w3.org/2000/svg">
<path fill-rule="evenodd" clip-rule="evenodd" d="M-205.951 463.961H-203.632C-184.536 444.748 -198.278 437.812 -204.231 400.123C-205.874 389.691 -204.85 390.176 -208 386.194V388.875C-206.608 391.012 -207.072 392.139 -205.777 400.395C-199.747 438.706 -185.811 444.534 -205.951 463.961ZM-189.426 463.961C-190.102 446.36 -193.291 426.544 -196.577 406.379C-201.757 374.557 -207.188 341.9 -203.323 315.809C-202.298 308.951 -201.158 302.501 -199.94 296.343C-193.156 261.665 -184.632 235.672 -188.575 194.078C-191.069 167.832 -191.533 145.568 -191.919 119.341C-192.48 81.2447 -198.297 43.1673 -207.981 6.48869V0.427401C-200.81 26.4016 -195.572 53.1141 -192.712 80.079C-191.339 93.1147 -190.527 106.209 -190.334 119.322C-190.218 126.938 -190.102 134.223 -189.928 141.372C-189.619 154.136 -189.136 166.472 -188.208 179.469C-187.879 184.17 -187.474 188.969 -187.01 193.884C-185.966 204.821 -185.792 214.671 -186.198 223.86C-187.474 252.282 -194.451 274.546 -199.708 303.648C-200.443 307.669 -201.119 311.807 -201.757 316.12C-205.12 338.791 -201.39 366.495 -196.925 394.353C-193.059 418.501 -188.653 442.766 -187.841 463.942H-189.426V463.961ZM-178.505 463.961C-182.487 442.494 -184.246 421.493 -188.285 399.968C-190.373 388.855 -192.402 387.029 -192.905 376.111C-193.504 363.192 -195.862 316.567 -194.238 305.668C-192.093 291.35 -186.41 281.034 -184.942 264.813C-184.787 263.084 -184.652 261.568 -184.555 260.208C-183.627 248.008 -184.536 249.659 -180.67 233.535C-170.832 192.388 -183.492 158.235 -182.874 116.641C-182.661 102.692 -182.545 97.0196 -185.483 83.2262C-188.885 67.1988 -185.347 55.2705 -189.542 38.8739C-193.272 24.284 -192.344 31.7441 -193.195 15.736C-193.523 9.81073 -194.238 4.77909 -195.089 0.0194166L-193.465 0.0194166C-192.634 4.74023 -191.919 9.75248 -191.59 15.6389C-190.701 31.9772 -191.803 23.507 -187.976 38.4076C-183.724 55.0179 -187.28 66.8685 -183.937 82.7017C-180.96 96.7476 -181.057 102.42 -181.269 116.641C-181.656 143.179 -176.688 166.472 -175.529 190.581C-175.393 193.301 -175.316 196.04 -175.297 198.799C-175.22 210.105 -176.186 221.684 -179.105 233.943C-183.434 252.029 -181.733 247.289 -183.318 264.949C-183.492 266.988 -183.743 268.931 -184.053 270.796C-186.159 283.948 -190.74 293.371 -192.615 305.921C-194.219 316.625 -191.861 363.25 -191.262 375.995C-190.701 388.234 -189.116 386.582 -186.662 399.618C-182.622 421.202 -180.863 442.358 -176.843 463.922H-178.505V463.961ZM-173.248 463.961C-179.491 429.536 -186.121 397.481 -189.097 359.481C-191.107 333.896 -192.19 320.258 -186.816 294.459C-183.125 276.76 -182.468 267.804 -180.786 250.67C-179.646 239.052 -177.075 231.631 -174.601 223.996C-172.552 217.643 -170.581 211.174 -169.595 202.024C-166.986 177.759 -167.817 156.331 -173.132 132.552C-179.259 105.16 -174.466 85.2273 -177.056 59.2336C-178.505 44.6438 -179.878 41.4966 -179.994 26.4793C-180.071 16.2995 -180.052 8.54798 -180.631 0.0582793L-178.853 0.0582793C-178.293 8.50912 -178.293 16.28 -178.215 26.4599C-178.099 43.1867 -175.084 54.6877 -174.582 70.6957C-173.615 102.09 -176.65 107.083 -169.692 139.002C-164.338 163.577 -164.589 201.907 -173.306 225.434C-173.731 226.56 -174.099 227.629 -174.466 228.678C-178.022 239.169 -178.563 245.716 -179.414 257.644C-180.709 275.75 -184.168 287.601 -187.261 304.619C-190.585 322.842 -188.285 349.03 -186.604 367.855C-183.511 402.318 -177.133 432.353 -171.393 463.961H-173.248ZM-169.402 463.961C-173.306 450.673 -174.988 433.188 -177.056 423.863C-181.463 404.009 -184.362 368.107 -184.536 347.534C-184.826 311.69 -171.219 368.204 -170.078 372.983C-164.821 394.742 -163.758 409.643 -160.685 430.721C-159.448 439.153 -157.96 440.163 -156.858 449.682C-156.375 453.917 -155.292 458.91 -154.152 463.942H-155.544C-155.853 462.562 -156.065 461.727 -156.065 461.708C-158.076 453.742 -158.114 446.632 -159.95 440.668C-163.12 430.333 -163.468 419.24 -164.976 408.516C-165.942 401.561 -177.21 341.861 -182.294 337.704C-183.125 339.394 -182.99 346.795 -182.99 347.475C-182.816 368.146 -179.974 403.504 -175.548 423.455C-173.577 432.295 -171.663 450.634 -167.74 463.922H-169.402V463.961ZM-165.208 463.961H-163.565C-168.745 444.942 -175.123 416.462 -174.369 399.793C-174.369 399.696 -174.35 399.521 -174.33 399.307C-164.183 421.959 -165.671 441.154 -161.033 463.961H-159.429C-162.83 447.273 -162.676 432.392 -166.928 416.248C-167.044 415.782 -175.355 387.36 -175.935 399.696C-176.708 416.384 -170.407 444.786 -165.208 463.961ZM-144.932 463.961H-143.367C-144.237 444.204 -148.16 428.565 -153.089 412.751C-158.617 394.994 -165.382 377.005 -170.504 352.604C-176.244 325.251 -176.186 311.283 -172.707 283.968C-166.29 233.554 -159.429 180.576 -151.446 129.677C-149.958 120.235 -148.45 110.852 -146.884 101.585C-144.816 89.2681 -145.435 94.9603 -142.207 83.3234C-136.409 62.4003 -138.516 31.2001 -141.975 0.0388628L-143.56 0.0388628C-140.12 31.1224 -138.013 62.2254 -143.734 82.8571C-146.943 94.4358 -147.194 93.309 -149.262 106.267C-149.977 110.774 -150.692 115.301 -151.407 119.847C-160.434 177.293 -168.899 237.653 -175.683 294.944C-181.211 341.783 -164.125 378.501 -153.147 418.365C-149.107 432.916 -145.899 447.895 -144.932 463.961ZM-137.433 463.961H-135.887C-136.563 459.337 -137.394 454.714 -138.361 450.109C-141.395 435.617 -145.686 421.493 -150.228 408.982C-162.308 375.567 -159.68 354.353 -167.044 323.366C-176.708 282.589 -156.665 179.605 -142.362 139.332C-138.342 128.025 -135.326 117.204 -133.065 106.694C-125.102 69.7243 -126.648 36.5426 -128.407 0.0582793L-129.972 0.0582793C-128.349 33.5703 -126.938 64.3818 -132.93 97.8355C-135.288 110.929 -138.767 124.451 -143.831 138.691C-157.032 175.816 -176.708 279.072 -170.252 316.742C-168.725 325.678 -166.715 332.089 -165.343 342.308C-161.999 367.078 -160.414 385.553 -151.717 409.584C-146.15 424.971 -141.357 441.037 -138.516 457.375C-138.09 459.571 -137.742 461.766 -137.433 463.961ZM-127.537 463.961H-125.933C-127.073 455.646 -128.813 447.448 -130.9 439.269C-140.545 401.619 -157.65 364.61 -158.23 321.152C-158.578 294.245 -162.869 286.027 -158.81 256.634C-154.365 224.482 -155.795 203.831 -144.391 172.145C-131.093 135.194 -122.125 108.326 -115.554 74.1149C-113.718 64.5761 -112.075 54.4934 -110.567 43.4393C-108.634 29.1797 -107.185 14.6675 -106.141 0.0194166L-107.726 0.0194166C-108.77 14.5898 -110.2 29.0048 -112.133 43.1867C-113.06 49.9668 -114.027 56.3778 -115.071 62.5168C-121.777 102.246 -131.171 130.706 -145.86 171.504C-157.341 203.403 -155.891 223.996 -160.356 256.323C-164.454 285.969 -160.163 294.051 -159.815 321.093C-159.216 366.708 -140.429 405.349 -131.171 444.903C-129.644 451.236 -128.407 457.57 -127.537 463.961ZM-119.729 463.961H-118.144C-120.366 447.953 -124.155 436.025 -130.05 419.259C-133.2 410.303 -136.95 399.948 -141.376 386.854C-157.96 337.781 -156.723 307.708 -147.986 257.275C-144.546 237.478 -143.869 217.119 -137.839 197.886C-133.297 183.374 -132.099 180.382 -128.929 164.898C-125.082 146.112 -121.429 123.266 -116.713 102.187C-114.143 90.6863 -111.244 79.7099 -107.823 70.1906C-106.141 65.4892 -102.585 32.8709 -99.2603 0.0388628L-101 0.0388628C-102.875 18.8444 -104.846 37.65 -107.127 56.3584C-108.924 71.0648 -107.533 63.3911 -111.63 75.3194L-114.955 88.2191C-115.438 90.2201 -115.902 92.2405 -116.366 94.2609C-121.623 117.224 -125.74 141.469 -130.456 164.529C-133.625 180.013 -134.766 182.83 -139.327 197.342C-145.377 216.633 -146.073 237.051 -149.513 256.925C-158.308 307.669 -159.544 338.034 -142.845 387.418C-137.781 402.377 -133.625 413.742 -130.224 423.533C-125.14 438.201 -121.777 449.371 -119.729 463.961ZM-110.297 463.961H-108.673C-110.084 457.803 -111.727 451.664 -113.524 445.661C-114.143 443.582 -114.781 441.503 -115.418 439.463C-119.864 425.398 -124.909 412.285 -129.315 401.697C-130.61 398.569 -131.867 395.655 -133.026 393.013C-134.592 389.419 -136.022 385.767 -137.317 382.056C-154.867 331.701 -148.102 270.485 -134.766 217.158C-131.809 205.307 -128.523 193.845 -125.102 182.985C-122.86 175.836 -120.946 168.803 -119.245 161.848C-114.297 141.605 -111.166 121.984 -106.933 101.954C-105.233 93.9889 -103.377 85.9461 -101.135 77.7672C-100.149 74.1732 -99.2989 69.8797 -98.5452 65.0812C-97.888 60.8461 -97.3275 56.203 -96.8443 51.2685C-95.3947 36.1152 -94.7568 18.0673 -94.9114 0.0776959L-96.477 0.0776959C-96.4383 4.70138 -96.4383 9.32508 -96.5156 13.9099C-96.5736 17.9508 -96.6702 21.9528 -96.8055 25.8965C-96.9988 31.2196 -97.25 36.3872 -97.5979 41.3606C-98.603 55.931 -100.246 68.617 -102.623 77.2427C-104.131 82.7794 -105.484 88.2579 -106.721 93.6781C-111.302 113.785 -114.394 133.387 -118.898 153.436C-121.043 162.975 -123.498 172.611 -126.609 182.461C-129.431 191.417 -132.157 200.761 -134.688 210.377C-149.571 266.891 -157.67 332.944 -137.414 386.524C-136.486 388.972 -135.52 391.381 -134.476 393.79C-132.968 397.267 -131.287 401.211 -129.528 405.524C-125.005 416.598 -119.922 430.138 -115.592 444.476C-114.974 446.554 -114.355 448.633 -113.756 450.731C-112.481 455.063 -111.321 459.512 -110.297 463.961ZM-102.333 463.942C-105.89 448.516 -108.016 433.596 -112.403 417.316C-113.698 412.479 -115.206 407.544 -117.003 402.416C-120.173 393.363 -124.155 381.182 -127.904 367.952C-135.191 342.211 -141.589 312.506 -139.347 294.187C-136.873 274.06 -128.62 225.939 -120.676 196.137C-118.608 188.386 -116.559 181.858 -114.626 177.409C-110.355 167.482 -104.653 136.981 -100.207 107.724C-98.9896 99.6811 -97.8493 91.7159 -96.8636 84.3142C-94.9115 69.5495 -93.5197 56.9412 -93.1718 50.064C-92.8433 43.7696 -92.1862 39.787 -91.6063 36.2318C-90.7752 30.9864 -90.1374 26.6153 -91.1231 17.0765C-91.2391 16.008 -91.355 14.8813 -91.5097 13.6962C-92.1088 8.91711 -92.6114 4.39055 -92.998 0.0582793L-91.4324 0.0582793C-91.2584 1.98158 -91.0651 3.92429 -90.8525 5.90586C-90.6012 8.31484 -90.3114 10.8015 -89.9828 13.3465C-87.4895 33.1234 -90.7365 33.24 -91.6063 49.9863C-91.7029 51.9678 -91.8963 54.4157 -92.1476 57.2132C-93.0173 66.8685 -94.7181 80.9144 -96.8828 96.1065C-98.0618 104.383 -99.3762 112.989 -100.748 121.42C-104.807 146.229 -109.504 169.541 -113.293 178.303C-115.689 183.859 -118.337 192.912 -120.985 203.695C-128.272 233.438 -135.558 276.216 -137.781 294.4C-139.868 311.341 -134.36 338.422 -127.673 362.823C-123.575 377.821 -119.013 391.808 -115.515 401.813C-114.278 405.349 -113.177 408.788 -112.191 412.168C-107.533 428.118 -105.291 442.63 -102.159 457.375C-101.696 459.551 -101.212 461.746 -100.71 463.942H-102.333ZM-86.5423 463.961C-86.465 447.234 -90.3692 430.099 -99.6854 410.128L-100.922 407.467C-112.925 381.667 -122.183 361.036 -126.59 336.81C-129.025 323.405 -129.992 308.893 -129.103 291.816C-128.175 274.099 -125.856 257.916 -122.608 242.199C-118.008 219.8 -111.572 198.313 -104.827 174.631C-100.014 157.749 -96.4383 140.323 -93.771 122.489C-87.8953 83.0708 -86.581 41.6908 -86.697 0.0388628L-85.1314 0.0388628C-84.9961 45.8094 -86.6003 91.2691 -94.061 134.242C-96.477 148.152 -99.5115 161.809 -103.3 175.117C-111.263 203.112 -118.453 226.677 -123.053 253.292C-124.715 262.909 -126.03 272.933 -126.938 283.696C-128.368 300.869 -128.04 315.44 -126.223 328.845C-122.686 354.838 -113.544 376.383 -100.806 403.873C-99.9754 405.679 -99.1249 407.506 -98.2552 409.371C-88.823 429.594 -84.8801 446.982 -84.938 463.961H-86.5423ZM-79.217 463.961C-80.8792 454.539 -83.1792 444.786 -85.5179 436.102C-88.9776 423.3 -92.5148 412.829 -94.1963 409.215C-96.4577 404.378 -98.6031 399.851 -100.594 395.597C-120.328 353.498 -126.88 336.46 -114.433 280.898C-109.523 258.984 -105.774 238.566 -101.328 216.73C-99.4729 207.58 -97.4821 199.479 -95.4719 192.019C-90.5626 173.777 -85.5179 159.556 -81.9229 143.995C-77.9606 126.86 -75.7186 108.074 -77.3035 80.5259C-78.038 67.7233 -79.3716 43.3033 -80.3767 17.5039C-80.6086 11.7146 -80.8019 5.86701 -80.9952 0.0776959L-79.4296 0.0776959C-78.4439 31.7247 -76.6464 64.8092 -75.7379 80.4287C-73.9404 111.823 -77.033 131.814 -82.0003 150.93C-85.8852 165.811 -90.8912 180.168 -95.6459 198.935C-97.0568 204.549 -98.4484 210.572 -99.782 217.099C-104.227 238.955 -107.977 259.373 -112.887 281.306C-124.947 335.12 -119.033 352.371 -100.478 392.061C-98.1199 397.112 -95.5492 402.532 -92.7853 408.438C-91.239 411.721 -88.3784 419.881 -85.4019 430.177C-82.5027 440.24 -79.4682 452.344 -77.4774 464H-79.217V463.961ZM-72.3942 463.961C-76.7237 443.388 -84.1456 422.581 -89.8861 404.553C-108.306 346.718 -119.419 319.403 -105.329 257.916C-96.9988 221.587 -81.7683 200.586 -75.5833 162.664C-74.2303 154.349 -72.7614 146.015 -71.5051 137.661C-69.7076 125.694 -68.3739 113.688 -68.4705 101.546C-68.5865 87.2477 -70.4227 63.7408 -72.0849 39.8064C-73.032 26.1296 -73.9018 12.3363 -74.3657 0.0194166L-72.8001 0.0194166C-72.6455 3.90486 -72.4714 7.92629 -72.2588 12.0643C-70.5773 43.9638 -67.0596 81.8469 -66.905 101.527C-66.789 116.952 -68.9731 132.202 -71.4471 147.375C-72.2975 152.562 -73.1866 157.749 -74.0177 162.917C-80.2414 201.072 -95.4525 221.917 -103.783 258.285C-117.796 319.384 -106.682 346.465 -88.3785 403.97C-82.5608 422.231 -75.0807 443.193 -70.7512 463.922L-72.3942 463.922V463.961ZM-50.9207 463.961C-49.0845 449.158 -52.061 434.801 -59.8116 419.337C-63.2327 412.498 -66.6537 404.98 -70.0168 397.17C-70.9059 395.111 -71.795 393.013 -72.684 390.915C-76.7816 381.201 -80.7826 371.196 -84.6482 361.618C-86.7743 356.334 -88.8617 351.186 -90.8912 346.29C-94.3123 338.034 -96.9408 330.982 -98.8543 324.59C-105.117 303.648 -103.706 289.757 -97.3275 263.9C-96.8249 261.84 -96.2837 259.723 -95.7232 257.508C-91.4517 240.878 -87.9533 232.622 -82.9667 223.802C-79.8162 218.246 -76.0665 212.476 -71.1572 204.238L-70.5 203.131L-70.4421 203.034C-54.1871 175.661 -63.2519 150.017 -64.0057 120.021C-64.8562 86.7232 -63.3872 55.2899 -65.8612 21.7585C-66.4024 14.5704 -66.6924 7.32407 -66.8277 0.0388628L-65.2621 0.0388628C-65.1074 7.26579 -64.8175 14.4539 -64.2957 21.5837C-61.8023 55.1928 -63.2712 86.626 -62.4208 119.983C-61.6477 150.464 -52.5636 176.069 -69.1084 203.947C-69.5916 204.763 -70.0554 205.54 -70.5193 206.317L-71.1185 207.327C-76.1051 215.584 -79.8354 221.296 -82.9859 227.163C-87.1994 234.972 -90.3887 243.093 -94.1963 257.916C-95.4527 262.831 -96.5736 267.319 -97.5207 271.496C-101.889 290.67 -102.778 303.084 -98.719 319.151C-96.7862 326.766 -93.7517 335.217 -89.4609 345.61C-87.876 349.438 -86.2524 353.44 -84.5902 357.519C-80.7439 367.039 -76.7237 377.083 -72.6261 386.932C-71.7563 388.991 -70.9059 391.051 -70.0361 393.091C-66.2091 402.066 -62.3242 410.75 -58.4199 418.56C-50.5534 434.276 -47.5189 448.924 -49.3357 463.981H-50.9207V463.961ZM-37.6615 463.961H-35.9414C-35.4775 461.086 -35.1682 458.91 -35.0522 457.997C-33.9892 449.43 -39.3624 430.197 -46.3979 410.031C-54.7283 386.097 -65.378 360.88 -70.2874 350.661L-70.3841 350.467C-71.0412 349.088 -71.6404 347.922 -72.1816 346.893C-75.68 340.19 -76.9362 339.86 -81.3044 333.06C-82.4061 331.351 -83.3918 329.428 -84.2423 327.349C-91.6449 309.495 -90.4273 279.441 -83.3919 257.741C-80.8985 250.067 -77.6901 243.443 -73.8825 238.761C-72.8194 237.459 -71.853 236.293 -70.9832 235.225L-70.8865 235.089C-58.5359 220.072 -62.9814 226.366 -52.7955 202.976C-49.8769 196.293 -47.4995 190.154 -45.6247 184.326C-38.5119 162.373 -38.2801 144.558 -42.281 117.69C-43.3247 110.735 -44.3491 103.178 -45.2962 95.2906C-48.8912 65.1395 -51.1719 29.6071 -47.8668 0.0582793L-49.4517 0.0582793C-53.182 33.7645 -49.7416 74.9502 -45.3348 107.413C-44.8516 111.046 -44.3297 114.582 -43.8272 117.962C-40.1549 142.479 -40.0582 159.323 -45.5861 178.828C-47.6348 186.074 -50.4761 193.709 -54.1871 202.237C-63.9864 224.715 -60.0822 219.508 -70.8479 232.524L-71.0025 232.699C-72.1622 234.098 -73.4959 235.711 -75.0228 237.595C-78.2313 241.539 -81.0339 246.784 -83.3339 252.845C-92.3215 276.372 -93.9644 312.118 -84.281 331.059C-83.7591 332.089 -83.1986 333.08 -82.5995 334.012C-77.6708 341.686 -76.8396 340.909 -72.2202 350.37C-72.0849 350.661 -71.9303 350.953 -71.795 351.264C-71.3504 352.196 -70.8286 353.284 -70.2874 354.489C-64.6822 366.728 -54.2451 391.944 -46.4365 414.907C-40.2129 433.247 -35.6707 450.129 -36.6371 457.783C-36.7338 458.793 -37.1203 461.028 -37.6615 463.961ZM-28.9833 463.961H-27.3597C-27.7849 458.929 -28.3648 453.859 -29.0992 448.827C-31.0127 435.694 -33.8346 422.853 -36.7725 411.741C-40.7347 396.782 -41.6238 394.684 -46.3012 386.485C-47.8088 383.843 -49.7223 380.56 -52.2543 375.995C-59.5989 362.765 -65.668 352.041 -70.3261 342.424C-70.9252 341.181 -71.5051 339.957 -72.0656 338.733C-84.1263 312.37 -84.7835 293.468 -71.0412 251.155L-70.8672 250.631C-70.5773 249.776 -70.3067 248.902 -69.9975 248.008C-63.7932 229.377 -54.4963 226.871 -46.8424 207.852C-46.4365 206.861 -46.05 205.832 -45.6441 204.821C-39.1498 188.094 -33.1968 167.463 -32.6556 149.123C-32.5976 147.278 -32.5976 145.452 -32.6556 143.664C-32.6749 142.829 -32.7136 141.994 -32.7522 141.178C-33.5447 120.624 -35.3615 106.053 -38.8212 85.2272C-42.6096 62.4391 -44.2911 27.8004 -41.7204 0.0582793L-43.286 0.0582793C-45.8567 27.9558 -44.2138 62.4974 -40.3868 85.5187C-36.7918 107.102 -34.9943 121.906 -34.2598 143.723C-33.6607 161.732 -39.2078 182.791 -45.6634 200.275C-46.5332 202.645 -47.4223 204.957 -48.3307 207.172C-55.714 225.492 -64.6436 228.289 -70.9253 245.735L-71.0025 245.968C-71.1765 246.454 -71.3505 246.94 -71.5051 247.445C-87.0062 294.07 -86.0012 313.322 -72.1236 342.366C-71.5437 343.571 -70.9446 344.795 -70.3261 346.038C-65.8613 354.974 -60.2754 364.902 -53.6265 376.849C-50.2635 382.911 -48.0214 386.699 -46.3399 389.71C-42.8608 395.966 -41.8171 398.977 -38.3187 412.207C-34.3371 427.166 -30.5102 445.855 -28.9833 463.961ZM-25.7168 463.961H-24.1512C-25.9487 448.361 -25.3303 436.549 -26.5286 419.434C-27.2244 409.215 -27.5143 404.417 -29.6984 399.871C-31.2639 396.568 -33.8346 393.401 -38.2607 388.37C-41.3532 384.873 -43.9045 381.123 -46.2819 377.238C-49.6257 371.779 -52.6215 366.028 -56.2551 360.2C-62.9427 349.515 -67.6395 335.081 -70.4614 320.86C-70.9639 318.354 -71.3891 315.867 -71.7756 313.4C-72.6067 307.941 -73.1673 302.637 -73.4379 297.683C-74.0757 286.241 -73.9404 279.266 -71.2924 272.311C-71.1185 271.865 -70.9445 271.418 -70.7512 270.971C-69.1083 267.124 -66.6731 263.181 -63.136 258.421C-56.8157 249.892 -50.9206 241.014 -45.7407 231.689C-41.9137 224.773 -38.4927 217.604 -35.6128 210.106C-34.2791 206.628 -33.1001 203.112 -32.0564 199.556C-30.3555 193.67 -29.0412 187.706 -28.0555 181.625C-23.2428 151.882 -26.3933 120.119 -29.6404 88.1802C-32.6556 58.4177 -35.7674 28.5192 -32.5976 0.0194166L-34.1631 0.0194166C-34.2405 0.718797 -34.3178 1.4376 -34.3758 2.13698C-36.3086 21.6808 -35.3809 41.9045 -33.6607 62.3031C-32.385 77.4758 -30.6455 92.7262 -29.2925 107.841C-27.379 129.249 -26.2386 150.386 -28.2294 170.61C-29.0025 178.459 -30.2589 186.171 -32.1144 193.689C-33.4287 199.032 -35.0523 204.297 -37.0431 209.445C-39.923 216.924 -42.7642 223.025 -45.7214 228.445C-52.2543 240.451 -59.3284 249.251 -68.6445 263.006C-69.4176 264.152 -70.1327 265.395 -70.7512 266.716C-70.9059 267.047 -71.0605 267.396 -71.2152 267.727C-77.0716 281.151 -76.0278 302.229 -71.853 321.734C-71.4084 323.832 -70.9252 325.911 -70.4033 327.951C-67.0209 341.395 -62.2662 353.537 -57.4922 361.172C-53.356 367.777 -50.1282 374.168 -46.2819 380.191C-44.2331 383.396 -42.0104 386.485 -39.3818 389.477C-33.2161 396.471 -30.8194 399.638 -29.6211 404.825C-28.8286 408.263 -28.558 412.596 -28.0942 419.492C-26.8958 436.802 -27.495 448.38 -25.7168 463.961ZM-16.9032 463.961H-15.3182C-15.4342 463.106 -15.5309 462.271 -15.6469 461.494C-17.0965 450.925 -18.2948 446.321 -18.3914 432.392C-18.4494 424.349 -18.3334 400.939 -24.4991 391.459C-25.6395 389.691 -27.0118 388.409 -28.6354 387.787C-29.0412 387.632 -29.4278 387.457 -29.8337 387.282C-35.922 384.407 -41.4692 377.257 -46.2239 368.146C-57.1443 347.301 -64.0251 316.139 -64.1604 302.21C-64.3537 280.374 -57.5309 262.889 -45.7987 247.056C-42.9188 243.171 -39.7296 239.363 -36.2892 235.633C-34.3178 233.476 -32.8489 231.845 -31.6892 230.349C-29.6597 227.726 -28.5967 225.608 -27.379 222.092C-26.7219 220.227 -26.026 217.954 -25.1176 215.021C-19.8217 197.944 -21.2134 183.393 -19.2226 165.345C-18.7394 160.955 -18.2948 156.855 -17.8696 153.009C-14.3325 120.449 -13.2695 105.101 -17.2318 67.7427C-17.657 63.7213 -18.1208 59.6999 -18.5654 55.659C-20.6915 37.1837 -23.0108 18.6113 -23.7646 0.0582793L-25.2336 0.0582793C-24.1899 23.1573 -21.252 44.4884 -18.778 67.937C-18.662 69.0249 -18.546 70.074 -18.4494 71.1231C-15.4729 100.458 -15.7821 115.922 -17.9662 138.749C-18.7007 146.442 -19.6671 154.971 -20.7688 165.17C-22.7209 183.043 -21.368 197.672 -26.5866 214.515C-26.8958 215.506 -27.1858 216.419 -27.437 217.274C-29.0413 222.442 -29.9496 225.026 -31.7085 227.687C-32.9648 229.591 -34.6657 231.534 -37.391 234.487C-40.3868 237.731 -43.1894 241.034 -45.7794 244.414C-58.4973 261.005 -65.9386 279.266 -65.726 302.268C-65.5907 317.383 -58.1687 350.37 -46.2432 371.429C-41.4305 379.919 -35.9027 386.485 -29.8143 389.147C-29.5244 389.263 -29.2538 389.399 -28.9639 389.497C-27.0891 390.196 -25.6201 392.177 -24.4411 394.936C-20.1116 405.116 -20.015 425.961 -19.957 432.45C-19.8604 447.409 -18.4881 451.605 -16.9032 463.961ZM-11.472 463.961C-15.1443 433.752 -16.9998 399.346 -10.8921 393.129C-1.30537 383.377 7.27628 381.026 13.7125 372.809C16.9983 368.612 19.7429 362.881 21.7917 353.848C25.58 337.062 26.3145 317.519 22.4102 299.607C19.4337 285.988 13.7898 273.322 4.76361 263.55C-5.24835 252.709 -6.62062 250.67 -10.6215 234.953C-15.9947 213.894 -18.9519 184.092 -13.0375 163.169C-5.55757 136.69 -7.76096 134.708 -7.87693 108.462C-7.95424 91.3663 -5.80887 78.0975 4.93755 64.6538C13.5965 53.8134 10.1175 60.4964 16.3798 45.8677C22.3135 31.9772 29.0011 15.9109 34.7609 0.0776959L36.4424 0.0776959C30.6247 16.1634 23.8211 32.56 17.8294 46.5671C11.6444 61.0598 14.7369 54.9985 6.15523 65.7612C-6.06013 81.0504 -6.6013 95.8734 -6.15675 114.912C-5.59624 138.302 -5.15168 141.081 -11.5686 163.83C-17.3477 184.326 -14.3518 213.913 -9.09459 234.525C-5.13233 250.028 -3.91471 251.758 5.90396 262.384C14.215 271.398 19.7429 282.783 22.9707 295.1C28.0347 314.352 27.4935 335.897 23.3379 354.275C20.8833 365.115 17.4815 371.313 13.384 375.781C7.04437 382.658 -0.996125 385.378 -9.86772 394.45C-15.2989 400.026 -13.3661 434.063 -9.77109 463.981H-11.472V463.961ZM0.975328 463.961C0.453469 459.571 -0.184362 454.908 -0.938158 449.604C-1.63397 444.65 -7.27776 408.632 -6.54329 406.418C-4.01131 398.822 4.82165 393.945 11.8764 388.195C15.0462 385.611 17.8681 382.852 19.5689 379.608C23.9564 371.254 27.5901 354.489 29.6776 338.209C30.3734 332.788 30.8953 327.407 31.2045 322.414C31.707 314.663 31.707 307.805 31.1078 303.104C29.9095 293.643 27.7254 286.513 24.6716 280.335C19.6656 270.194 12.3016 262.676 3.14007 251.699C-4.95841 242.005 -7.83833 221.859 -9.50055 209.173C-13.7334 176.827 -2.02055 160.158 -1.67264 127.598C-1.36339 99.8171 -2.85166 89.1127 11.2965 64.071C27.7061 35.0467 37.7954 26.965 47.5367 0.0388628L49.2182 0.0388628C39.3802 27.5672 29.233 35.5712 12.6302 64.9452C-1.34405 89.6761 0.182846 100.167 -0.126403 127.598C-0.57095 166.977 -14.1972 175.486 -6.44666 218.459C-3.64408 234.001 -3.0449 242.316 7.04436 253.72C14.8529 262.52 20.7093 270.31 24.9035 278.023C29.407 286.357 31.9776 294.614 32.944 304.036C33.9491 314.022 33.1566 325.29 30.9532 339.316C29.9289 345.844 29.0011 353.323 27.4355 360.647C24.9808 372.187 20.9799 383.319 12.5528 389.691L11.5284 390.468C1.51648 398.006 3.87454 395.674 -5.34496 407.389C-3.5861 421.435 -1.44071 435.345 0.530752 449.352C1.30388 454.753 1.94171 459.493 2.46357 463.961H0.975328ZM7.66283 463.961H9.30574C7.56621 457.744 6.09725 451.741 5.01488 446.03C3.87452 440.124 3.14004 434.529 2.88878 429.4C2.11565 413.742 3.58461 410.614 9.86624 405.233C11.5285 403.814 13.5192 402.241 15.8773 400.24C35.3213 383.843 42.9559 349.438 44.5602 323.949C46.1451 298.732 36.9836 282.142 26.2758 267.047C17.1529 254.186 6.88971 242.432 1.22658 227.415C-5.94415 208.415 0.434146 183.587 14.6403 169.988C23.28 161.732 30.6826 161.557 38.8004 161.712C42.4534 161.79 46.2611 161.926 50.3973 161.421C55.268 160.819 65.5118 152.931 73.0885 145.976C76.5675 142.79 79.4861 139.798 81.071 137.797C96.6494 118.118 85.3618 91.0554 76.3163 70.7928L75.9683 70.0157C68.7976 53.9883 59.6941 47.383 52.9486 42.701C43.8644 36.3872 38.9937 33.5314 48.6578 15.8526C51.6923 10.3159 54.2242 5.12878 56.4663 0.0194166L54.6688 0.0194166C52.4847 5.01221 50.0687 9.96617 47.3434 14.9395C36.7323 34.3279 42.7047 37.3391 52.736 44.5272C59.4428 49.3452 67.9665 56.0087 74.5574 70.7151C75.0986 71.9002 75.6398 73.1241 76.181 74.3674C84.8013 93.8918 94.2334 118.603 79.8919 136.709C78.5776 138.38 76.1423 140.886 73.2044 143.625C65.7438 150.6 54.92 159.167 50.262 159.731C46.2417 160.216 42.55 160.139 39.013 160.08C30.4507 159.925 22.7968 159.944 13.6159 168.725C-1.07344 182.791 -7.62567 208.376 -0.203676 228.037C5.71072 243.734 16.6311 255.876 26.0245 269.378C36.1524 283.929 44.5216 300.034 43.0333 323.813C41.4677 348.719 33.9684 382.852 14.9689 398.88C13.1713 400.395 11.5671 401.697 10.1755 402.863C2.3863 409.371 0.511486 412.188 1.36192 429.478C1.6905 436.005 2.77283 443.252 4.4737 450.964C5.34347 455.18 6.42583 459.532 7.66283 463.961ZM13.6739 463.961H15.3168C10.2915 443.951 9.09313 423.883 18.1387 413.295C28.7111 400.9 32.3255 391.964 38.0853 376.83C52.2141 339.743 59.6168 309.961 39.071 273.885C30.2187 258.343 2.46358 204.666 17.037 189.28C23.4539 182.499 46.1064 173.699 55.4999 168.415C74.8666 157.516 86.8694 146.209 93.209 134.262C94.2141 132.358 95.0838 130.454 95.799 128.531C98.157 122.314 99.0848 115.903 98.8335 109.278C98.6596 105.004 98.0024 100.652 96.92 96.2037C92.6872 78.9523 81.9794 60.2438 68.2951 39.515C57.5873 23.2932 60.1386 20.2626 66.8068 1.92331L67.4833 0.0582793L65.8018 0.0582793L65.3379 1.32104C58.4957 20.1072 55.9058 23.6818 67.0195 40.5058C81.8828 63.0219 93.2477 83.032 96.4175 101.332C98.1184 111.182 97.4419 120.527 93.6729 129.502C88.145 142.635 75.949 154.99 54.7654 166.919C44.9854 172.417 22.7001 180.945 15.916 188.114C0.550117 204.336 28.4212 258.44 37.7373 274.798C57.9932 310.35 50.5519 339.666 36.6357 376.208C30.9532 391.148 27.3968 399.948 16.979 412.168C7.56621 423.164 8.62926 443.601 13.6739 463.961ZM21.4438 463.961H23.0867C21.1345 454.267 20.806 444.165 22.9127 433.46C29.8708 398.045 42.1055 404.358 52.0015 377.588C65.7631 340.384 63.7336 315.731 51.5183 279.772C45.6619 262.54 23.9758 217.235 29.8515 202.199C39.071 178.614 55.5772 174.223 75.2339 165.19C81.7088 162.217 86.966 158.954 91.1602 155.36C98.7948 148.813 102.95 141.119 104.729 131.891C105.405 128.336 105.734 124.548 105.772 120.507C105.83 114.116 105.135 107.083 103.975 99.3314C102.467 89.3264 100.805 82.1189 98.8915 76.1936C94.3881 62.206 88.5123 55.4259 79.95 36.0764C74.8087 24.4394 74.4994 23.4292 78.539 14.007C79.5054 11.734 81.2836 6.68296 83.545 0.0194166L81.8635 0.0194166C79.7953 6.19728 78.1331 10.9569 77.1087 13.3076C72.8372 23.2738 73.2431 24.828 78.539 36.8146C87.7778 57.6989 93.8855 63.8379 98.5049 80.3704C99.9545 85.5187 101.25 91.6771 102.448 99.6034C106.082 123.577 105.057 140.362 91.4308 152.931C87.1593 156.875 81.6508 160.411 74.6734 163.616C54.5722 172.863 37.892 177.371 28.4405 201.538C22.2169 217.468 43.9803 262.404 50.088 280.335C62.1874 315.906 64.1976 340.132 50.5906 376.947C40.8299 403.348 28.4792 397.209 21.4244 433.091C19.2404 444.009 19.5303 454.209 21.4438 463.961ZM28.6338 463.961H30.2381C27.3582 449.449 28.2666 436.044 36.655 427.69C63.9463 400.492 71.2717 346.951 69.1842 308.543C67.1548 271.34 57.2781 270.777 49.9527 241.014C46.3384 226.327 42.666 205.21 54.7654 194.039C68.9522 180.906 67.0968 181.101 84.7047 173.407C91.5082 170.435 97.1519 167.171 101.829 163.636C105.096 161.149 107.879 158.526 110.218 155.768C122.858 140.886 122.858 121.945 118.162 99.2148C116.867 92.9204 115.204 86.354 113.368 79.4962C112.267 75.4359 111.358 72.1139 110.488 69.2386C107.125 58.1457 104.458 53.93 95.4511 41.3606C84.724 26.421 85.8257 17.5622 90.735 0.0582793L89.0921 0.0582793C84.1441 17.8148 83.2164 27.0816 94.2334 42.4291C104.071 56.1447 106.178 59.6804 110.102 73.532C110.643 75.4553 111.223 77.5924 111.861 79.9819C114.141 88.4327 116.132 96.4174 117.504 103.975C121.022 123.188 120.558 139.449 110.682 152.62C108.362 155.729 105.502 158.662 102.061 161.421C97.3066 165.229 91.4115 168.725 84.2021 171.873C66.4589 179.624 68.1598 179.527 53.915 192.699C42.3181 203.423 44.2702 221.121 47.2274 235.847C53.5284 267.26 65.6278 271.107 67.6766 308.66C69.7061 345.96 62.1681 400.065 35.7465 426.389C26.8363 435.17 25.7539 449.041 28.6338 463.961ZM38.955 463.961H40.5206C39.6508 454.947 40.5593 446.321 46.3577 438.045C57.9739 421.454 58.4958 422.892 62.0715 402.338C63.6371 393.343 71.2136 401.017 64.2749 422.037C56.8722 444.495 55.4226 452.849 56.0024 463.942H57.568C56.9882 453.062 58.4184 444.806 65.7245 422.678C74.1515 397.131 62.4193 391.167 60.5059 402.124C56.9881 422.309 56.5243 420.697 45.1013 437.016C39.0323 445.68 38.0659 454.617 38.955 463.961ZM43.014 463.961H44.5795C43.6518 456.637 43.7097 448.458 47.3434 443.893C50.204 440.279 51.0545 456.287 51.3057 463.961H52.8906C52.6394 455.374 51.4603 436.122 46.1451 442.805C42.2215 447.739 42.0862 456.268 43.014 463.961ZM61.6463 463.961C63.1539 449.702 66.053 435.792 69.6481 423.669C78.1524 395.072 80.2785 381.473 78.8483 351.108C77.1087 314.138 63.0572 250.961 69.7254 218.401C74.6734 194.214 84.6274 189.959 100.341 179.644C101.887 178.633 103.492 177.565 105.135 176.399C110.314 172.786 114.625 168.939 118.162 164.84C118.915 163.966 119.631 163.092 120.326 162.198C134.61 143.606 134.127 120.488 127.555 94.0278C127.478 93.6975 127.381 93.3673 127.304 93.037C127.091 92.2405 126.898 91.444 126.685 90.6475C122.549 75.2222 117.311 63.4688 112.17 50.2388C110.72 46.5282 109.29 42.7011 107.898 38.6408C104.767 29.5682 103.318 14.3179 104.864 0.0582793L106.468 0.0582793C104.96 14.1042 106.333 29.238 109.329 37.9608C110.334 40.9137 111.397 43.789 112.499 46.6059C117.157 58.7674 122.317 70.1906 126.395 83.9062C126.647 84.761 126.898 85.6352 127.149 86.49C127.342 87.1894 127.555 87.8888 127.748 88.5882C131.343 101.546 133.663 114.096 133.547 125.908C133.489 130.745 133.025 135.447 132.078 140.012C130.184 149.007 126.376 157.419 120.036 165.073C119.341 165.909 118.606 166.744 117.852 167.56C114.509 171.173 110.585 174.592 105.946 177.817C103.917 179.236 101.984 180.518 100.148 181.742C83.313 192.854 73.7843 197.594 70.2666 224.792C65.7438 259.781 79.9886 319.442 80.7037 359.676C81.1869 386.893 78.7129 398.666 71.1363 424.155C67.5413 436.258 64.6807 449.935 63.1731 463.942H61.6463V463.961ZM76.4902 463.961C78.8289 450.187 82.3273 434.587 85.9803 411.624C90.2519 384.717 85.3038 315.421 77.8045 289.388C73.417 274.196 76.1616 263.861 79.834 248.688C85.2458 226.308 95.625 192.368 115.726 180.654C115.958 180.518 116.171 180.382 116.403 180.265C117.176 179.799 117.93 179.333 118.645 178.847C122.916 176.05 126.279 173.038 128.985 169.639C134.455 162.781 137.258 154.408 139.403 143.14C143.192 123.324 142.515 102.362 138.108 82.488C136.291 74.2897 133.837 66.2663 130.802 58.5925C130.686 58.3206 130.59 58.0486 130.474 57.7766C129.7 55.8339 128.869 53.93 128.019 52.0261C116.847 27.2758 112.692 15.5029 113.929 0L115.494 0C114.257 15.2504 118.355 26.7901 129.43 51.2879C129.913 52.3564 130.377 53.4249 130.841 54.5128L131.131 55.2122C134.146 62.4391 136.659 69.9769 138.591 77.7089C143.965 99.0983 145.047 121.925 140.93 143.451C138.514 156.078 135.306 165.112 128.676 172.456C125.912 175.506 122.568 178.284 118.432 180.887C117.756 181.314 117.041 181.742 116.306 182.169C116.248 182.208 116.209 182.227 116.151 182.266C96.8234 193.67 86.5601 227.493 81.3415 249.057C77.7465 263.958 75.0212 273.982 79.2928 288.844C86.8694 315.129 91.8367 384.698 87.5072 411.877C83.8735 434.684 80.4138 450.207 78.0751 463.883H76.4902V463.961ZM80.6651 463.961C81.4382 456.676 82.9651 449.352 86.3282 437.21C86.6568 436.044 86.966 434.84 87.2753 433.616C91.4888 416.714 93.9628 394.664 94.1948 373.314C94.388 356.121 93.1317 339.394 90.1938 326.222C85.1105 303.531 78.6936 275.342 86.5022 252.496L93.7696 235.555C103.569 207.794 96.3209 217.507 114.064 200.431C115.359 199.187 116.77 197.808 118.336 196.273C121.37 193.281 124.347 190.27 127.13 187.162C136.871 176.36 144.506 164.471 145.472 148.385C146.381 133.485 146.651 99.6811 144.081 84.9941C142.766 77.4758 141.278 71.4145 139.77 66.3051C137.026 57.0384 134.185 50.8605 131.962 44.5855C128.386 34.4445 126.473 24.0703 129.391 0.0388628L130.976 0.0388628C128.367 21.2728 129.565 31.7829 132.368 40.9137C134.397 47.5773 137.296 53.5026 140.176 62.342C142.07 68.1701 143.965 75.2611 145.627 84.6639C148.236 99.4869 147.966 133.31 147.038 148.366C145.975 165.811 137.548 178.303 126.84 189.862C124.443 192.446 121.95 194.972 119.379 197.497C117.234 199.615 115.378 201.402 113.755 202.956C97.9638 218.012 104.709 209.309 95.2384 236.099L87.9711 253.059C80.2979 275.498 86.6955 303.473 91.7014 325.775C93.9628 335.838 95.2385 347.922 95.6444 360.705C96.4948 387.36 93.5569 417.044 87.8165 437.715C87.14 440.124 86.5601 442.339 86.019 444.398C83.9315 452.518 82.8298 458.25 82.2307 463.942H80.6651V463.961ZM94.33 463.961C95.1998 460.076 96.3208 456.132 97.7898 452.091C98.6982 449.604 99.4906 447.118 100.206 444.67C104.748 429.05 105.676 414.111 105.038 398.452C104.729 390.856 104.052 383.086 103.24 374.965C100.341 345.98 88.377 291.059 91.972 265.434C95.6637 239.149 109.928 224.967 124.714 210.397C132.136 203.073 139.693 195.652 146.11 186.54C162.674 162.994 154.73 91.0554 148.758 62.5363C146.767 53.0169 144.332 47.0916 142.496 40.4086C141.123 35.4158 140.099 29.9957 139.848 22.3219C139.751 19.3301 140.292 10.1799 141.355 0.0194166L142.979 0.0194166C141.897 10.0827 141.317 19.2135 141.413 22.3025C141.587 27.6838 142.167 31.9578 142.979 35.7655C144.815 44.4301 147.888 50.7245 150.285 62.1671C156.393 91.4051 164.317 163.48 147.308 187.628C140.505 197.284 132.348 205.093 124.443 212.903C110.334 226.852 96.9973 240.859 93.5183 265.687C89.9812 290.923 101.926 346.116 104.806 374.771C105.289 379.55 105.714 384.193 106.043 388.758C107.666 410.633 107.125 430.488 99.4133 452.188C99.336 452.382 99.2781 452.577 99.2007 452.771C97.8478 456.54 96.7654 460.231 95.9343 463.903H94.33V463.961ZM17.3462 0.0388628C11.7024 19.4855 5.40143 38.3688 -1.40206 57.8543C-12.1871 88.763 -15.0863 39.0293 -14.7964 0.0388628L-13.1729 0.0388628C-13.4628 33.6285 -11.7619 75.3971 -5.36429 63.3911C-1.49867 56.1447 9.22843 22.0499 15.7227 0.0388628L17.3462 0.0388628ZM6.98638 0.0388628L5.40146 0.0388628C2.42493 17.1348 -1.30536 36.3095 -3.83734 37.8054C-6.31134 35.8821 -6.63996 17.8148 -5.98281 0.0388628L-7.87693 0.0388628C-8.76602 34.2696 -4.59115 68.6558 6.98638 0.0388628ZM-151.253 0.0388628L-152.838 0.0388628C-147.696 39.5927 -147.155 70.8317 -160.975 115.359C-165.111 128.667 -165.942 121.945 -166.966 111.085C-170.117 77.3398 -167.372 35.5518 -167.585 0.0388628L-169.266 0.0388628C-169.208 3.32206 -169.189 6.85781 -169.209 10.8987C-169.209 11.0347 -173.925 162.489 -159.467 115.883C-145.59 71.1814 -146.111 39.7481 -151.253 0.0388628ZM-157.322 0.0388628L-158.694 0.0388628C-157.921 35.2216 -156.916 78.35 -160.492 80.5841C-163.777 77.8255 -163.584 34.0754 -163.565 28.7134C-163.526 19.6409 -163.082 9.67477 -162.811 0.0388628L-164.705 0.0388628C-165.652 32.5406 -166.251 93.717 -158.52 80.6036C-154.906 74.5229 -156.394 33.9394 -157.322 0.0388628ZM-208 34.7942V41.516C-199.36 78.5443 -192.924 128.608 -197.002 156.778C-201.796 189.94 -193.04 227.046 -199.728 262.695C-202.55 277.732 -205.236 292.691 -208 307.669V316.314C-207.845 315.421 -207.691 314.663 -207.594 314.061C-204.405 297.042 -201.39 280.082 -198.181 263.025C-191.455 227.201 -200.23 190.154 -195.456 157.127C-191.107 126.976 -198.549 72.5219 -208 34.7942ZM-208 77.8449V90.0258C-207.343 94.3386 -206.666 98.768 -205.932 103.411C-200.307 139.157 -200.423 151.105 -202.897 186.637C-204.482 209.231 -203.497 239.421 -208 265.706V273.633C-205.661 262.831 -204.598 251.583 -203.748 240.898C-202.182 221.237 -202.298 200.625 -200.868 180.285C-197.969 138.555 -201.68 117.438 -208 77.8449ZM17.1529 152.989C20.7673 152.989 24.2464 152.659 27.8027 152.329C31.591 151.979 35.4567 151.61 39.7089 151.61C41.1391 151.61 42.5694 151.455 43.9997 151.163C52.1175 149.512 60.0806 143.392 66.0337 135.486C71.9868 127.579 75.8911 117.884 75.8911 109.064C75.8911 107.452 75.7557 105.878 75.4851 104.363C74.1128 96.6505 70.9624 89.0738 66.7682 82.1577C62.1101 74.484 56.157 67.6262 49.9334 62.3031C49.083 61.5649 48.1166 60.6713 47.0729 59.7193C43.9417 56.8247 40.1727 53.3277 36.6937 51.9096C33.2146 50.4914 29.9288 51.2685 27.8027 57.2909C26.0632 62.2254 23.0674 67.7427 20.0328 73.3572C15.5681 81.6138 10.968 90.1035 10.1175 97.0779C9.673 100.769 8.41665 104.169 7.16033 107.627C5.11155 113.183 3.0241 118.895 4.41572 125.83C4.64766 127.015 4.87958 128.472 5.13084 130.104C6.50314 138.982 8.70655 152.989 17.1529 152.989ZM37.1575 102.887C35.7852 105.956 33.4079 112.328 32.8667 117.263C32.6734 118.992 32.7314 120.527 33.118 121.614C33.4659 122.547 34.1037 123.149 35.1667 123.246C36.2104 123.343 37.66 122.994 39.5542 122.061C39.9214 121.886 40.2693 121.692 40.6366 121.478C44.5022 119.225 47.3048 115.553 48.6578 111.318C50.0107 107.083 49.9141 102.304 48.0199 97.8355C47.846 97.4276 47.6527 97.0196 47.4594 96.6311C44.5022 90.7835 42.7047 89.307 41.545 89.9675C40.0567 90.8223 39.1484 94.8632 38.3946 98.2824C38.008 100.147 37.6214 101.857 37.1575 102.887ZM36.9256 97.8744C36.5197 99.6617 36.1718 101.274 35.7659 102.168C34.355 105.334 31.9003 111.92 31.3397 117.068C31.1271 119.05 31.1852 120.837 31.6877 122.217C32.2482 123.751 33.3112 124.742 35.0508 124.878C36.3457 124.995 38.0466 124.606 40.2113 123.557C40.6366 123.363 41.0231 123.149 41.3904 122.916C45.6232 120.468 48.6577 116.447 50.1267 111.823C51.5956 107.199 51.4989 101.993 49.4502 97.1362C49.2569 96.6893 49.0636 96.2619 48.8317 95.8151C45.314 88.8601 42.782 87.3448 40.8299 88.4716C38.7617 89.7149 37.7567 94.1444 36.9256 97.8744ZM23.0287 120.818C22.6808 125.17 22.7968 128.919 24.3623 131.192C25.8892 133.387 28.9238 134.242 34.5096 132.921C38.1046 132.086 42.5694 130.687 46.6476 128.628C50.1847 126.84 53.4125 124.567 55.5386 121.692C57.6067 118.914 58.631 115.553 57.7999 111.532C57.568 110.366 57.1621 109.142 56.6016 107.841C55.6738 105.742 54.9201 102.343 54.089 98.5155C52.2528 90.1618 49.9721 79.7488 44.7148 77.7672C38.4525 75.4165 35.2247 81.8081 33.0986 88.2968C32.5381 90.0064 32.0356 91.7742 31.591 93.3867C30.9339 95.7374 30.354 97.7578 29.7355 99.0789C26.817 105.296 25.2901 108.695 24.4203 111.551C23.5699 114.368 23.3573 116.699 23.0287 120.818ZM22.9513 111.046C22.0429 114.038 21.8111 116.447 21.4825 120.663C21.1152 125.364 21.2505 129.483 23.106 132.144C25.0002 134.864 28.5372 135.991 34.8188 134.514C38.5105 133.64 43.0912 132.222 47.2854 130.104C50.9964 128.22 54.4369 125.791 56.7369 122.702C59.0949 119.536 60.2353 115.728 59.3075 111.163C59.0369 109.88 58.6117 108.54 57.9932 107.122C57.1428 105.179 56.4083 101.857 55.5966 98.1269C53.6831 89.3847 51.2864 78.4666 45.2174 76.1936C37.6987 73.3572 34.0071 80.487 31.6297 87.7334C31.0305 89.5401 30.5473 91.2885 30.0834 92.901C29.4456 95.174 28.8851 97.1362 28.3246 98.3212C25.3867 104.654 23.8598 108.113 22.9513 111.046ZM14.4664 124.703C14.3697 124.995 14.2731 125.286 14.2151 125.578C13.5 128.55 13.8478 132.591 15.0075 136.165C16.1672 139.682 18.1 142.693 20.632 143.684C20.806 143.761 20.9799 143.82 21.1345 143.859C27.5321 145.627 30.1028 144.772 34.4322 143.315C34.7415 143.218 35.0894 143.101 35.8045 142.868L38.0273 142.149C42.5887 140.653 44.5216 140.031 46.0485 139.254C47.1695 138.691 48.0972 138.03 49.7208 136.884C51.1318 135.893 53.0452 134.553 55.8285 132.707C65.164 126.549 66.9808 117.01 65.3572 107.122C63.695 97.039 58.4764 86.5872 53.8957 78.8357C45.7972 65.1395 45.0434 65.4892 37.2348 69.0638C36.2684 69.5106 35.1861 69.9963 34.065 70.482C29.8515 72.3081 27.2036 75.6691 25.4447 79.6905C23.6665 83.7897 22.7967 88.6076 22.2169 93.2313C21.7723 96.7282 20.6706 101.857 19.395 107.005C17.5588 114.504 15.3748 122.042 14.4664 124.703ZM17.926 106.597C16.0899 114.018 13.9252 121.498 13.0168 124.121C12.9008 124.431 12.8041 124.781 12.7268 125.15C11.9343 128.433 12.3016 132.843 13.5579 136.69C14.8529 140.614 17.1143 144.033 20.1101 145.219C20.3034 145.296 20.5353 145.374 20.7673 145.432C27.6094 147.317 30.3154 146.404 34.9155 144.869L36.2685 144.422L38.4912 143.703C43.1492 142.188 45.1207 141.547 46.725 140.731C47.9233 140.129 48.8897 139.449 50.5712 138.244C51.9049 137.312 53.7024 136.029 56.6402 134.106C66.6522 127.501 68.6237 117.34 66.8648 106.83C65.1446 96.4951 59.8487 85.8295 55.1906 77.9615C46.3963 63.0608 45.5266 63.4688 36.6164 67.5485C35.7079 67.9759 34.6835 68.4421 33.4852 68.9667C28.8658 70.9871 25.9472 74.6394 24.0531 79.0105C22.1976 83.304 21.3085 88.2579 20.7093 93.037C20.2841 96.4368 19.1824 101.507 17.926 106.597ZM3.60397 130.396C5.0729 139.779 7.39224 154.641 17.1529 154.641C20.8253 154.641 24.343 154.31 27.938 153.98C31.6877 153.631 35.5147 153.281 39.7089 153.281C41.2358 153.281 42.7627 153.125 44.2896 152.815C52.794 151.086 61.0857 144.733 67.2514 136.535C73.3977 128.336 77.4566 118.273 77.4566 109.084C77.4566 107.394 77.3213 105.704 77.0314 104.072C75.6205 96.1259 72.3926 88.355 68.0825 81.2835C63.3278 73.4544 57.2587 66.4606 50.8998 61.0404C50.03 60.3021 49.1023 59.4279 48.0973 58.4954C44.8695 55.5036 40.9845 51.9096 37.2542 50.3942C32.944 48.6458 28.9238 49.5394 26.3725 56.7469C24.6716 61.5454 21.7144 67.0045 18.6992 72.5801C14.1571 80.9727 9.47969 89.6178 8.5906 96.9225C8.16538 100.4 6.94769 103.703 5.73002 107.083C3.60393 112.872 1.43921 118.817 2.90814 126.238C3.12075 127.365 3.3527 128.803 3.60397 130.396ZM-22.0251 327.31C-22.5856 326.358 -23.1461 323.697 -23.5907 320.744C-24.1319 317.169 -24.4604 313.284 -24.4218 311.593C-23.668 312.409 -22.4504 314.915 -21.4453 317.693C-20.7881 319.461 -20.2663 321.346 -20.0537 323.017C-19.841 324.571 -19.8797 325.892 -20.3242 326.669C-20.6142 327.174 -21.1554 327.427 -22.0251 327.31ZM-22.8176 343.376C-27.6689 336.868 -28.3647 316.159 -28.7706 303.803C-28.8286 302.288 -28.8673 300.908 -28.9059 299.704C-28.9832 297.858 -28.7513 296.751 -28.3454 296.226C-28.1521 295.974 -27.8622 295.896 -27.5336 295.954C-27.0504 296.052 -26.4899 296.401 -25.8714 296.945C-23.668 298.869 -21.1747 303.026 -19.9957 307.533C-18.662 312.701 -16.8259 320.044 -16.536 326.941C-16.246 333.702 -17.4057 340.074 -21.9478 343.551C-22.0058 343.59 -22.1411 343.59 -22.2764 343.571C-22.5663 343.512 -22.7983 343.415 -22.8176 343.376ZM-30.2009 303.861C-30.2589 302.365 -30.2976 300.986 -30.3362 299.762C-30.4329 297.509 -30.085 296.032 -29.4278 295.236C-28.848 294.517 -28.0942 294.284 -27.2437 294.459C-26.5286 294.614 -25.7361 295.061 -24.9437 295.76C-22.547 297.858 -19.8411 302.327 -18.6041 307.125C-17.2511 312.37 -15.3956 319.792 -15.0863 326.883C-14.7771 334.11 -16.0721 340.967 -21.0974 344.814C-21.5033 345.125 -22.0251 345.183 -22.489 345.105C-23.1075 344.989 -23.7646 344.6 -23.9386 344.348C-29.0992 337.432 -29.795 316.392 -30.2009 303.861ZM-24.1899 356.082L-24.9823 353.984C-32.1144 335.256 -38.7053 317.907 -34.8976 297.256C-34.0858 292.865 -32.8682 290.262 -30.9354 289.058C-28.9833 287.834 -26.1807 287.95 -22.2378 288.941H-22.1991C-20.2469 289.524 -16.2654 295.644 -12.9409 302.696C-9.61651 309.767 -7.02649 317.713 -7.93491 321.851L-7.99289 322.084C-8.93997 325.659 -9.32655 328.553 -9.71311 331.409C-10.2543 335.372 -10.7761 339.258 -12.7669 344.717C-13.4628 346.621 -16.7872 352.157 -19.725 355.732C-20.5948 356.801 -21.4453 357.694 -22.1411 358.219C-22.6243 358.588 -22.9722 358.782 -23.0882 358.704C-23.0882 358.704 -23.1075 358.685 -23.1268 358.666L-24.1899 356.082ZM-26.316 354.566C-33.5253 335.605 -40.2129 318.063 -36.3086 296.965C-35.4002 292.108 -33.9892 289.194 -31.6505 287.737C-29.3311 286.299 -26.2193 286.357 -21.9092 287.445L-21.8125 287.465C-19.4932 288.164 -15.1443 294.633 -11.6653 302.016C-8.20555 309.359 -5.53823 317.693 -6.54329 322.22C-6.56262 322.317 -6.58194 322.414 -6.6206 322.511C-7.52902 325.969 -7.9156 328.825 -8.30216 331.642C-8.84335 335.683 -9.38454 339.666 -11.4527 345.3C-12.1871 347.301 -15.6469 353.071 -18.6814 356.762C-19.6285 357.908 -20.5368 358.879 -21.3486 359.501C-22.3537 360.259 -23.2428 360.511 -23.9386 360.006C-24.1512 359.851 -24.3252 359.637 -24.4605 359.365L-24.4798 359.326C-25.079 357.714 -25.6975 356.179 -26.316 354.566ZM-29.1185 359.054C-31.6119 353.867 -34.4338 347.709 -36.6179 342.638C-38.512 338.228 -39.9229 334.673 -40.2129 333.313C-40.6961 331.118 -41.1599 329.058 -41.5851 327.174C-44.3491 315.013 -45.4121 310.389 -42.1263 294.206C-41.5078 291.156 -38.7439 287.678 -35.6901 283.832C-33.9506 281.637 -32.1144 279.325 -30.5295 276.935C-29.8916 275.983 -29.4471 274.856 -29.0026 273.749C-28.6354 272.855 -28.2874 272.001 -27.8815 271.282C-26.7798 269.417 -24.963 268.64 -20.2663 271.845C-16.9611 274.099 -12.9022 279.946 -9.6358 286.299C-6.31137 292.768 -3.79869 299.723 -3.72138 303.978C-3.68272 306.29 -2.83232 309.184 -1.86591 312.506C0.627415 321.035 3.99054 332.594 -3.83734 343.551C-4.61047 344.62 -5.94412 347.029 -7.58701 349.962C-9.65511 353.653 -12.1678 358.18 -14.4872 361.716C-19.0099 368.651 -21.4066 370.419 -23.3587 368.962C-24.9436 367.777 -26.4706 364.61 -28.5194 360.336L-29.1185 359.054ZM-37.9322 343.279C-39.865 338.791 -41.3146 335.12 -41.6238 333.663C-42.1264 331.351 -42.5709 329.369 -42.9961 327.543C-45.818 315.129 -46.9004 310.408 -43.5566 293.895C-42.8608 290.476 -39.9809 286.843 -36.8111 282.86C-35.1102 280.704 -33.3128 278.45 -31.7279 276.061C-31.1673 275.226 -30.7421 274.176 -30.3362 273.147C-29.9497 272.195 -29.5824 271.282 -29.0992 270.466C-27.553 267.863 -25.1949 266.658 -19.4931 270.544C-15.9754 272.933 -11.7426 278.994 -8.36014 285.561C-4.93907 292.224 -2.36842 299.451 -2.27178 303.958C-2.23312 306.037 -1.42138 308.835 -0.493635 312.04C2.077 320.899 5.57543 332.886 -2.67767 344.484C-3.3928 345.494 -4.72646 347.864 -6.33069 350.739C-8.3988 354.45 -10.9308 358.976 -13.2888 362.57C-18.4301 370.438 -21.3873 372.284 -24.1512 370.205C-26.026 368.807 -27.6109 365.484 -29.7563 361.016L-30.3749 359.734C-32.9068 354.566 -35.7287 348.369 -37.9322 343.279ZM-25.9487 379.511C-21.8318 384.212 -20.2663 384.523 -19.2419 383.494C-18.836 383.086 -18.4688 382.464 -18.0629 381.803C-17.3091 380.579 -16.4973 379.239 -15.1057 378.365C-9.77112 375.023 -2.05917 365.815 4.08716 356.121C9.67298 347.301 13.9252 338.15 13.8478 332.788C13.7705 327.601 13.9059 324.726 13.9832 322.803C14.0605 321.171 14.0991 320.219 13.9445 319.131C13.7512 317.635 13.1714 315.751 11.8184 311.341C11.3932 309.942 10.8713 308.252 10.1755 305.882C8.62928 300.734 6.61912 296.654 4.84094 293.079C3.54595 290.437 2.36694 288.067 1.57448 285.677C-0.41631 279.694 -4.70714 272.234 -9.11395 264.618C-14.8351 254.691 -20.7108 244.511 -21.9671 236.74C-24.5764 242.549 -31.2446 256.692 -36.5405 261.296C-48.0214 271.282 -50.4761 295.799 -52.2929 314.002C-52.6215 317.266 -52.9308 320.336 -53.2787 323.133C-54.0904 329.719 -52.3896 336.946 -49.645 343.823C-46.8618 350.759 -42.9961 357.364 -39.4784 362.668C-35.3035 368.962 -31.3413 373.43 -27.2244 378.112L-25.9487 379.511ZM-28.2294 379.181L-26.9924 380.579C-22.0445 386.194 -19.8991 386.291 -18.2562 384.64C-17.7343 384.115 -17.3091 383.416 -16.8452 382.678C-16.188 381.609 -15.4536 380.424 -14.3712 379.725C-8.86269 376.286 -0.957482 366.883 5.28549 357.014C11.0066 347.981 15.3748 338.5 15.2974 332.788C15.2201 327.679 15.3555 324.823 15.4328 322.9C15.5101 321.152 15.568 320.161 15.3941 318.937C15.1815 317.305 14.5823 315.382 13.21 310.875C12.7268 309.282 12.147 307.397 11.5671 305.435C9.98222 300.151 7.95278 296.013 6.13594 292.38C4.86028 289.796 3.70056 287.465 2.94676 285.172C0.917309 279.053 -3.43147 271.515 -7.87693 263.822C-14.2165 252.826 -20.7494 241.5 -20.7494 233.904V233.787L-20.9621 233.127H-21.4839C-21.9671 233.127 -22.1218 233.515 -22.4117 234.195C-23.9579 237.712 -31.6505 255.099 -37.4296 260.111C-49.3744 270.485 -51.8677 295.391 -53.7039 313.847C-54.0325 317.15 -54.3418 320.238 -54.6703 322.939C-55.5208 329.836 -53.7812 337.315 -50.9207 344.445C-48.0987 351.516 -44.1751 358.219 -40.5994 363.581C-36.3666 369.953 -32.385 374.46 -28.2294 379.181ZM-25.0017 320.996C-25.6781 316.45 -26.0067 311.283 -25.6974 310.331L-25.5622 309.923L-25.1563 309.825C-23.8613 309.534 -21.5806 313.05 -20.0923 317.15C-19.4158 319.034 -18.8553 321.016 -18.6041 322.803C-18.3528 324.687 -18.4301 326.377 -19.0872 327.485C-19.7251 328.612 -20.8461 329.156 -22.547 328.786L-22.7789 328.728L-22.9335 328.534C-23.784 327.582 -24.4991 324.435 -25.0017 320.996Z" fill="#F6F6E3" fill-opacity="0.2"/>
</svg>
