<svg width="138" height="376" viewBox="0 0 138 376" fill="none" xmlns="http://www.w3.org/2000/svg">
<path fill-rule="evenodd" clip-rule="evenodd" d="M-227.952 421.961H-225.632C-206.536 402.748 -220.278 395.812 -226.232 358.123C-227.874 347.691 -226.85 348.176 -230.001 344.194V346.875C-228.609 349.012 -229.073 350.139 -227.778 358.395C-221.747 396.706 -207.812 402.534 -227.952 421.961ZM-211.426 421.961C-212.103 404.36 -215.292 384.544 -218.578 364.379C-223.758 332.557 -229.189 299.9 -225.323 273.809C-224.299 266.951 -223.158 260.501 -221.941 254.343C-215.157 219.665 -206.633 193.672 -210.576 152.078C-213.069 125.832 -213.533 103.568 -213.92 77.3415C-214.48 39.2447 -220.298 1.1673 -229.981 -35.5113V-41.5726C-222.81 -15.5984 -217.573 11.1141 -214.712 38.079C-213.34 51.1147 -212.528 64.2087 -212.335 77.3221C-212.219 84.9375 -212.103 92.2227 -211.929 99.3719C-211.619 112.136 -211.136 124.472 -210.208 137.469C-209.88 142.17 -209.474 146.969 -209.01 151.884C-207.966 162.821 -207.793 172.671 -208.198 181.86C-209.474 210.282 -216.452 232.546 -221.709 261.648C-222.443 265.669 -223.12 269.807 -223.758 274.12C-227.121 296.791 -223.39 324.495 -218.925 352.353C-215.06 376.501 -210.653 400.766 -209.841 421.942H-211.426V421.961ZM-200.506 421.961C-204.487 400.494 -206.246 379.493 -210.286 357.968C-212.373 346.855 -214.403 345.029 -214.905 334.111C-215.504 321.192 -217.862 274.567 -216.239 263.668C-214.093 249.35 -208.411 239.034 -206.942 222.813C-206.787 221.084 -206.652 219.568 -206.556 218.208C-205.628 206.008 -206.536 207.659 -202.671 191.535C-192.833 150.388 -205.493 116.235 -204.874 74.6411C-204.661 60.6923 -204.545 55.0196 -207.483 41.2262C-210.885 25.1988 -207.348 13.2705 -211.542 -3.12612C-215.272 -17.716 -214.345 -10.2559 -215.195 -26.264C-215.524 -32.1893 -216.239 -37.2209 -217.089 -41.9806H-215.466C-214.635 -37.2598 -213.919 -32.2475 -213.591 -26.3611C-212.702 -10.0228 -213.804 -18.493 -209.977 -3.59235C-205.724 13.0179 -209.281 24.8685 -205.937 40.7017C-202.961 54.7476 -203.057 60.4203 -203.27 74.6411C-203.656 101.179 -198.689 124.472 -197.529 148.581C-197.394 151.301 -197.317 154.04 -197.297 156.799C-197.22 168.105 -198.186 179.684 -201.105 191.943C-205.435 210.029 -203.734 205.289 -205.319 222.949C-205.492 224.988 -205.744 226.931 -206.053 228.796C-208.16 241.948 -212.741 251.371 -214.615 263.921C-216.22 274.625 -213.862 321.25 -213.262 333.995C-212.702 346.234 -211.117 344.582 -208.662 357.618C-204.623 379.202 -202.864 400.358 -198.844 421.922H-200.506V421.961ZM-195.249 421.961C-201.492 387.536 -208.121 355.481 -211.098 317.481C-213.108 291.896 -214.19 278.258 -208.817 252.458C-205.125 234.76 -204.468 225.804 -202.787 208.67C-201.646 197.052 -199.076 189.631 -196.602 181.996C-194.553 175.643 -192.581 169.174 -191.596 160.024C-188.986 135.759 -189.817 114.331 -195.133 90.552C-201.26 63.1596 -196.466 43.2273 -199.056 17.2336C-200.506 2.64379 -201.878 -0.503426 -201.994 -15.5207C-202.071 -25.7005 -202.052 -33.452 -202.632 -41.9417H-200.854C-200.293 -33.4909 -200.293 -25.72 -200.216 -15.5401C-200.1 1.18672 -197.085 12.6877 -196.582 28.6957C-195.616 60.0901 -198.65 65.0829 -191.692 97.0018C-186.338 121.577 -186.59 159.907 -195.307 183.434C-195.732 184.56 -196.099 185.629 -196.466 186.678C-200.023 197.169 -200.564 203.716 -201.414 215.644C-202.709 233.75 -206.169 245.601 -209.261 262.619C-212.586 280.842 -210.286 307.03 -208.604 325.855C-205.512 360.318 -199.134 390.353 -193.393 421.961H-195.249ZM-191.402 421.961C-195.307 408.673 -196.988 391.188 -199.056 381.863C-203.463 362.009 -206.362 326.107 -206.536 305.534C-206.826 269.69 -193.219 326.204 -192.079 330.983C-186.821 352.742 -185.758 367.643 -182.685 388.721C-181.448 397.153 -179.96 398.163 -178.858 407.682C-178.375 411.917 -177.293 416.91 -176.152 421.942H-177.544C-177.853 420.562 -178.066 419.727 -178.066 419.708C-180.076 411.742 -180.115 404.632 -181.951 398.668C-185.121 388.333 -185.469 377.24 -186.976 366.516C-187.943 359.561 -199.211 299.861 -204.294 295.704C-205.125 297.394 -204.99 304.795 -204.99 305.475C-204.816 326.146 -201.975 361.504 -197.549 381.455C-195.577 390.295 -193.664 408.634 -189.74 421.922H-191.402V421.961ZM-187.208 421.961H-185.565C-190.745 402.942 -197.123 374.462 -196.37 357.793C-196.37 357.696 -196.35 357.521 -196.331 357.307C-186.184 379.959 -187.672 399.154 -183.033 421.961H-181.429C-184.831 405.273 -184.676 390.392 -188.928 374.248C-189.044 373.782 -197.355 345.36 -197.935 357.696C-198.708 374.384 -192.407 402.786 -187.208 421.961ZM-166.933 421.961H-165.367C-166.237 402.204 -170.161 386.565 -175.089 370.751C-180.617 352.994 -187.382 335.005 -192.504 310.604C-198.244 283.251 -198.187 269.283 -194.707 241.968C-188.291 191.554 -181.429 138.576 -173.447 87.6768C-171.958 78.2351 -170.451 68.8518 -168.885 59.585C-166.817 47.2681 -167.435 52.9603 -164.208 41.3234C-158.409 20.4003 -160.516 -10.7999 -163.976 -41.9611H-165.561C-162.12 -10.8776 -160.014 20.2254 -165.735 40.8571C-168.943 52.4358 -169.194 51.309 -171.262 64.267C-171.978 68.7741 -172.693 73.3006 -173.408 77.8466C-182.434 135.293 -190.9 195.653 -197.684 252.944C-203.212 299.783 -186.126 336.501 -175.147 376.365C-171.108 390.916 -167.899 405.895 -166.933 421.961ZM-159.434 421.961H-157.887C-158.564 417.337 -159.395 412.714 -160.361 408.109C-163.396 393.617 -167.687 379.493 -172.229 366.982C-184.309 333.567 -181.68 312.353 -189.044 281.366C-198.708 240.589 -178.665 137.605 -164.362 97.3321C-160.342 86.0255 -157.327 75.2045 -155.065 64.6944C-147.102 27.7243 -148.648 -5.45738 -150.407 -41.9417H-151.973C-150.349 -8.42975 -148.938 22.3819 -154.93 55.8355C-157.288 68.9295 -160.767 82.4508 -165.831 96.691C-179.032 133.816 -198.708 237.072 -192.253 274.742C-190.726 283.678 -188.716 290.089 -187.343 300.308C-184 325.078 -182.415 343.553 -173.717 367.584C-168.151 382.971 -163.357 399.037 -160.516 415.375C-160.091 417.571 -159.743 419.766 -159.434 421.961ZM-149.538 421.961H-147.933C-149.074 413.646 -150.813 405.448 -152.901 397.269C-162.545 359.619 -179.651 322.61 -180.231 279.152C-180.579 252.245 -184.869 244.027 -180.811 214.634C-176.365 182.482 -177.795 161.831 -166.392 130.145C-153.094 93.1941 -144.126 66.3262 -137.554 32.1149C-135.718 22.5761 -134.075 12.4934 -132.568 1.43929C-130.635 -12.8203 -129.185 -27.3325 -128.142 -41.9806H-129.726C-130.77 -27.4102 -132.2 -12.9952 -134.133 1.18673C-135.061 7.96683 -136.027 14.3778 -137.071 20.5168C-143.778 60.2455 -153.171 88.7064 -167.861 129.504C-179.342 161.403 -177.892 181.996 -182.357 214.323C-186.454 243.969 -182.163 252.051 -181.816 279.093C-181.216 324.708 -162.43 363.349 -153.171 402.903C-151.644 409.236 -150.407 415.57 -149.538 421.961ZM-141.729 421.961H-140.144C-142.367 405.953 -146.155 394.025 -152.05 377.259C-155.201 368.303 -158.95 357.948 -163.377 344.854C-179.96 295.781 -178.723 265.708 -169.987 215.275C-166.546 195.478 -165.87 175.119 -159.839 155.886C-155.297 141.374 -154.099 138.382 -150.929 122.898C-147.083 104.112 -143.43 81.2658 -138.714 60.1872C-136.143 48.6863 -133.244 37.7099 -129.823 28.1906C-128.142 23.4892 -124.585 -9.12912 -121.261 -41.9611H-123C-124.875 -23.1556 -126.847 -4.35004 -129.127 14.3584C-130.925 29.0648 -129.533 21.3911 -133.631 33.3194L-136.955 46.2191C-137.438 48.2201 -137.902 50.2405 -138.366 52.2609C-143.623 75.2239 -147.74 99.4691 -152.456 122.529C-155.626 138.013 -156.766 140.83 -161.328 155.342C-167.377 174.633 -168.073 195.051 -171.514 214.925C-180.308 265.669 -181.545 296.034 -164.845 345.418C-159.782 360.377 -155.626 371.742 -152.224 381.533C-147.141 396.201 -143.778 407.371 -141.729 421.961ZM-132.297 421.961H-130.674C-132.084 415.803 -133.727 409.664 -135.525 403.661C-136.143 401.582 -136.781 399.503 -137.419 397.463C-141.864 383.398 -146.909 370.285 -151.316 359.697C-152.611 356.569 -153.867 353.655 -155.027 351.013C-156.592 347.419 -158.023 343.767 -159.318 340.056C-176.868 289.701 -170.103 228.485 -156.766 175.158C-153.809 163.307 -150.523 151.845 -147.102 140.985C-144.86 133.836 -142.947 126.803 -141.246 119.848C-136.298 99.6051 -133.167 79.9836 -128.934 59.9541C-127.233 51.9889 -125.378 43.9461 -123.135 35.7672C-122.15 32.1732 -121.299 27.8797 -120.546 23.0812C-119.888 18.8461 -119.328 14.203 -118.845 9.26846C-117.395 -5.88478 -116.757 -23.9327 -116.912 -41.9223H-118.477C-118.439 -37.2986 -118.439 -32.6749 -118.516 -28.0901C-118.574 -24.0492 -118.671 -20.0472 -118.806 -16.1035C-118.999 -10.7804 -119.251 -5.61281 -119.598 -0.639439C-120.603 13.931 -122.246 26.617 -124.624 35.2427C-126.131 40.7794 -127.484 46.2579 -128.721 51.6781C-133.302 71.7853 -136.395 91.3874 -140.898 111.436C-143.043 120.975 -145.498 130.611 -148.61 140.461C-151.432 149.417 -154.157 158.761 -156.689 168.377C-171.572 224.891 -179.67 290.944 -159.414 344.524C-158.487 346.972 -157.52 349.381 -156.476 351.79C-154.969 355.267 -153.287 359.211 -151.528 363.524C-147.006 374.598 -141.922 388.138 -137.593 402.476C-136.974 404.554 -136.356 406.633 -135.757 408.731C-134.481 413.063 -133.321 417.512 -132.297 421.961ZM-124.334 421.942C-127.89 406.516 -130.016 391.596 -134.404 375.316C-135.699 370.479 -137.206 365.544 -139.004 360.416C-142.174 351.363 -146.155 339.182 -149.905 325.952C-157.192 300.211 -163.589 270.506 -161.347 252.187C-158.873 232.06 -150.62 183.939 -142.676 154.137C-140.608 146.386 -138.559 139.858 -136.627 135.409C-132.355 125.482 -126.653 94.9814 -122.208 65.724C-120.99 57.6811 -119.85 49.7159 -118.864 42.3142C-116.912 27.5495 -115.52 14.9412 -115.172 8.06398C-114.844 1.76956 -114.187 -2.21304 -113.607 -5.76823C-112.776 -11.0136 -112.138 -15.3847 -113.124 -24.9235C-113.24 -25.992 -113.356 -27.1187 -113.51 -28.3038C-114.109 -33.0829 -114.612 -37.6094 -114.998 -41.9417H-113.433C-113.259 -40.0184 -113.066 -38.0757 -112.853 -36.0941C-112.602 -33.6852 -112.312 -31.1985 -111.983 -28.6535C-109.49 -8.87658 -112.737 -8.76002 -113.607 7.98626C-113.703 9.96783 -113.897 12.4157 -114.148 15.2132C-115.018 24.8685 -116.719 38.9144 -118.883 54.1065C-120.062 62.3825 -121.377 70.9888 -122.749 79.4202C-126.808 104.229 -131.505 127.541 -135.293 136.303C-137.69 141.859 -140.337 150.912 -142.985 161.695C-150.272 191.438 -157.559 234.216 -159.782 252.4C-161.869 269.341 -156.361 296.422 -149.673 320.823C-145.575 335.821 -141.014 349.808 -137.516 359.813C-136.279 363.349 -135.177 366.788 -134.191 370.168C-129.533 386.118 -127.291 400.63 -124.16 415.375C-123.696 417.551 -123.213 419.746 -122.71 421.942H-124.334ZM-108.543 421.961C-108.465 405.234 -112.37 388.099 -121.686 368.128L-122.923 365.467C-134.926 339.667 -144.184 319.036 -148.59 294.81C-151.026 281.405 -151.992 266.893 -151.103 249.816C-150.176 232.099 -147.856 215.916 -144.609 200.199C-140.009 177.8 -133.573 156.313 -126.827 132.631C-122.015 115.749 -118.439 98.3229 -115.772 80.4887C-109.896 41.0708 -108.582 -0.309158 -108.697 -41.9611H-107.132C-106.997 3.80942 -108.601 49.2691 -116.061 92.2421C-118.477 106.152 -121.512 119.809 -125.3 133.117C-133.263 161.112 -140.453 184.677 -145.054 211.292C-146.716 220.909 -148.03 230.933 -148.939 241.696C-150.369 258.869 -150.04 273.44 -148.223 286.845C-144.686 312.838 -135.544 334.383 -122.807 361.873C-121.976 363.679 -121.125 365.506 -120.256 367.371C-110.824 387.594 -106.881 404.982 -106.939 421.961H-108.543ZM-101.217 421.961C-102.88 412.539 -105.18 402.786 -107.518 394.102C-110.978 381.3 -114.515 370.829 -116.197 367.215C-118.458 362.378 -120.604 357.851 -122.594 353.597C-142.328 311.498 -148.881 294.46 -136.433 238.898C-131.524 216.984 -127.774 196.566 -123.329 174.73C-121.473 165.58 -119.483 157.479 -117.472 150.019C-112.563 131.777 -107.518 117.556 -103.923 101.995C-99.9611 84.8598 -97.7191 66.0737 -99.304 38.5259C-100.038 25.7233 -101.372 1.30328 -102.377 -24.4961C-102.609 -30.2854 -102.802 -36.133 -102.996 -41.9223H-101.43C-100.444 -10.2753 -98.6469 22.8092 -97.7384 38.4287C-95.9409 69.8231 -99.0335 89.8138 -104.001 108.93C-107.886 123.811 -112.892 138.168 -117.646 156.935C-119.057 162.549 -120.449 168.572 -121.783 175.099C-126.228 196.955 -129.978 217.373 -134.887 239.306C-146.948 293.12 -141.033 310.371 -122.478 350.061C-120.12 355.112 -117.55 360.532 -114.786 366.438C-113.24 369.721 -110.379 377.881 -107.402 388.177C-104.503 398.24 -101.469 410.344 -99.4779 422H-101.217V421.961ZM-94.3947 421.961C-98.7242 401.388 -106.146 380.581 -111.887 362.553C-130.306 304.718 -141.42 277.403 -127.33 215.916C-118.999 179.587 -103.769 158.586 -97.5838 120.664C-96.2308 112.349 -94.7619 104.015 -93.5056 95.6613C-91.7081 83.6942 -90.3744 71.6882 -90.471 59.5461C-90.587 45.2477 -92.4232 21.7408 -94.0854 -2.19359C-95.0325 -15.8704 -95.9023 -29.6637 -96.3661 -41.9806H-94.8006C-94.6459 -38.0951 -94.4719 -34.0737 -94.2593 -29.9357C-92.5778 1.96381 -89.0601 39.8469 -88.9055 59.5267C-88.7895 74.9519 -90.9736 90.2023 -93.4476 105.375C-94.298 110.562 -95.1871 115.749 -96.0182 120.917C-102.242 159.072 -117.453 179.917 -125.783 216.285C-139.796 277.384 -128.683 304.465 -110.379 361.97C-104.561 380.231 -97.0812 401.193 -92.7517 421.922L-94.3947 421.922V421.961ZM-72.9211 421.961C-71.085 407.158 -74.0615 392.801 -81.8121 377.337C-85.2332 370.498 -88.6542 362.98 -92.0173 355.17C-92.9064 353.111 -93.7954 351.013 -94.6845 348.915C-98.7821 339.201 -102.783 329.196 -106.649 319.618C-108.775 314.334 -110.862 309.186 -112.892 304.29C-116.313 296.034 -118.941 288.982 -120.855 282.59C-127.117 261.648 -125.706 247.757 -119.328 221.9C-118.825 219.84 -118.284 217.723 -117.724 215.508C-113.452 198.878 -109.954 190.622 -104.967 181.802C-101.817 176.245 -98.067 170.476 -93.1577 162.238L-92.5005 161.131L-92.4426 161.034C-76.1876 133.661 -85.2524 108.017 -86.0062 78.0214C-86.8567 44.7232 -85.3877 13.2899 -87.8617 -20.2415C-88.4029 -27.4296 -88.6929 -34.6759 -88.8282 -41.9611H-87.2625C-87.1079 -34.7342 -86.818 -27.5461 -86.2962 -20.4163C-83.8028 13.1928 -85.2717 44.626 -84.4213 77.9826C-83.6482 108.464 -74.564 134.069 -91.1089 161.947C-91.5921 162.763 -92.0559 163.54 -92.5198 164.317L-93.119 165.327C-98.1056 173.584 -101.836 179.296 -104.986 185.163C-109.2 192.972 -112.389 201.093 -116.197 215.916C-117.453 220.831 -118.574 225.319 -119.521 229.496C-123.889 248.67 -124.778 261.084 -120.72 277.151C-118.787 284.766 -115.752 293.217 -111.461 303.61C-109.876 307.438 -108.253 311.44 -106.591 315.519C-102.744 325.039 -98.7242 335.083 -94.6266 344.932C-93.7568 346.991 -92.9064 349.051 -92.0366 351.091C-88.2096 360.066 -84.3247 368.75 -80.4204 376.56C-72.5539 392.276 -69.5194 406.924 -71.3362 421.981H-72.9211V421.961ZM-59.662 421.961H-57.9418C-57.478 419.086 -57.1687 416.91 -57.0527 415.997C-55.9897 407.43 -61.3629 388.197 -68.3984 368.031C-76.7288 344.097 -87.3785 318.88 -92.2879 308.661L-92.3846 308.467C-93.0417 307.088 -93.6409 305.922 -94.1821 304.893C-97.6805 298.19 -98.9367 297.86 -103.305 291.06C-104.407 289.351 -105.392 287.428 -106.243 285.349C-113.645 267.495 -112.428 237.441 -105.392 215.741C-102.899 208.067 -99.6906 201.443 -95.8829 196.761C-94.8199 195.459 -93.8535 194.293 -92.9837 193.225L-92.887 193.089C-80.5364 178.072 -84.9819 184.366 -74.796 160.976C-71.8774 154.293 -69.5 148.154 -67.6252 142.326C-60.5124 120.373 -60.2805 102.558 -64.2815 75.6902C-65.3252 68.7352 -66.3496 61.178 -67.2967 53.2906C-70.8917 23.1395 -73.1724 -12.3929 -69.8673 -41.9417H-71.4522C-75.1825 -8.23547 -71.7421 32.9502 -67.3353 65.4131C-66.8521 69.046 -66.3302 72.5818 -65.8277 75.9622C-62.1553 100.479 -62.0587 117.323 -67.5865 136.828C-69.6353 144.074 -72.4766 151.709 -76.1876 160.237C-85.9869 182.715 -82.0827 177.508 -92.8484 190.524L-93.003 190.699C-94.1627 192.098 -95.4964 193.711 -97.0233 195.595C-100.232 199.539 -103.034 204.784 -105.334 210.845C-114.322 234.372 -115.965 270.118 -106.281 289.059C-105.76 290.089 -105.199 291.08 -104.6 292.012C-99.6713 299.686 -98.8401 298.909 -94.2207 308.37C-94.0854 308.661 -93.9308 308.953 -93.7955 309.264C-93.3509 310.196 -92.8291 311.284 -92.2879 312.489C-86.6827 324.728 -76.2456 349.944 -68.437 372.907C-62.2134 391.247 -57.6712 408.129 -58.6376 415.783C-58.7343 416.793 -59.1208 419.028 -59.662 421.961ZM-50.9837 421.961H-49.3602C-49.7854 416.929 -50.3652 411.859 -51.0997 406.827C-53.0132 393.694 -55.8351 380.853 -58.7729 369.741C-62.7352 354.782 -63.6243 352.684 -68.3017 344.485C-69.8093 341.843 -71.7228 338.56 -74.2548 333.995C-81.5994 320.765 -87.6685 310.041 -92.3265 300.424C-92.9257 299.181 -93.5056 297.957 -94.0661 296.733C-106.127 270.37 -106.784 251.468 -93.0417 209.155L-92.8677 208.631C-92.5778 207.776 -92.3072 206.902 -91.998 206.008C-85.7937 187.377 -76.4968 184.871 -68.8429 165.852C-68.437 164.861 -68.0505 163.832 -67.6446 162.821C-61.1503 146.094 -55.1973 125.463 -54.6561 107.123C-54.5981 105.278 -54.5981 103.452 -54.6561 101.664C-54.6754 100.829 -54.7141 99.9936 -54.7527 99.1777C-55.5452 78.6237 -57.362 64.0532 -60.8217 43.2272C-64.61 20.4391 -66.2916 -14.1996 -63.7209 -41.9417L-65.2865 -41.9417C-67.8572 -14.0442 -66.2142 20.4974 -62.3873 43.5187C-58.7923 65.1023 -56.9948 79.9059 -56.2603 101.723C-55.6611 119.732 -61.2083 140.791 -67.6639 158.275C-68.5337 160.645 -69.4227 162.957 -70.3312 165.172C-77.7145 183.492 -86.6441 186.289 -92.9258 203.735L-93.003 203.968C-93.1769 204.454 -93.3509 204.94 -93.5056 205.445C-109.007 252.07 -108.002 271.322 -94.1241 300.366C-93.5442 301.571 -92.945 302.794 -92.3265 304.038C-87.8618 312.974 -82.2759 322.902 -75.627 334.849C-72.2639 340.911 -70.0219 344.699 -68.3404 347.71C-64.8613 353.966 -63.8176 356.977 -60.3192 370.207C-56.3376 385.166 -52.5107 403.855 -50.9837 421.961ZM-47.7173 421.961H-46.1517C-47.9492 406.361 -47.3307 394.549 -48.5291 377.434C-49.2249 367.215 -49.5148 362.417 -51.6989 357.871C-53.2644 354.568 -55.8351 351.401 -60.2612 346.37C-63.3537 342.873 -65.905 339.123 -68.2824 335.238C-71.6262 329.779 -74.6219 324.028 -78.2556 318.2C-84.9431 307.515 -89.64 293.081 -92.4619 278.86C-92.9644 276.354 -93.3895 273.867 -93.7761 271.4C-94.6072 265.941 -95.1678 260.637 -95.4384 255.683C-96.0762 244.241 -95.9409 237.266 -93.2929 230.311C-93.119 229.865 -92.945 229.418 -92.7517 228.971C-91.1088 225.124 -88.6736 221.181 -85.1365 216.421C-78.8162 207.892 -72.9211 199.014 -67.7412 189.689C-63.9142 182.773 -60.4931 175.604 -57.6133 168.106C-56.2796 164.628 -55.1006 161.112 -54.0569 157.556C-52.356 151.67 -51.0417 145.706 -50.056 139.625C-45.2433 109.882 -48.3938 78.1186 -51.6409 46.1802C-54.6561 16.4177 -57.7679 -13.4808 -54.5981 -41.9806H-56.1636C-56.2409 -41.2812 -56.3183 -40.5624 -56.3763 -39.863C-58.3091 -20.3192 -57.3814 -0.0954819 -55.6612 20.3031C-54.3855 35.4758 -52.646 50.7262 -51.293 65.8405C-49.3795 87.2494 -48.2391 108.386 -50.2299 128.61C-51.003 136.459 -52.2594 144.171 -54.1149 151.689C-55.4292 157.032 -57.0528 162.297 -59.0436 167.445C-61.9235 174.924 -64.7647 181.025 -67.7219 186.445C-74.2548 198.451 -81.3289 207.251 -90.645 221.006C-91.4181 222.152 -92.1332 223.395 -92.7517 224.716C-92.9063 225.047 -93.061 225.396 -93.2156 225.727C-99.0721 239.151 -98.0283 260.229 -93.8535 279.734C-93.4089 281.832 -92.9257 283.911 -92.4038 285.951C-89.0214 299.395 -84.2667 311.537 -79.4927 319.172C-75.3564 325.777 -72.1287 332.168 -68.2824 338.191C-66.2336 341.396 -64.0109 344.485 -61.3823 347.477C-55.2166 354.471 -52.8199 357.638 -51.6215 362.825C-50.8291 366.263 -50.5585 370.596 -50.0947 377.492C-48.8963 394.802 -49.4954 406.38 -47.7173 421.961ZM-38.9037 421.961H-37.3187C-37.4347 421.106 -37.5314 420.271 -37.6473 419.494C-39.097 408.925 -40.2953 404.321 -40.3919 390.392C-40.4499 382.349 -40.3339 358.939 -46.4996 349.459C-47.64 347.691 -49.0123 346.409 -50.6358 345.787C-51.0417 345.632 -51.4283 345.457 -51.8342 345.282C-57.9225 342.407 -63.4697 335.257 -68.2244 326.146C-79.1448 305.301 -86.0256 274.139 -86.1609 260.21C-86.3542 238.374 -79.5314 220.889 -67.7992 205.056C-64.9193 201.171 -61.7301 197.363 -58.2897 193.633C-56.3183 191.476 -54.8493 189.845 -53.6897 188.349C-51.6602 185.726 -50.5972 183.608 -49.3795 180.092C-48.7224 178.227 -48.0265 175.954 -47.1181 173.021C-41.8222 155.944 -43.2139 141.393 -41.2231 123.345C-40.7399 118.955 -40.2953 114.855 -39.8701 111.009C-36.333 78.4488 -35.27 63.1013 -39.2323 25.7427C-39.6575 21.7213 -40.1213 17.6999 -40.5659 13.659C-42.6919 -4.81629 -45.0113 -23.3887 -45.7651 -41.9417H-47.2341C-46.1904 -18.8427 -43.2525 2.48835 -40.7785 25.937C-40.6625 27.0249 -40.5465 28.074 -40.4499 29.1231C-37.4734 58.4582 -37.7826 73.9223 -39.9667 96.7493C-40.7012 104.442 -41.6676 112.971 -42.7693 123.17C-44.7214 141.043 -43.3685 155.672 -48.5871 172.515C-48.8963 173.506 -49.1862 174.419 -49.4375 175.274C-51.0417 180.442 -51.9501 183.026 -53.709 185.687C-54.9653 187.591 -56.6662 189.534 -59.3915 192.487C-62.3873 195.731 -65.1899 199.034 -67.7799 202.414C-80.4978 219.005 -87.9391 237.266 -87.7265 260.268C-87.5912 275.383 -80.1692 308.37 -68.2437 329.429C-63.431 337.919 -57.9032 344.485 -51.8148 347.147C-51.5249 347.263 -51.2543 347.399 -50.9644 347.497C-49.0896 348.196 -47.6206 350.177 -46.4416 352.936C-42.1121 363.116 -42.0155 383.961 -41.9575 390.45C-41.8609 405.409 -40.4886 409.605 -38.9037 421.961ZM-33.4725 421.961C-37.1448 391.752 -39.0003 357.346 -32.8926 351.129C-23.3059 341.377 -14.7242 339.026 -8.28795 330.809C-5.00217 326.612 -2.2576 320.881 -0.208832 311.848C3.57948 295.062 4.31396 275.519 0.409698 257.607C-2.56683 243.988 -8.21065 231.322 -17.2369 221.55C-27.2488 210.709 -28.6211 208.67 -32.622 192.953C-37.9952 171.894 -40.9524 142.092 -35.038 121.169C-27.5581 94.69 -29.7614 92.7084 -29.8774 66.4622C-29.9547 49.3663 -27.8094 36.0975 -17.0629 22.6538C-8.40395 11.8134 -11.883 18.4964 -5.62068 3.86769C0.313049 -10.0228 7.0006 -26.0891 12.7604 -41.9223H14.4419C8.62416 -25.8366 1.82066 -9.43996 -4.17105 4.56707C-10.356 19.0598 -7.26358 12.9985 -15.8453 23.7612C-28.0606 39.0504 -28.6018 53.8734 -28.1572 72.912C-27.5967 96.3024 -27.1522 99.0806 -33.5691 121.83C-39.3482 142.326 -36.3523 171.913 -31.0951 192.525C-27.1328 208.028 -25.9152 209.758 -16.0965 220.384C-7.78545 229.398 -2.25757 240.783 0.97023 253.1C6.03419 272.352 5.493 293.897 1.33745 312.275C-1.11722 323.115 -4.51894 329.313 -8.6165 333.781C-14.9561 340.658 -22.9966 343.378 -31.8682 352.45C-37.2994 358.026 -35.3666 392.063 -31.7716 421.981H-33.4725V421.961ZM-21.0252 421.961C-21.547 417.571 -22.1848 412.908 -22.9386 407.604C-23.6345 402.65 -29.2782 366.632 -28.5438 364.418C-26.0118 356.822 -17.1788 351.945 -10.1241 346.195C-6.95427 343.611 -4.13242 340.852 -2.43155 337.608C1.95593 329.254 5.58963 312.489 7.67706 296.209C8.37288 290.788 8.89476 285.407 9.20401 280.414C9.70654 272.663 9.7065 265.805 9.10733 261.104C7.909 251.643 5.72495 244.513 2.67111 238.335C-2.33487 228.194 -9.6989 220.676 -18.8604 209.699C-26.9589 200.005 -29.8388 179.859 -31.501 167.173C-35.7339 134.827 -24.021 118.158 -23.6731 85.598C-23.3639 57.8171 -24.8521 47.1127 -10.704 22.071C5.70558 -6.95328 15.7949 -15.035 25.5362 -41.9611H27.2178C17.3798 -14.4328 7.23251 -6.42875 -9.37032 22.9452C-23.3445 47.6761 -21.8176 58.1668 -22.1269 85.598C-22.5714 124.977 -36.1977 133.486 -28.4471 176.459C-25.6446 192.001 -25.0454 200.316 -14.9561 211.72C-7.14757 220.52 -1.29115 228.31 2.90305 236.023C7.40649 244.357 9.97711 252.614 10.9435 262.036C11.9486 272.022 11.1562 283.29 8.95276 297.316C7.92836 303.844 7.0006 311.323 5.43501 318.647C2.98035 330.187 -1.02061 341.319 -9.44766 347.691L-10.472 348.468C-20.484 356.006 -18.1259 353.674 -27.3454 365.389C-25.5866 379.435 -23.4412 393.345 -21.4697 407.352C-20.6966 412.753 -20.0588 417.493 -19.5369 421.961H-21.0252ZM-14.3377 421.961H-12.6947C-14.4343 415.744 -15.9032 409.741 -16.9856 404.03C-18.126 398.124 -18.8604 392.529 -19.1117 387.4C-19.8848 371.742 -18.4159 368.614 -12.1342 363.233C-10.472 361.814 -8.48125 360.241 -6.12321 358.24C13.3209 341.843 20.9555 307.438 22.5597 281.949C24.1446 256.732 14.9831 240.142 4.27531 225.047C-4.84755 212.186 -15.1108 200.432 -20.7739 185.415C-27.9446 166.415 -21.5663 141.587 -7.36018 127.988C1.27948 119.732 8.68214 119.557 16.7999 119.712C20.4529 119.79 24.2606 119.926 28.3968 119.421C33.2675 118.819 43.5114 110.931 51.088 103.976C54.567 100.79 57.4856 97.7983 59.0705 95.7973C74.649 76.1175 63.3613 49.0554 54.3158 28.7928L53.9678 28.0157C46.7971 11.9883 37.6936 5.38301 30.9481 0.701046C21.8639 -5.6128 16.9932 -8.46859 26.6573 -26.1474C29.6918 -31.6841 32.2237 -36.8712 34.4658 -41.9806H32.6683C30.4842 -36.9878 28.0682 -32.0338 25.3429 -27.0605C14.7318 -7.67208 20.7042 -4.66086 30.7355 2.52721C37.4423 7.34517 45.9661 14.0087 52.5569 28.7151C53.0981 29.9002 53.6393 31.1241 54.1805 32.3674C62.8008 51.8918 72.2329 76.6032 57.8914 94.7094C56.5771 96.3802 54.1418 98.8863 51.2039 101.625C43.7433 108.6 32.9195 117.167 28.2615 117.731C24.2412 118.216 20.5496 118.139 17.0125 118.08C8.45016 117.925 0.79628 117.944 -8.38458 126.725C-23.0739 140.791 -29.6262 166.376 -22.2042 186.037C-16.2898 201.734 -5.36943 213.876 4.02403 227.378C14.152 241.929 22.5211 258.034 21.0328 281.813C19.4672 306.719 11.9679 340.852 -7.03163 356.88C-8.82915 358.395 -10.4333 359.697 -11.825 360.863C-19.6142 367.371 -21.489 370.188 -20.6386 387.478C-20.31 394.005 -19.2277 401.252 -17.5268 408.964C-16.657 413.18 -15.5747 417.532 -14.3377 421.961ZM-8.3266 421.961H-6.68369C-11.709 401.951 -12.9074 381.883 -3.86182 371.295C6.71066 358.9 10.325 349.964 16.0848 334.83C30.2136 297.743 37.6163 267.961 17.0705 231.885C8.21822 216.343 -19.5369 162.666 -4.96352 147.28C1.45341 140.499 24.1059 131.699 33.4994 126.415C52.8661 115.516 64.8689 104.209 71.2085 92.2616C72.2136 90.3577 73.0833 88.4539 73.7985 86.5306C76.1565 80.3139 77.0843 73.9029 76.833 67.2782C76.6591 63.0042 76.0019 58.6525 74.9196 54.2037C70.6867 36.9523 59.9789 18.2438 46.2946 -2.48502C35.5868 -18.7068 38.1381 -21.7374 44.8063 -40.0767L45.4828 -41.9417H43.8013L43.3374 -40.679C36.4952 -21.8928 33.9053 -18.3182 45.019 -1.49424C59.8823 21.0219 71.2472 41.032 74.417 59.3324C76.1179 69.1821 75.4414 78.5265 71.6724 87.5019C66.1445 100.635 53.9485 112.99 32.7649 124.919C22.9849 130.417 0.699631 138.945 -6.08453 146.114C-21.4504 162.336 6.42072 216.44 15.7369 232.798C35.9927 268.35 28.5514 297.666 14.6352 334.208C8.95274 349.148 5.39635 357.948 -5.0215 370.168C-14.4343 381.164 -13.3712 401.601 -8.3266 421.961ZM-0.556717 421.961H1.0862C-0.865952 412.267 -1.19452 402.165 0.912247 391.46C7.87036 356.045 20.105 362.358 30.001 335.588C43.7626 298.384 41.7332 273.731 29.5178 237.772C23.6614 220.54 1.97527 175.235 7.85101 160.199C17.0705 136.614 33.5768 132.223 53.2334 123.19C59.7084 120.217 64.9656 116.954 69.1598 113.36C76.7944 106.813 80.9499 99.1194 82.7281 89.8915C83.4046 86.3363 83.7332 82.548 83.7718 78.5071C83.8298 72.1155 83.134 65.0829 81.9743 57.3314C80.4667 47.3264 78.8045 40.1189 76.891 34.1936C72.3876 20.206 66.5118 13.4259 57.9495 -5.92365C52.8082 -17.5606 52.4989 -18.5708 56.5385 -27.993C57.5049 -30.266 59.2831 -35.317 61.5445 -41.9806H59.863C57.7949 -35.8027 56.1326 -31.0431 55.1082 -28.6924C50.8367 -18.7262 51.2426 -17.172 56.5385 -5.1854C65.7773 15.6989 71.885 21.8379 76.5044 38.3704C77.954 43.5187 79.249 49.6771 80.4474 57.6034C84.0811 81.5766 83.0566 98.3617 69.4303 110.931C65.1588 114.875 59.6503 118.411 52.6729 121.616C32.5717 130.863 15.8915 135.371 6.44003 159.538C0.216385 175.468 21.9799 220.404 28.0875 238.335C40.1869 273.906 42.1971 298.132 28.5901 334.947C18.8294 361.348 6.47871 355.209 -0.57605 391.091C-2.76013 402.009 -2.4702 412.209 -0.556717 421.961ZM6.63335 421.961H8.23761C5.35773 407.449 6.26608 394.044 14.6545 385.69C41.9458 358.492 49.2712 304.951 47.1837 266.543C45.1543 229.34 35.2776 228.777 27.9522 199.014C24.3379 184.327 20.6655 163.21 32.7649 152.039C46.9517 138.906 45.0963 139.101 62.7042 131.407C69.5077 128.435 75.1515 125.171 79.8289 121.636C83.0953 119.149 85.8786 116.526 88.2173 113.768C100.858 98.8863 100.858 79.9447 96.1611 57.2149C94.8662 50.9204 93.2039 44.354 91.3678 37.4962C90.2661 33.4359 89.3576 30.1139 88.4879 27.2386C85.1248 16.1457 82.4575 11.93 73.4506 -0.639439C62.7235 -15.579 63.8252 -24.4378 68.7346 -41.9417H67.0916C62.1436 -24.1852 61.2159 -14.9184 72.2329 0.429062C82.0709 14.1447 84.1777 17.6804 88.1013 31.5321C88.6425 33.4553 89.2223 35.5924 89.8602 37.9819C92.1409 46.4327 94.1317 54.4174 95.504 61.9745C99.0217 81.1881 98.5578 97.4487 88.6812 110.62C86.3618 113.729 83.5012 116.662 80.0608 119.421C75.3061 123.229 69.411 126.725 62.2016 129.873C44.4584 137.624 46.1593 137.527 31.9145 150.699C20.3177 161.423 22.2698 179.121 25.227 193.847C31.5279 225.26 43.6273 229.107 45.6761 266.66C47.7056 303.96 40.1676 358.065 13.7461 384.389C4.8358 393.17 3.75346 407.041 6.63335 421.961ZM16.9545 421.961H18.5201C17.6503 412.947 18.5588 404.321 24.3572 396.045C35.9734 379.454 36.4953 380.892 40.071 360.338C41.6366 351.343 49.2132 359.017 42.2744 380.037C34.8717 402.495 33.4221 410.849 34.0019 421.942H35.5675C34.9877 411.062 36.418 402.806 43.724 380.678C52.151 355.131 40.4189 349.167 38.5054 360.124C34.9877 380.309 34.5238 378.697 23.1009 395.016C17.0318 403.68 16.0654 412.617 16.9545 421.961ZM21.0135 421.961H22.579C21.6513 414.637 21.7092 406.458 25.3429 401.893C28.2035 398.279 29.054 414.287 29.3052 421.961H30.8901C30.6389 413.374 29.4598 394.122 24.1446 400.805C20.221 405.739 20.0857 414.268 21.0135 421.961ZM39.6458 421.961C41.1534 407.702 44.0526 393.792 47.6476 381.669C56.1519 353.072 58.2781 339.473 56.8478 309.108C55.1083 272.138 41.0567 208.961 47.7249 176.401C52.6729 152.214 62.6269 147.959 78.3406 137.644C79.8869 136.633 81.4911 135.565 83.134 134.399C88.3139 130.786 92.6241 126.939 96.1611 122.84C96.9149 121.966 97.6301 121.092 98.3259 120.198C112.609 101.606 112.126 78.4877 105.555 52.0278C105.477 51.6975 105.381 51.3673 105.303 51.037C105.091 50.2405 104.897 49.444 104.685 48.6475C100.549 33.2222 95.3107 21.4688 90.1694 8.23882C88.7198 4.52822 87.2895 0.701054 85.8979 -3.35924C82.7668 -12.4318 81.3171 -27.6821 82.8634 -41.9417H84.4676C82.96 -27.8958 84.3323 -12.762 87.3282 -4.0392C88.3332 -1.08627 89.3963 1.78899 90.498 4.60594C95.1561 16.7674 100.317 28.1906 104.395 41.9062C104.646 42.761 104.897 43.6352 105.149 44.49C105.342 45.1894 105.555 45.8888 105.748 46.5882C109.343 59.5461 111.662 72.0961 111.546 83.9079C111.488 88.7453 111.024 93.4466 110.077 98.012C108.183 107.007 104.376 115.419 98.036 123.073C97.3402 123.909 96.6057 124.744 95.8519 125.56C92.5081 129.173 88.5845 132.592 83.9458 135.817C81.9163 137.236 79.9835 138.518 78.1473 139.742C61.3125 150.854 51.7838 155.594 48.2661 182.792C43.7433 217.781 57.9881 277.442 58.7032 317.676C59.1865 344.893 56.7124 356.666 49.1358 382.155C45.5408 394.258 42.6802 407.935 41.1726 421.942H39.6458V421.961ZM54.4897 421.961C56.8284 408.187 60.3268 392.587 63.9799 369.624C68.2514 342.717 63.3033 273.421 55.804 247.388C51.4165 232.196 54.1611 221.861 57.8335 206.688C63.2453 184.308 73.6245 150.368 93.7258 138.654C93.9577 138.518 94.1703 138.382 94.4023 138.265C95.1754 137.799 95.9292 137.333 96.6443 136.847C100.916 134.05 104.279 131.038 106.985 127.639C112.455 120.781 115.257 112.408 117.403 101.14C121.191 81.324 120.515 60.3621 116.108 40.488C114.291 32.2897 111.836 24.2663 108.802 16.5925C108.686 16.3206 108.589 16.0486 108.473 15.7766C107.7 13.8339 106.869 11.93 106.018 10.0261C94.8468 -14.7242 90.6913 -26.4971 91.9283 -42H93.4938C92.2568 -26.7496 96.3544 -15.2099 107.429 9.28788C107.913 10.3564 108.376 11.4249 108.84 12.5128L109.13 13.2122C112.145 20.4391 114.658 27.9769 116.591 35.7089C121.964 57.0983 123.047 79.9253 118.93 101.451C116.514 114.078 113.305 123.112 106.676 130.456C103.912 133.506 100.568 136.284 96.4317 138.887C95.7552 139.314 95.0401 139.742 94.3056 140.169C94.2477 140.208 94.209 140.227 94.151 140.266C74.8229 151.67 64.5596 185.493 59.341 207.057C55.746 221.958 53.0208 231.982 57.2923 246.844C64.8689 273.129 69.8362 342.698 65.5067 369.877C61.873 392.684 58.4134 408.207 56.0747 421.883H54.4897V421.961ZM58.6646 421.961C59.4378 414.676 60.9647 407.352 64.3277 395.21C64.6563 394.044 64.9655 392.84 65.2748 391.616C69.4883 374.714 71.9623 352.664 72.1943 331.314C72.3876 314.121 71.1312 297.394 68.1934 284.222C63.1101 261.531 56.6931 233.342 64.5017 210.496L71.7691 193.555C81.5684 165.794 74.3204 175.507 92.0636 158.431C93.3586 157.187 94.7695 155.808 96.3351 154.273C99.3696 151.281 102.346 148.27 105.129 145.162C114.871 134.36 122.505 122.471 123.472 106.385C124.38 91.4845 124.651 57.6811 122.08 42.9941C120.766 35.4758 119.278 29.4145 117.77 24.3051C115.025 15.0384 112.184 8.86048 109.961 2.58549C106.386 -7.55553 104.472 -17.9297 107.391 -41.9611L108.976 -41.9611C106.366 -20.7272 107.565 -10.2171 110.367 -1.08626C112.397 5.57728 115.296 11.5026 118.176 20.342C120.07 26.1701 121.964 33.2611 123.626 42.6639C126.236 57.4869 125.965 91.3096 125.037 106.366C123.974 123.811 115.547 136.303 104.839 147.862C102.443 150.446 99.9495 152.972 97.3788 155.497C95.2334 157.615 93.3779 159.402 91.7544 160.956C75.9633 176.012 82.7087 167.309 73.2379 194.099L65.9706 211.059C58.2974 233.498 64.695 261.473 69.701 283.775C71.9623 293.839 73.238 305.922 73.6439 318.705C74.4943 345.36 71.5564 375.044 65.816 395.715C65.1395 398.124 64.5597 400.339 64.0185 402.398C61.931 410.518 60.8294 416.25 60.2302 421.942H58.6646V421.961ZM72.3296 421.961C73.1993 418.076 74.3203 414.132 75.7893 410.091C76.6977 407.604 77.4901 405.118 78.2053 402.67C82.7474 387.05 83.6752 372.111 83.0373 356.452C82.7281 348.856 82.0516 341.086 81.2398 332.965C78.3406 303.98 66.3765 249.059 69.9715 223.434C73.6632 197.149 87.9273 182.967 102.713 168.397C110.135 161.073 117.693 153.652 124.11 144.54C140.674 120.994 132.73 49.0554 126.757 20.5363C124.767 11.0169 122.331 5.09161 120.495 -1.59135C119.123 -6.58415 118.099 -12.0043 117.847 -19.6781C117.751 -22.6699 118.292 -31.8201 119.355 -41.9806H120.978C119.896 -31.9173 119.316 -22.7865 119.413 -19.6975C119.587 -14.3162 120.167 -10.0422 120.978 -6.23446C122.815 2.43008 125.888 8.7245 128.284 20.1671C134.392 49.4051 142.317 121.48 125.308 145.628C118.504 155.284 110.348 163.093 102.443 170.903C88.3333 184.852 74.9968 198.859 71.5178 223.687C67.9807 248.923 79.9255 304.116 82.8054 332.771C83.2886 337.55 83.7139 342.193 84.0424 346.758C85.666 368.633 85.1248 388.488 77.4128 410.188C77.3355 410.382 77.2776 410.577 77.2003 410.771C75.8473 414.54 74.7649 418.231 73.9338 421.903H72.3296V421.961ZM-4.65428 -41.9611C-10.2981 -22.5145 -16.5991 -3.63122 -23.4025 15.8543C-34.1876 46.763 -37.0868 -2.97069 -36.7969 -41.9611H-35.1734C-35.4633 -8.37145 -33.7624 33.3971 -27.3648 21.3911C-23.4992 14.1447 -12.7721 -19.9501 -6.27782 -41.9611H-4.65428ZM-15.0141 -41.9611H-16.599C-19.5756 -24.8652 -23.3058 -5.69053 -25.8378 -4.19463C-28.3118 -6.11792 -28.6405 -24.1852 -27.9833 -41.9611H-29.8774C-30.7665 -7.73036 -26.5916 26.6558 -15.0141 -41.9611ZM-173.253 -41.9611H-174.838C-169.697 -2.4073 -169.156 28.8317 -182.975 73.3589C-187.111 86.6665 -187.943 79.9447 -188.967 69.0849C-192.117 35.3398 -189.373 -6.44816 -189.585 -41.9611H-191.267C-191.209 -38.6779 -191.19 -35.1422 -191.209 -31.1013C-191.209 -30.9653 -195.925 120.489 -181.468 73.8834C-167.59 29.1814 -168.112 -2.25187 -173.253 -41.9611ZM-179.322 -41.9611H-180.695C-179.921 -6.77842 -178.916 36.35 -182.492 38.5841C-185.778 35.8255 -185.584 -7.92464 -185.565 -13.2866C-185.526 -22.3591 -185.082 -32.3252 -184.811 -41.9611H-186.706C-187.653 -9.45938 -188.252 51.717 -180.521 38.6036C-176.906 32.5229 -178.394 -8.06062 -179.322 -41.9611ZM-230.001 -7.20582V-0.484016C-221.361 36.5443 -214.925 86.6083 -219.003 114.778C-223.796 147.94 -215.041 185.046 -221.728 220.695C-224.55 235.732 -227.237 250.691 -230.001 265.669V274.314C-229.846 273.421 -229.691 272.663 -229.595 272.061C-226.405 255.042 -223.39 238.082 -220.182 221.025C-213.456 185.201 -222.231 148.154 -217.457 115.127C-213.108 84.9763 -220.549 30.5219 -230.001 -7.20582ZM-230.001 35.8449V48.0258C-229.343 52.3386 -228.667 56.768 -227.932 61.4111C-222.308 97.1572 -222.424 109.105 -224.898 144.637C-226.483 167.231 -225.497 197.421 -230.001 223.706V231.633C-227.662 220.831 -226.599 209.583 -225.748 198.898C-224.183 179.237 -224.299 158.625 -222.868 138.285C-219.969 96.555 -223.68 75.4376 -230.001 35.8449ZM-4.84755 110.989C-1.2332 110.989 2.24586 110.659 5.80223 110.329C9.59055 109.979 13.4562 109.61 17.7084 109.61C19.1386 109.61 20.5689 109.455 21.9992 109.163C30.117 107.512 38.0802 101.392 44.0332 93.4855C49.9863 85.5786 53.8906 75.8844 53.8906 67.0645C53.8906 65.452 53.7552 63.8784 53.4846 62.3631C52.1124 54.6505 48.9619 47.0738 44.7677 40.1577C40.1096 32.484 34.1565 25.6262 27.9329 20.3031C27.0825 19.5649 26.1161 18.6712 25.0724 17.7193C21.9412 14.8247 18.1722 11.3278 14.6932 9.90956C11.2141 8.49137 7.92833 9.26847 5.80223 15.2909C4.06271 20.2254 1.06686 25.7427 -1.96764 31.3572C-6.43243 39.6138 -11.0325 48.1035 -11.8829 55.0779C-12.3275 58.7691 -13.5838 62.1688 -14.8402 65.6268C-16.8889 71.183 -18.9764 76.8947 -17.5848 83.8302C-17.3528 85.0152 -17.1209 86.4723 -16.8696 88.1042C-15.4973 96.9824 -13.2939 110.989 -4.84755 110.989ZM15.157 60.8866C13.7847 63.9561 11.4074 70.3282 10.8662 75.2628C10.6729 76.9918 10.7309 78.5265 11.1175 79.6144C11.4654 80.547 12.1032 81.1492 13.1662 81.2464C14.21 81.3435 15.6596 80.9938 17.5537 80.0613C17.9209 79.8864 18.2688 79.6922 18.6361 79.4785C22.5017 77.2249 25.3043 73.5532 26.6573 69.318C28.0102 65.0829 27.9136 60.3038 26.0194 55.8355C25.8455 55.4276 25.6522 55.0196 25.4589 54.6311C22.5017 48.7835 20.7042 47.307 19.5445 47.9675C18.0562 48.8223 17.1479 52.8632 16.3941 56.2823C16.0075 58.1474 15.6209 59.857 15.157 60.8866ZM14.9251 55.8744C14.5192 57.6617 14.1713 59.2741 13.7654 60.1678C12.3545 63.3344 9.89977 69.9203 9.33926 75.0685C9.12665 77.0501 9.18466 78.8374 9.6872 80.2167C10.2477 81.7515 11.3107 82.7422 13.0503 82.8782C14.3453 82.9948 16.0461 82.6062 18.2108 81.5572C18.6361 81.3629 19.0227 81.1492 19.3899 80.9161C23.6227 78.4683 26.6572 74.4468 28.1262 69.8231C29.5951 65.1995 29.4985 59.993 27.4497 55.1362C27.2564 54.6893 27.0632 54.2619 26.8312 53.8151C23.3135 46.8601 20.7815 45.3448 18.8294 46.4716C16.7613 47.7149 15.7562 52.1444 14.9251 55.8744ZM1.02821 78.8179C0.680313 83.1696 0.796265 86.9191 2.36185 89.1921C3.88876 91.3874 6.92329 92.2422 12.5091 90.9211C16.1041 90.0857 20.5689 88.687 24.6471 86.6277C28.1842 84.8404 31.412 82.5674 33.5381 79.6922C35.6062 76.9141 36.6305 73.5532 35.7994 69.5317C35.5675 68.3661 35.1616 67.1422 34.6011 65.8405C33.6733 63.7424 32.9196 60.3426 32.0885 56.5155C30.2523 48.1618 27.9716 37.7488 22.7143 35.7672C16.452 33.4165 13.2242 39.8081 11.0981 46.2968C10.5376 48.0064 10.0351 49.7742 9.59055 51.3867C8.9334 53.7374 8.35355 55.7578 7.73505 57.0789C4.81651 63.2956 3.28958 66.6954 2.41983 69.5511C1.56938 72.3681 1.3568 74.6994 1.02821 78.8179ZM0.950867 69.0461C0.0424347 72.0378 -0.189438 74.4468 -0.518021 78.6625C-0.885254 83.3639 -0.749969 87.4825 1.10553 90.144C2.99968 92.8638 6.53671 93.9906 12.8184 92.5141C16.51 91.6399 21.0907 90.2217 25.2849 88.1042C28.9959 86.2197 32.4364 83.7913 34.7364 80.7024C37.0945 77.5358 38.2348 73.728 37.307 69.1626C37.0364 67.8804 36.6112 66.5399 35.9927 65.1217C35.1423 63.179 34.4078 59.857 33.5961 56.1269C31.6826 47.3847 29.2859 36.4666 23.2169 34.1936C15.6982 31.3572 12.0066 38.487 9.62922 45.7334C9.03004 47.5401 8.54681 49.2885 8.08295 50.901C7.44511 53.174 6.8846 55.1362 6.32408 56.3212C3.3862 62.6545 1.85928 66.1125 0.950867 69.0461ZM-7.53413 82.7034C-7.63077 82.9948 -7.7274 83.2862 -7.78539 83.5776C-8.50053 86.55 -8.15265 90.5908 -6.99295 94.1655C-5.83327 97.6818 -3.90044 100.693 -1.36845 101.684C-1.1945 101.761 -1.02058 101.82 -0.865967 101.859C5.53163 103.627 8.10226 102.772 12.4318 101.315C12.741 101.218 13.0889 101.101 13.804 100.868L16.0268 100.149C20.5883 98.6532 22.5211 98.0314 24.048 97.2544C25.169 96.691 26.0967 96.0305 27.7203 94.8842C29.1313 93.8935 31.0448 92.553 33.828 90.7074C43.1635 84.549 44.9803 75.0102 43.3567 65.1217C41.6945 55.039 36.4759 44.5872 31.8952 36.8357C23.7967 23.1395 23.0429 23.4892 15.2344 27.0638C14.268 27.5106 13.1856 27.9963 12.0645 28.482C7.85101 30.3082 5.20306 33.6691 3.44421 37.6905C1.66603 41.7896 0.796234 46.6076 0.216385 51.2313C-0.228165 54.7282 -1.32985 59.857 -2.6055 65.0052C-4.44167 72.5041 -6.62572 80.0419 -7.53413 82.7034ZM-4.07445 64.5972C-5.91063 72.0184 -8.07532 79.4979 -8.98373 82.1206C-9.0997 82.4314 -9.19641 82.7811 -9.27371 83.1502C-10.0662 86.4334 -9.69888 90.8434 -8.44255 94.69C-7.14757 98.6143 -4.88622 102.033 -1.89035 103.219C-1.69707 103.296 -1.46515 103.374 -1.23322 103.432C5.60893 105.317 8.3149 104.404 12.915 102.869L14.268 102.422L16.4907 101.703C21.1487 100.188 23.1202 99.5468 24.7245 98.7309C25.9228 98.1286 26.8892 97.4487 28.5708 96.2442C29.9044 95.3117 31.7019 94.0295 34.6397 92.1062C44.6517 85.5009 46.6232 75.3405 44.8643 64.8303C43.1441 54.4951 37.8482 43.8295 33.1901 35.9615C24.3959 21.0608 23.5261 21.4688 14.6159 25.5485C13.7074 25.9759 12.6831 26.4421 11.4847 26.9667C6.8653 28.9871 3.94675 32.6394 2.0526 37.0105C0.197098 41.304 -0.692032 46.2579 -1.2912 51.037C-1.71642 54.4368 -2.81813 59.5073 -4.07445 64.5972ZM-18.3965 88.3956C-16.9276 97.7789 -14.6082 112.641 -4.84755 112.641C-1.17522 112.641 2.34253 112.31 5.93756 111.98C9.68721 111.631 13.5142 111.281 17.7084 111.281C19.2353 111.281 20.7622 111.125 22.2891 110.815C30.7935 109.086 39.0852 102.733 45.2509 94.5346C51.3972 86.3363 55.4561 76.273 55.4561 67.0839C55.4561 65.3937 55.3208 63.7035 55.0309 62.0717C53.62 54.1259 50.3922 46.355 46.082 39.2835C41.3273 31.4544 35.2582 24.4606 28.8993 19.0404C28.0295 18.3021 27.1018 17.4279 26.0968 16.4954C22.869 13.5036 18.984 9.90956 15.2537 8.39424C10.9435 6.64579 6.92328 7.53942 4.37198 14.7469C2.6711 19.5454 -0.286087 25.0045 -3.30127 30.5801C-7.84338 38.9727 -12.5208 47.6178 -13.4099 54.9225C-13.8351 58.3999 -15.0528 61.7025 -16.2705 65.0829C-18.3966 70.8722 -20.5613 76.8169 -19.0923 84.2381C-18.8797 85.3649 -18.6478 86.8025 -18.3965 88.3956ZM-44.0256 285.31C-44.5861 284.358 -45.1466 281.697 -45.5912 278.744C-46.1324 275.169 -46.4609 271.284 -46.4223 269.593C-45.6685 270.409 -44.4508 272.915 -43.4458 275.693C-42.7886 277.461 -42.2668 279.346 -42.0541 281.017C-41.8415 282.571 -41.8802 283.892 -42.3247 284.669C-42.6146 285.174 -43.1559 285.427 -44.0256 285.31ZM-44.8181 301.376C-49.6694 294.868 -50.3652 274.159 -50.7711 261.803C-50.8291 260.288 -50.8678 258.908 -50.9064 257.704C-50.9837 255.858 -50.7518 254.751 -50.3459 254.226C-50.1526 253.974 -49.8627 253.896 -49.5341 253.954C-49.0509 254.052 -48.4904 254.401 -47.8719 254.945C-45.6685 256.869 -43.1752 261.026 -41.9962 265.533C-40.6625 270.701 -38.8264 278.044 -38.5364 284.941C-38.2465 291.702 -39.4062 298.074 -43.9483 301.551C-44.0063 301.59 -44.1416 301.59 -44.2769 301.571C-44.5668 301.512 -44.7988 301.415 -44.8181 301.376ZM-52.2014 261.861C-52.2594 260.365 -52.298 258.986 -52.3367 257.762C-52.4333 255.509 -52.0854 254.032 -51.4283 253.236C-50.8484 252.517 -50.0946 252.284 -49.2442 252.458C-48.5291 252.614 -47.7366 253.061 -46.9442 253.76C-44.5475 255.858 -41.8415 260.327 -40.6045 265.125C-39.2516 270.37 -37.3961 277.792 -37.0868 284.883C-36.7776 292.109 -38.0726 298.967 -43.0979 302.814C-43.5038 303.125 -44.0256 303.183 -44.4895 303.105C-45.108 302.989 -45.7651 302.6 -45.9391 302.348C-51.0997 295.432 -51.7955 274.392 -52.2014 261.861ZM-46.1904 314.082L-46.9828 311.984C-54.1149 293.256 -60.7057 275.907 -56.8981 255.256C-56.0863 250.865 -54.8687 248.262 -52.9359 247.058C-50.9837 245.834 -48.1812 245.95 -44.2383 246.941H-44.1996C-42.2474 247.524 -38.2659 253.644 -34.9414 260.696C-31.617 267.767 -29.027 275.713 -29.9354 279.851L-29.9934 280.084C-30.9405 283.659 -31.327 286.553 -31.7136 289.409C-32.2548 293.372 -32.7766 297.258 -34.7674 302.717C-35.4632 304.621 -38.7877 310.157 -41.7255 313.732C-42.5953 314.801 -43.4458 315.694 -44.1416 316.219C-44.6248 316.588 -44.9727 316.782 -45.0887 316.704C-45.0887 316.704 -45.108 316.685 -45.1273 316.666L-46.1904 314.082ZM-48.3165 312.566C-55.5258 293.605 -62.2134 276.063 -58.3091 254.965C-57.4007 250.108 -55.9897 247.194 -53.651 245.737C-51.3316 244.299 -48.2198 244.357 -43.9097 245.445L-43.813 245.465C-41.4936 246.164 -37.1448 252.633 -33.6658 260.016C-30.206 267.359 -27.5387 275.694 -28.5438 280.22C-28.5631 280.317 -28.5824 280.414 -28.6211 280.511C-29.5295 283.969 -29.9161 286.825 -30.3026 289.642C-30.8438 293.683 -31.385 297.666 -33.4531 303.3C-34.1876 305.301 -37.6474 311.07 -40.6819 314.762C-41.629 315.908 -42.5373 316.879 -43.3491 317.501C-44.3542 318.259 -45.2433 318.511 -45.9391 318.006C-46.1517 317.851 -46.3257 317.637 -46.461 317.365L-46.4803 317.326C-47.0795 315.714 -47.698 314.179 -48.3165 312.566ZM-51.119 317.054C-53.6124 311.867 -56.4343 305.709 -58.6183 300.638C-60.5125 296.228 -61.9234 292.673 -62.2133 291.313C-62.6965 289.118 -63.1604 287.058 -63.5856 285.174C-66.3495 273.013 -67.4126 268.389 -64.1268 252.206C-63.5083 249.156 -60.7444 245.678 -57.6906 241.832C-55.951 239.637 -54.1149 237.325 -52.53 234.935C-51.8921 233.983 -51.4476 232.856 -51.0031 231.749C-50.6358 230.855 -50.2879 230.001 -49.882 229.282C-48.7803 227.417 -46.9635 226.64 -42.2667 229.845C-38.9616 232.099 -34.9027 237.946 -31.6363 244.299C-28.3119 250.768 -25.7992 257.723 -25.7219 261.978C-25.6832 264.29 -24.8328 267.184 -23.8664 270.506C-21.3731 279.035 -18.0099 290.594 -25.8378 301.551C-26.611 302.62 -27.9446 305.029 -29.5875 307.962C-31.6556 311.653 -34.1683 316.18 -36.4876 319.716C-41.0104 326.651 -43.4071 328.419 -45.3592 326.962C-46.9441 325.777 -48.4711 322.61 -50.5199 318.336L-51.119 317.054ZM-59.9326 301.279C-61.8654 296.791 -63.3151 293.12 -63.6243 291.663C-64.1268 289.351 -64.5714 287.369 -64.9966 285.543C-67.8185 273.129 -68.9009 268.408 -65.5571 251.895C-64.8613 248.476 -61.9814 244.843 -58.8116 240.86C-57.1107 238.704 -55.3132 236.45 -53.7283 234.061C-53.1678 233.226 -52.7426 232.176 -52.3367 231.147C-51.9501 230.195 -51.5829 229.282 -51.0997 228.466C-49.5535 225.863 -47.1954 224.658 -41.4936 228.544C-37.9759 230.933 -33.743 236.994 -30.3606 243.561C-26.9396 250.224 -24.3689 257.451 -24.2723 261.958C-24.2336 264.037 -23.4219 266.835 -22.4941 270.04C-19.9235 278.899 -16.425 290.886 -24.6781 302.484C-25.3933 303.494 -26.7269 305.864 -28.3312 308.739C-30.3993 312.45 -32.9313 316.976 -35.2893 320.57C-40.4306 328.438 -43.3878 330.284 -46.1517 328.205C-48.0265 326.807 -49.6114 323.484 -51.7568 319.016L-52.3754 317.734C-54.9073 312.566 -57.7292 306.369 -59.9326 301.279ZM-47.9492 337.511C-43.8323 342.212 -42.2667 342.523 -41.2424 341.494C-40.8365 341.086 -40.4692 340.464 -40.0634 339.803C-39.3096 338.579 -38.4978 337.239 -37.1062 336.365C-31.7716 333.023 -24.0597 323.815 -17.9133 314.121C-12.3275 305.301 -8.07533 296.15 -8.15265 290.788C-8.22997 285.601 -8.09464 282.726 -8.01732 280.803C-7.94002 279.171 -7.9014 278.219 -8.05603 277.131C-8.2493 275.635 -8.8291 273.751 -10.1821 269.341C-10.6073 267.942 -11.1292 266.252 -11.825 263.882C-13.3712 258.734 -15.3814 254.654 -17.1595 251.079C-18.4545 248.437 -19.6335 246.067 -20.426 243.677C-22.4168 237.694 -26.7076 230.234 -31.1144 222.618C-36.8356 212.691 -42.7113 202.511 -43.9676 194.74C-46.5769 200.549 -53.2451 214.692 -58.541 219.296C-70.0219 229.282 -72.4766 253.799 -74.2934 272.002C-74.622 275.266 -74.9312 278.336 -75.2791 281.133C-76.0909 287.719 -74.3901 294.946 -71.6455 301.823C-68.8623 308.759 -64.9966 315.364 -61.4789 320.668C-57.304 326.962 -53.3418 331.43 -49.2249 336.112L-47.9492 337.511ZM-50.2299 337.181L-48.9929 338.579C-44.0449 344.194 -41.8996 344.291 -40.2567 342.64C-39.7348 342.115 -39.3096 341.416 -38.8457 340.678C-38.1885 339.609 -37.4541 338.424 -36.3717 337.725C-30.8632 334.286 -22.958 324.883 -16.715 315.014C-10.9939 305.981 -6.62573 296.5 -6.70305 290.788C-6.78036 285.679 -6.64503 282.823 -6.56772 280.9C-6.49042 279.152 -6.43246 278.161 -6.60643 276.937C-6.81903 275.305 -7.41821 273.382 -8.79051 268.875C-9.27371 267.282 -9.85352 265.397 -10.4334 263.435C-12.0183 258.151 -14.0477 254.013 -15.8645 250.38C-17.1402 247.796 -18.2999 245.465 -19.0537 243.172C-21.0832 237.053 -25.432 229.515 -29.8774 221.822C-36.217 210.826 -42.7499 199.5 -42.7499 191.904V191.787L-42.9626 191.127H-43.4844C-43.9676 191.127 -44.1223 191.515 -44.4122 192.195C-45.9584 195.712 -53.651 213.099 -59.4301 218.111C-71.3748 228.485 -73.8682 253.391 -75.7044 271.847C-76.033 275.15 -76.3422 278.238 -76.6708 280.939C-77.5213 287.836 -75.7817 295.315 -72.9211 302.445C-70.0992 309.516 -66.1756 316.219 -62.5999 321.581C-58.3671 327.953 -54.3854 332.46 -50.2299 337.181ZM-47.0021 278.996C-47.6786 274.45 -48.0072 269.283 -47.6979 268.331L-47.5627 267.923L-47.1568 267.825C-45.8618 267.534 -43.5811 271.05 -42.0928 275.15C-41.4163 277.034 -40.8558 279.016 -40.6045 280.803C-40.3533 282.687 -40.4306 284.377 -41.0877 285.485C-41.7256 286.612 -42.8466 287.156 -44.5475 286.786L-44.7794 286.728L-44.934 286.534C-45.7845 285.582 -46.4996 282.435 -47.0021 278.996Z" fill="#8A5A30"/>
</svg>
