<svg width="300" height="48" viewBox="0 0 300 48" fill="none" xmlns="http://www.w3.org/2000/svg">
<path fill-rule="evenodd" clip-rule="evenodd" d="M298.997 136.981H297.861C288.508 127.623 295.239 124.245 298.154 105.888C298.959 100.806 298.457 101.043 300 99.1031V100.409C299.318 101.45 299.546 101.999 298.911 106.02C295.958 124.68 289.133 127.519 298.997 136.981ZM290.903 136.981C291.234 128.408 292.796 118.756 294.405 108.935C296.942 93.4351 299.602 77.5288 297.709 64.8208C297.207 61.4806 296.649 58.3391 296.053 55.3395C292.73 38.4491 288.555 25.7884 290.487 5.5294C291.708 -7.25431 291.935 -18.0982 292.124 -30.8725C292.399 -49.4282 295.248 -67.9745 299.991 -85.8396V-88.7918C296.479 -76.1406 293.913 -63.1298 292.512 -49.996C291.84 -43.6467 291.443 -37.2691 291.348 -30.8819C291.291 -27.1727 291.234 -23.6243 291.149 -20.1421C290.998 -13.9253 290.761 -7.91669 290.307 -1.58635C290.146 0.703552 289.947 3.04078 289.72 5.43477C289.209 10.7621 289.123 15.5595 289.322 20.0352C289.947 33.8787 293.364 44.7227 295.939 58.8973C296.299 60.856 296.63 62.8715 296.942 64.9722C298.59 76.0148 296.763 89.5082 294.576 103.077C292.683 114.839 290.524 126.658 290.127 136.972H290.903V136.981ZM285.555 136.981C287.505 126.525 288.366 116.296 290.345 105.812C291.367 100.399 292.361 99.5099 292.607 94.1921C292.9 87.8996 294.055 65.1898 293.26 59.8814C292.209 52.9076 289.426 47.8831 288.707 39.982C288.631 39.1398 288.565 38.4018 288.518 37.7394C288.063 31.797 288.508 32.6013 286.615 24.7475C281.797 4.70617 287.997 -11.9287 287.694 -32.1877C287.59 -38.9818 287.533 -41.7448 288.972 -48.4631C290.638 -56.2696 288.906 -62.0795 290.96 -70.0657C292.787 -77.172 292.332 -73.5384 292.749 -81.3355C292.91 -84.2215 293.26 -86.6723 293.677 -88.9905H292.881C292.474 -86.6912 292.124 -84.2499 291.963 -81.3828C291.528 -73.4249 292.067 -77.5505 290.193 -70.2928C288.111 -62.2025 289.852 -56.4304 288.215 -48.7186C286.757 -41.8773 286.804 -39.1142 286.908 -32.1877C287.098 -19.2621 284.665 -7.91669 284.097 3.82615C284.031 5.15089 283.993 6.48509 283.983 7.82875C283.945 13.3359 284.419 18.9755 285.848 24.9462C287.969 33.7557 287.136 31.4469 287.912 40.0482C287.997 41.0418 288.12 41.988 288.271 42.8964C289.303 49.3025 291.547 53.8917 292.465 60.0044C293.251 65.2182 292.096 87.928 291.802 94.1353C291.528 100.097 290.752 99.2923 289.549 105.642C287.571 116.154 286.71 126.459 284.741 136.962H285.555V136.981ZM282.98 136.981C286.037 120.214 289.284 104.601 290.742 86.0923C291.727 73.6303 292.257 66.9877 289.625 54.4216C287.817 45.8014 287.495 41.4392 286.672 33.0933C286.113 27.4348 284.854 23.8202 283.643 20.1015C282.639 17.0073 281.674 13.8563 281.191 9.39951C279.913 -2.41902 280.32 -12.8561 282.923 -24.438C285.924 -37.78 283.576 -47.4884 284.845 -60.1491C285.555 -67.2554 286.227 -68.7883 286.284 -76.1027C286.321 -81.061 286.312 -84.8365 286.596 -88.9716H285.725C285.451 -84.8555 285.451 -81.0705 285.413 -76.1122C285.356 -67.9651 283.879 -62.3633 283.633 -54.5663C283.16 -39.2751 284.646 -36.8432 281.238 -21.2965C278.616 -9.32658 278.739 9.34273 283.008 20.8017C283.217 21.3505 283.396 21.871 283.576 22.3819C285.318 27.4916 285.583 30.6805 286 36.4904C286.634 45.3093 288.328 51.0814 289.843 59.3705C291.471 68.2462 290.345 81.0015 289.521 90.1706C288.006 106.957 284.883 121.586 282.071 136.981H282.98ZM281.096 136.981C283.008 130.509 283.832 121.993 284.845 117.451C287.003 107.78 288.423 90.2936 288.508 80.2729C288.65 62.8148 281.986 90.3409 281.427 92.6686C278.853 103.267 278.332 110.524 276.827 120.791C276.221 124.898 275.492 125.39 274.953 130.026C274.716 132.089 274.186 134.521 273.627 136.972H274.309C274.46 136.3 274.565 135.893 274.565 135.883C275.549 132.004 275.568 128.541 276.467 125.636C278.02 120.602 278.19 115.199 278.928 109.975C279.402 106.588 284.92 77.5099 287.41 75.4849C287.817 76.3082 287.751 79.9133 287.751 80.2445C287.666 90.3125 286.274 107.534 284.106 117.252C283.141 121.557 282.204 130.49 280.282 136.962H281.096V136.981ZM279.042 136.981H278.237C280.774 127.717 283.898 113.845 283.529 105.727C283.529 105.679 283.519 105.594 283.51 105.49C278.54 116.523 279.269 125.872 276.997 136.981H276.212C277.878 128.853 277.802 121.605 279.885 113.741C279.941 113.514 284.012 99.6708 284.296 105.679C284.674 113.808 281.588 127.642 279.042 136.981ZM269.112 136.981H268.345C268.771 127.358 270.693 119.741 273.107 112.038C275.814 103.39 279.127 94.6273 281.636 82.7426C284.447 69.4195 284.419 62.6161 282.715 49.3119C279.572 24.757 276.212 -1.04698 272.302 -25.8385C271.573 -30.4372 270.835 -35.0075 270.068 -39.5211C269.055 -45.5203 269.358 -42.7478 267.777 -48.4158C264.938 -58.6068 265.969 -73.8034 267.664 -88.9811H268.44C266.755 -73.8412 265.723 -58.6919 268.525 -48.6429C270.097 -43.0033 270.22 -43.5521 271.232 -37.2407C271.583 -35.0454 271.933 -32.8406 272.283 -30.6264C276.704 -2.64613 280.85 26.7535 284.173 54.6582C286.88 77.472 278.512 95.356 273.135 114.773C271.157 121.86 269.585 129.156 269.112 136.981ZM265.439 136.981H264.682C265.013 134.729 265.42 132.477 265.894 130.234C267.38 123.175 269.481 116.296 271.706 110.202C277.622 93.9271 276.335 83.5942 279.941 68.5017C284.674 48.6401 274.858 -1.5201 267.853 -21.1357C265.884 -26.6428 264.407 -31.9133 263.3 -37.0325C259.4 -55.0394 260.157 -71.2012 261.018 -88.9716H261.785C260.99 -72.649 260.299 -57.6416 263.234 -41.3473C264.388 -34.9697 266.092 -28.3839 268.573 -21.4479C275.038 -3.36526 284.674 46.9274 281.513 65.275C280.765 69.6277 279.78 72.7503 279.108 77.7275C277.471 89.7921 276.694 98.7908 272.435 110.496C269.708 117.99 267.361 125.815 265.969 133.773C265.761 134.843 265.591 135.912 265.439 136.981ZM260.593 136.981H259.807C260.365 132.931 261.217 128.938 262.24 124.954C266.963 106.616 275.341 88.5904 275.625 67.423C275.795 54.3175 277.897 50.3149 275.909 35.9983C273.732 20.338 274.432 10.2795 268.847 -5.15366C262.334 -23.1511 257.942 -36.2377 254.724 -52.9009C253.824 -57.547 253.02 -62.458 252.281 -67.8421C251.335 -74.7875 250.625 -81.8559 250.114 -88.9905H250.89C251.401 -81.8937 252.101 -74.8726 253.048 -67.9651C253.502 -64.6627 253.976 -61.5401 254.487 -58.55C257.772 -39.1994 262.372 -25.337 269.566 -5.46593C275.189 10.0713 274.479 20.1015 276.666 35.8469C278.673 50.2865 276.571 54.2229 276.401 67.3945C276.107 89.6123 266.906 108.433 262.372 127.698C261.624 130.783 261.019 133.868 260.593 136.981ZM256.768 136.981H255.992C257.081 129.184 258.936 123.374 261.823 115.208C263.366 110.846 265.203 105.802 267.37 99.4248C275.492 75.5228 274.886 60.875 270.608 36.3106C268.923 26.6684 268.591 16.7518 265.638 7.38402C263.413 0.315605 262.827 -1.14162 261.274 -8.68315C259.39 -17.8333 257.601 -28.9611 255.292 -39.2278C254.033 -44.8295 252.613 -50.1758 250.937 -54.8123C250.114 -57.1022 248.372 -72.9896 246.744 -88.9811H247.596C248.514 -79.8215 249.479 -70.6619 250.596 -61.5496C251.477 -54.3865 250.795 -58.1242 252.802 -52.3143L254.43 -46.0312C254.667 -45.0566 254.894 -44.0725 255.121 -43.0884C257.696 -31.9039 259.712 -20.0948 262.022 -8.86294C263.574 -1.3214 264.133 0.0506592 266.367 7.11907C269.33 16.5152 269.671 26.4602 271.356 36.1402C275.663 60.856 276.268 75.6458 268.09 99.6992C265.61 106.985 263.574 112.521 261.908 117.29C259.419 124.434 257.772 129.875 256.768 136.981ZM252.149 136.981H251.354C252.045 133.981 252.849 130.991 253.73 128.067C254.033 127.055 254.345 126.043 254.657 125.049C256.835 118.198 259.305 111.811 261.463 106.654C262.098 105.131 262.713 103.711 263.281 102.424C264.048 100.674 264.748 98.8949 265.382 97.0876C273.978 72.561 270.665 42.745 264.133 16.7707C262.685 10.9986 261.075 5.41582 259.4 0.126343C258.302 -3.35582 257.365 -6.78118 256.532 -10.1687C254.108 -20.0285 252.575 -29.5856 250.502 -39.3413C249.669 -43.2209 248.76 -47.1383 247.662 -51.122C247.179 -52.8726 246.763 -54.9637 246.393 -57.301C246.072 -59.3638 245.797 -61.6253 245.56 -64.0287C244.85 -71.4094 244.538 -80.2 244.614 -88.9622H245.381C245.362 -86.7101 245.362 -84.458 245.399 -82.2249C245.428 -80.2567 245.475 -78.3075 245.541 -76.3866C245.636 -73.7939 245.759 -71.2769 245.93 -68.8546C246.422 -61.7578 247.226 -55.5788 248.391 -51.3775C249.129 -48.6807 249.792 -46.0123 250.398 -43.3723C252.641 -33.5787 254.156 -24.0312 256.361 -14.266C257.412 -9.61992 258.614 -4.92657 260.138 -0.129128C261.52 4.23304 262.855 8.78445 264.095 13.4683C271.384 40.9945 275.35 73.1666 265.43 99.2639C264.975 100.456 264.502 101.63 263.991 102.803C263.253 104.497 262.429 106.418 261.568 108.518C259.352 113.912 256.863 120.507 254.743 127.49C254.44 128.503 254.137 129.515 253.843 130.537C253.218 132.647 252.65 134.814 252.149 136.981ZM248.249 136.981V136.972C249.99 129.458 251.032 122.191 253.181 114.262C253.815 111.906 254.553 109.502 255.434 107.004C256.986 102.595 258.936 96.6618 260.772 90.2179C264.341 77.6802 267.474 63.2122 266.376 54.2892C265.165 44.4861 261.123 21.0477 257.232 6.53241C256.219 2.75691 255.216 -0.42247 254.269 -2.58936C252.177 -7.42464 249.385 -22.2806 247.207 -36.531C246.611 -40.4484 246.053 -44.328 245.57 -47.9332C244.614 -55.1246 243.932 -61.2657 243.762 -64.6154C243.601 -67.6812 243.279 -69.621 242.995 -71.3526C242.588 -73.9075 242.276 -76.0365 242.758 -80.6826C242.815 -81.203 242.872 -81.7518 242.948 -82.329C243.241 -84.6568 243.487 -86.8615 243.677 -88.9716H242.91C242.825 -88.0348 242.73 -87.0886 242.626 -86.1234C242.503 -84.9501 242.361 -83.7389 242.2 -82.4993C240.979 -72.8666 242.569 -72.8098 242.995 -64.6532C243.042 -63.6881 243.137 -62.4958 243.26 -61.1332C243.686 -56.4304 244.519 -49.5891 245.579 -42.1895C246.157 -38.1585 246.8 -33.9667 247.473 -29.86C249.46 -17.7765 251.761 -6.42164 253.616 -2.1541C254.79 0.552147 256.087 4.96164 257.384 10.2133C260.952 24.7002 264.521 45.5364 265.61 54.3932C266.632 62.6444 263.934 75.835 260.659 87.7198C258.652 95.0248 256.418 101.838 254.705 106.711C254.099 108.433 253.559 110.108 253.076 111.754C250.795 119.523 249.697 126.591 248.164 133.773C247.936 134.833 247.7 135.902 247.454 136.972H248.249V136.981ZM240.515 136.981C240.477 128.834 242.389 120.488 246.952 110.761L247.558 109.464C253.436 96.8983 257.97 86.8493 260.129 75.0497C261.321 68.5206 261.795 61.4522 261.359 53.1347C260.905 44.505 259.769 36.6228 258.179 28.9678C255.926 18.0576 252.774 7.59219 249.47 -3.94247C247.113 -12.1653 245.362 -20.6531 244.055 -29.3396C241.178 -48.5388 240.534 -68.6937 240.591 -88.9811H239.824C239.758 -66.6877 240.543 -44.5456 244.197 -23.6148C245.381 -16.8397 246.867 -10.1877 248.722 -3.70592C252.622 9.92941 256.143 21.4073 258.396 34.3708C259.211 39.0547 259.854 43.9373 260.299 49.1794C261 57.5442 260.839 64.641 259.949 71.1701C258.217 83.8308 253.739 94.3246 247.501 107.714C247.094 108.594 246.677 109.483 246.251 110.392C241.632 120.242 239.701 128.711 239.729 136.981H240.515ZM236.927 136.981C237.741 132.392 238.868 127.642 240.013 123.412C241.708 117.176 243.44 112.076 244.264 110.316C245.371 107.96 246.422 105.755 247.397 103.683C257.062 83.1778 260.271 74.8793 254.175 47.8169C251.77 37.1433 249.934 27.1983 247.757 16.5626C246.848 12.1058 245.873 8.15995 244.888 4.52638C242.484 -4.35881 240.013 -11.2853 238.253 -18.8647C236.312 -27.2105 235.214 -36.3607 235.99 -49.7784C236.35 -56.0141 237.003 -67.9083 237.495 -80.4744C237.609 -83.2942 237.704 -86.1424 237.798 -88.9622H237.031C236.549 -73.5479 235.668 -57.4334 235.223 -49.8257C234.343 -34.5344 235.858 -24.7976 238.29 -15.4866C240.193 -8.23842 242.645 -1.24568 244.973 7.895C245.665 10.6296 246.346 13.563 246.999 16.7423C249.176 27.3875 251.013 37.3325 253.417 48.0156C259.324 74.2264 256.427 82.629 247.34 101.961C246.185 104.421 244.926 107.061 243.572 109.938C242.815 111.537 241.414 115.511 239.956 120.526C238.536 125.427 237.05 131.323 236.075 137H236.927V136.981ZM233.586 136.981C235.706 126.96 239.341 116.826 242.153 108.045C251.174 79.8755 256.617 66.5713 249.716 36.6228C245.636 18.9281 238.177 8.69929 235.148 -9.77132C234.485 -13.8212 233.766 -17.8806 233.15 -21.9494C232.27 -27.7783 231.617 -33.626 231.664 -39.54C231.721 -46.5044 232.62 -57.9539 233.434 -69.6115C233.898 -76.2731 234.324 -82.9914 234.551 -88.9905H233.785C233.709 -87.0981 233.624 -85.1393 233.519 -83.1239C232.696 -67.5866 230.973 -49.1349 230.897 -39.5495C230.841 -32.0364 231.91 -24.6084 233.122 -17.2182C233.538 -14.6918 233.974 -12.1653 234.381 -9.6483C237.429 8.93585 244.879 19.089 248.959 36.8026C255.822 66.5619 250.379 79.7525 241.414 107.761C238.565 116.656 234.902 126.866 232.781 136.962H233.586V136.981ZM223.069 136.981C222.17 129.771 223.627 122.778 227.423 115.246C229.099 111.915 230.774 108.253 232.421 104.449C232.857 103.446 233.292 102.424 233.728 101.402C235.735 96.6712 237.694 91.7981 239.587 87.1331C240.629 84.5594 241.651 82.0518 242.645 79.6673C244.32 75.6458 245.608 72.2109 246.545 69.0978C249.612 58.8973 248.921 52.1317 245.797 39.5373C245.551 38.5343 245.286 37.5028 245.011 36.4241C242.919 28.3243 241.206 24.3028 238.764 20.0069C237.221 17.3006 235.384 14.4903 232.98 10.4782L232.658 9.93888L232.63 9.89155C224.669 -3.44097 229.108 -15.9313 229.477 -30.5413C229.894 -46.7598 229.175 -62.07 230.386 -78.4021C230.651 -81.9032 230.793 -85.4327 230.859 -88.9811H230.093C230.017 -85.4611 229.875 -81.96 229.619 -78.4873C228.398 -62.1173 229.118 -46.8072 228.701 -30.5602C228.323 -15.7137 223.874 -3.24226 231.977 10.3363C232.213 10.7337 232.44 11.1122 232.668 11.4907L232.961 11.9827C235.403 16.0043 237.23 18.7862 238.773 21.6439C240.837 25.4478 242.399 29.403 244.264 36.6228C244.879 39.0168 245.428 41.2026 245.892 43.237C248.031 52.5764 248.466 58.6229 246.479 66.4483C245.532 70.1576 244.046 74.2737 241.944 79.3361C241.168 81.2002 240.373 83.1494 239.559 85.1366C237.675 89.7731 235.706 94.6652 233.699 99.4626C233.273 100.466 232.857 101.469 232.431 102.462C230.557 106.834 228.654 111.064 226.742 114.867C222.889 122.523 221.403 129.657 222.293 136.991H223.069V136.981ZM216.575 136.981H215.733C215.505 135.581 215.354 134.521 215.297 134.076C214.777 129.903 217.408 120.535 220.854 110.713C224.934 99.0558 230.15 86.7735 232.554 81.7963L232.601 81.7017C232.923 81.0299 233.217 80.4622 233.482 79.9606C235.195 76.6961 235.81 76.5352 237.95 73.2234C238.489 72.3907 238.972 71.4539 239.388 70.4415C243.014 61.7455 242.418 47.1072 238.972 36.5377C237.751 32.8 236.179 29.5734 234.315 27.2929C233.794 26.6589 233.321 26.0912 232.895 25.5708L232.847 25.5045C226.799 18.1901 228.976 21.2559 223.987 9.86317C222.558 6.6081 221.393 3.61797 220.475 0.779251C216.992 -9.91326 216.878 -18.5903 218.838 -31.6768C219.349 -35.0643 219.85 -38.7452 220.314 -42.5869C222.075 -57.2726 223.192 -74.5793 221.573 -88.9716H222.349C224.176 -72.5543 222.491 -52.4941 220.333 -36.6824C220.097 -34.9129 219.841 -33.1908 219.595 -31.5443C217.796 -19.6027 217.749 -11.3988 220.456 -1.89859C221.46 1.63088 222.851 5.34959 224.669 9.50359C229.468 20.4516 227.556 17.9157 232.828 24.2555L232.904 24.3406C233.472 25.0219 234.125 25.8073 234.873 26.7252C236.445 28.646 237.817 31.2009 238.944 34.1532C243.345 45.6121 244.15 63.0229 239.407 72.2488C239.152 72.7503 238.877 73.2329 238.584 73.6871C236.17 77.4247 235.763 77.0462 233.501 81.6544C233.434 81.7963 233.359 81.9383 233.292 82.0897C233.075 82.5439 232.819 83.0738 232.554 83.6604C229.809 89.6217 224.697 101.904 220.873 113.089C217.825 122.021 215.6 130.244 216.073 133.972C216.121 134.464 216.31 135.552 216.575 136.981ZM212.325 136.981H211.53C211.738 134.53 212.022 132.061 212.382 129.61C213.319 123.213 214.701 116.959 216.14 111.546C218.08 104.26 218.516 103.238 220.806 99.245C221.545 97.9581 222.482 96.359 223.722 94.1353C227.319 87.6914 230.292 82.4682 232.573 77.7843C232.866 77.1787 233.15 76.5826 233.425 75.9864C239.332 63.146 239.654 53.939 232.923 33.3299L232.838 33.0744C232.696 32.6581 232.563 32.2323 232.412 31.797C229.373 22.7226 224.82 21.5019 221.072 12.2382C220.873 11.7557 220.683 11.2542 220.485 10.7621C217.304 2.61497 214.388 -7.4341 214.123 -16.3666C214.095 -17.2655 214.095 -18.155 214.123 -19.0255C214.133 -19.4324 214.152 -19.8393 214.171 -20.2367C214.559 -30.248 215.449 -37.3448 217.143 -47.4884C218.998 -58.5878 219.822 -75.4593 218.563 -88.9716H219.33C220.589 -75.3836 219.784 -58.5595 217.91 -47.3465C216.149 -36.8338 215.269 -29.6234 214.909 -18.9972C214.616 -10.2255 217.332 0.0317459 220.494 8.5479C220.92 9.70232 221.356 10.8283 221.8 11.907C225.417 20.8301 229.79 22.1927 232.866 30.6899L232.904 30.8035C232.989 31.04 233.075 31.2766 233.15 31.5226C240.742 54.2324 240.25 63.6096 233.453 77.7559C233.169 78.3426 232.876 78.9387 232.573 79.5443C230.386 83.897 227.65 88.7323 224.394 94.5517C222.747 97.5039 221.649 99.3491 220.825 100.816C219.122 103.863 218.61 105.329 216.897 111.773C214.947 119.059 213.073 128.162 212.325 136.981ZM210.725 136.981H209.958C210.839 129.383 210.536 123.63 211.123 115.293C211.463 110.316 211.605 107.979 212.675 105.765C213.442 104.156 214.701 102.614 216.869 100.163C218.383 98.4596 219.633 96.6334 220.797 94.7409C222.435 92.082 223.902 89.2811 225.682 86.4424C228.957 81.2381 231.257 74.2075 232.639 67.281C232.885 66.0604 233.093 64.8492 233.283 63.6474C233.69 60.9885 233.964 58.4053 234.097 55.9924C234.409 50.419 234.343 47.022 233.046 43.6345C232.961 43.4168 232.876 43.1992 232.781 42.9816C231.976 41.108 230.784 39.1871 229.051 36.8689C225.956 32.7149 223.069 28.3905 220.532 23.8486C218.658 20.48 216.982 16.9884 215.572 13.3359C214.919 11.6421 214.341 9.92939 213.83 8.19777C212.997 5.33067 212.353 2.42573 211.87 -0.536003C209.513 -15.0229 211.056 -30.494 212.647 -46.0502C214.123 -60.5466 215.647 -75.1092 214.095 -88.9905H214.862C214.9 -88.6499 214.938 -88.2998 214.966 -87.9591C215.913 -78.44 215.458 -68.5896 214.616 -58.6541C213.991 -51.264 213.139 -43.836 212.476 -36.4742C211.539 -26.0466 210.981 -15.7516 211.956 -5.9012C212.334 -2.07839 212.95 1.67819 213.858 5.34014C214.502 7.9423 215.297 10.5066 216.272 13.0142C217.683 16.6572 219.074 19.6284 220.523 22.2684C223.722 28.1161 227.187 32.4026 231.749 39.102C232.128 39.6603 232.478 40.2659 232.781 40.9093C232.857 41.0702 232.933 41.2405 233.008 41.4014C235.877 47.9399 235.365 58.2066 233.321 67.7068C233.103 68.7288 232.866 69.7413 232.611 70.7348C230.954 77.2828 228.626 83.1968 226.287 86.9155C224.262 90.1327 222.681 93.2458 220.797 96.1792C219.794 97.7405 218.705 99.245 217.418 100.702C214.398 104.109 213.224 105.651 212.637 108.178C212.249 109.852 212.117 111.962 211.889 115.322C211.303 123.753 211.596 129.392 210.725 136.981ZM206.409 136.981H205.632C205.689 136.565 205.736 136.158 205.793 135.779C206.503 130.632 207.09 128.389 207.137 121.605C207.166 117.687 207.109 106.285 210.129 101.667C210.687 100.806 211.359 100.182 212.154 99.879C212.353 99.8033 212.543 99.7181 212.741 99.633C215.723 98.2325 218.44 94.7504 220.769 90.3125C226.117 80.1593 229.487 64.9817 229.553 58.1971C229.648 47.5614 226.306 39.0452 220.56 31.3334C219.15 29.4409 217.588 27.5862 215.903 25.7695C214.938 24.7191 214.218 23.9243 213.65 23.1957C212.656 21.9183 212.136 20.8869 211.539 19.1742C211.217 18.2658 210.877 17.1587 210.432 15.7299C207.838 7.41241 208.52 0.325066 207.544 -8.4655C207.308 -10.604 207.09 -12.6006 206.882 -14.4741C205.15 -30.3331 204.629 -37.8084 206.569 -56.0046C206.778 -57.9633 207.005 -59.922 207.223 -61.8902C208.264 -70.889 209.4 -79.935 209.769 -88.9716H210.488C209.977 -77.7208 208.538 -67.3311 207.327 -55.91C207.27 -55.3801 207.213 -54.8691 207.166 -54.3581C205.708 -40.0699 205.859 -32.5379 206.929 -21.4195C207.289 -17.6724 207.762 -13.5184 208.302 -8.55066C209.258 0.154747 208.595 7.27993 211.151 15.4838C211.303 15.9664 211.445 16.4112 211.568 16.8275C212.353 19.3445 212.798 20.603 213.66 21.8993C214.275 22.8267 215.108 23.7729 216.443 25.2112C217.91 26.7914 219.282 28.4 220.551 30.0465C226.78 38.1274 230.424 47.022 230.32 58.2255C230.254 65.5873 226.619 81.6544 220.778 91.9116C218.421 96.0467 215.714 99.245 212.732 100.541C212.59 100.598 212.457 100.664 212.315 100.712C211.397 101.052 210.678 102.017 210.1 103.361C207.98 108.319 207.933 118.473 207.904 121.633C207.857 128.919 207.185 130.963 206.409 136.981ZM203.749 136.981C205.547 122.267 206.456 105.509 203.465 102.481C198.769 97.731 194.566 96.5861 191.414 92.5835C189.805 90.5396 188.461 87.7482 187.457 83.3482C185.602 75.1727 185.242 65.6535 187.154 56.9291C188.612 50.296 191.376 44.1265 195.797 39.3669C200.7 34.0869 201.373 33.0934 203.332 25.4383C205.964 15.181 207.412 0.665718 204.515 -9.52528C200.852 -22.4225 201.931 -23.3877 201.988 -36.1714C202.026 -44.4983 200.975 -50.9611 195.712 -57.5091C191.471 -62.7892 193.175 -59.5341 190.108 -66.6593C187.202 -73.4249 183.927 -81.2503 181.106 -88.9622H180.282C183.131 -81.1273 186.463 -73.141 189.398 -66.3186C192.427 -59.2597 190.913 -62.212 195.115 -56.9698C201.098 -49.5229 201.363 -42.3031 201.145 -33.0299C200.871 -21.6372 200.653 -20.284 203.796 -9.20357C206.626 0.779266 205.159 15.1905 202.584 25.2301C200.644 32.7811 200.047 33.6233 195.239 38.7992C191.168 43.1898 188.461 48.7347 186.88 54.7339C184.4 64.1111 184.665 74.6049 186.7 83.5564C187.902 88.8364 189.568 91.8549 191.575 94.0312C194.68 97.3809 198.618 98.7056 202.963 103.125C205.623 105.84 204.676 122.418 202.916 136.991H203.749V136.981ZM197.652 136.981C197.908 134.843 198.22 132.572 198.59 129.988C198.93 127.575 201.694 110.032 201.335 108.953C200.095 105.254 195.769 102.879 192.313 100.078C190.761 98.8192 189.379 97.4756 188.546 95.8953C186.397 91.8265 184.618 83.6604 183.595 75.731C183.254 73.0909 182.999 70.4698 182.847 68.038C182.601 64.2625 182.601 60.9223 182.895 58.6324C183.482 54.0242 184.551 50.5515 186.047 47.5424C188.499 42.6031 192.105 38.9411 196.592 33.5949C200.558 28.8731 201.969 19.0606 202.783 12.8817C204.856 -2.87322 199.12 -10.992 198.949 -26.851C198.798 -40.3822 199.527 -45.596 192.597 -57.793C184.561 -71.9298 179.619 -75.8662 174.849 -88.9811H174.025C178.843 -75.5728 183.813 -71.6744 191.944 -57.3672C198.788 -45.3216 198.041 -40.2119 198.192 -26.851C198.41 -7.67067 205.083 -3.52613 201.287 17.4047C199.915 24.9746 199.621 29.0245 194.68 34.5789C190.856 38.8654 187.987 42.6599 185.933 46.4164C183.728 50.4758 182.469 54.4973 181.995 59.0866C181.503 63.9502 181.891 69.4384 182.97 76.2703C183.472 79.4497 183.927 83.0927 184.693 86.66C185.895 92.2807 187.855 97.7027 191.982 100.806L192.484 101.185C197.387 104.856 196.232 103.721 200.748 109.427C199.886 116.268 198.836 123.043 197.87 129.865C197.491 132.496 197.179 134.805 196.924 136.981H197.652ZM194.377 136.981H193.572C194.424 133.953 195.144 131.029 195.674 128.247C196.232 125.371 196.592 122.646 196.715 120.147C197.094 112.521 196.374 110.997 193.298 108.376C192.484 107.685 191.509 106.919 190.354 105.944C180.831 97.9581 177.092 81.2002 176.306 68.7855C175.53 56.5033 180.017 48.4225 185.261 41.0702C189.729 34.8061 194.756 29.0813 197.529 21.7669C201.041 12.5126 197.917 0.419678 190.96 -6.204C186.728 -10.2255 183.103 -10.3107 179.127 -10.235C177.338 -10.1971 175.473 -10.1309 173.448 -10.3769C171.062 -10.6702 166.045 -14.512 162.334 -17.8995C160.63 -19.4514 159.201 -20.9086 158.425 -21.8832C150.795 -31.4686 156.323 -44.6497 160.753 -54.519L160.924 -54.8975C164.436 -62.704 168.894 -65.9212 172.198 -68.2016C176.647 -71.2769 179.033 -72.6679 174.299 -81.2787C172.813 -83.9755 171.573 -86.5019 170.475 -88.9905H171.356C172.425 -86.5587 173.608 -84.1458 174.943 -81.7234C180.14 -72.2799 177.215 -70.8133 172.302 -67.3122C169.017 -64.9655 164.843 -61.7199 161.615 -54.5569C161.35 -53.9797 161.085 -53.3835 160.82 -52.7779C156.598 -43.2682 151.978 -31.232 159.002 -22.4131C159.646 -21.5993 160.839 -20.3787 162.278 -19.0445C165.931 -15.6475 171.232 -11.4746 173.514 -11.2001C175.483 -10.9636 177.291 -11.0014 179.023 -11.0298C183.217 -11.1055 186.965 -11.0961 191.462 -6.81905C198.656 0.031723 201.865 12.4937 198.23 22.0697C195.333 29.7153 189.985 35.6293 185.384 42.2056C180.424 49.293 176.325 57.1373 177.054 68.7193C177.821 80.8501 181.494 97.4755 190.799 105.282C191.679 106.02 192.465 106.654 193.147 107.222C196.961 110.392 197.88 111.764 197.463 120.185C197.302 123.365 196.772 126.894 195.939 130.651C195.513 132.704 194.983 134.824 194.377 136.981ZM191.433 136.981H190.629C193.09 127.235 193.677 117.46 189.246 112.303C184.069 106.266 182.298 101.913 179.477 94.5422C172.558 76.4785 168.932 61.9726 178.995 44.4009C183.33 36.831 196.923 10.6864 189.786 3.19218C186.643 -0.110191 175.549 -4.39668 170.949 -6.97046C161.463 -12.2789 155.585 -17.786 152.48 -23.6053C151.988 -24.5327 151.562 -25.46 151.212 -26.3968C150.057 -29.4247 149.602 -32.5473 149.725 -35.774C149.811 -37.8557 150.132 -39.9753 150.663 -42.1422C152.736 -50.5448 157.98 -59.6571 164.682 -69.7535C169.926 -77.6546 168.677 -79.1307 165.411 -88.0632L165.079 -88.9716H165.903L166.13 -88.3566C169.481 -79.2064 170.75 -77.4653 165.307 -69.2709C158.027 -58.304 152.461 -48.5577 150.909 -39.6441C150.076 -34.8467 150.407 -30.2953 152.253 -25.9236C154.96 -19.527 160.933 -13.509 171.308 -7.69905C176.098 -5.02119 187.012 -0.867195 190.335 2.62444C197.861 10.5255 184.211 36.8783 179.648 44.8457C169.727 62.1618 173.372 76.4406 180.187 94.2394C182.97 101.516 184.712 105.802 189.814 111.754C194.424 117.11 193.904 127.064 191.433 136.981ZM187.628 136.981H186.823C187.779 132.259 187.94 127.339 186.908 122.125C183.501 104.875 177.509 107.95 172.662 94.9112C165.922 76.7907 166.916 64.7829 172.899 47.268C175.767 38.8749 186.388 16.8086 183.51 9.48467C178.995 -2.00268 170.911 -4.1412 161.284 -8.54121C158.112 -9.98897 155.538 -11.5786 153.484 -13.3292C149.744 -16.518 147.709 -20.2651 146.838 -24.7598C146.507 -26.4914 146.346 -28.3365 146.327 -30.3047C146.299 -33.4179 146.64 -36.8432 147.207 -40.6187C147.946 -45.4919 148.76 -49.0024 149.697 -51.8885C151.903 -58.7014 154.78 -62.0038 158.974 -71.4283C161.492 -77.0963 161.643 -77.5884 159.665 -82.1776C159.192 -83.2847 158.321 -85.7449 157.213 -88.9905H158.037C159.05 -85.9815 159.864 -83.6632 160.365 -82.5183C162.457 -77.6641 162.259 -76.9071 159.665 -71.0688C155.14 -60.8967 152.149 -57.9066 149.886 -49.854C149.176 -47.3465 148.542 -44.3469 147.955 -40.4863C146.176 -28.8097 146.677 -20.6342 153.351 -14.512C155.443 -12.5911 158.141 -10.869 161.558 -9.30767C171.403 -4.80357 179.572 -2.60827 184.201 9.16296C187.249 16.9221 176.59 38.8087 173.599 47.5424C167.673 64.8681 166.689 76.6677 173.353 94.599C178.133 107.458 184.182 104.468 187.637 121.945C188.707 127.263 188.565 132.231 187.628 136.981ZM184.106 136.981H183.321C184.731 129.913 184.286 123.384 180.178 119.315C166.812 106.067 163.224 79.989 164.246 61.2818C165.24 43.1613 170.078 42.887 173.665 28.3906C175.435 21.237 177.234 10.9513 171.308 5.51045C164.36 -0.886131 165.269 -0.791504 156.645 -4.53861C153.313 -5.98636 150.549 -7.57604 148.258 -9.29819C146.658 -10.5094 145.295 -11.7868 144.15 -13.1305C137.959 -20.3787 137.959 -29.6045 140.259 -40.6755C140.894 -43.7413 141.708 -46.9396 142.607 -50.2799C143.147 -52.2575 143.591 -53.8756 144.017 -55.276C145.665 -60.679 146.971 -62.7324 151.382 -68.8546C156.636 -76.1311 156.096 -80.446 153.692 -88.9716H154.496C156.92 -80.323 157.374 -75.8094 151.978 -68.3341C147.16 -61.6537 146.128 -59.9315 144.207 -53.1848C143.942 -52.248 143.658 -51.2072 143.345 -50.0433C142.228 -45.9272 141.253 -42.0381 140.581 -38.3572C138.858 -28.9989 139.086 -21.0789 143.923 -14.6634C145.059 -13.1494 146.46 -11.7206 148.145 -10.3769C150.473 -8.52226 153.36 -6.81906 156.891 -5.28615C165.581 -1.51065 164.748 -1.55796 171.725 4.85754C177.404 10.0808 176.448 18.7011 175 25.8736C171.914 41.1743 165.988 43.0478 164.985 61.3386C163.991 79.5064 167.683 105.859 180.623 118.681C184.987 122.958 185.517 129.714 184.106 136.981ZM179.051 136.981H178.285C178.711 132.59 178.266 128.389 175.426 124.358C169.737 116.277 169.481 116.978 167.73 106.966C166.963 102.585 163.253 106.323 166.651 116.561C170.276 127.5 170.986 131.569 170.702 136.972H169.936C170.22 131.673 169.519 127.651 165.941 116.873C161.814 104.43 167.56 101.525 168.497 106.862C170.22 116.694 170.447 115.908 176.041 123.857C179.014 128.077 179.487 132.43 179.051 136.981ZM177.064 136.981H176.297C176.751 133.414 176.723 129.43 174.943 127.206C173.542 125.446 173.126 133.243 173.003 136.981H172.226C172.349 132.799 172.927 123.421 175.53 126.677C177.452 129.08 177.518 133.234 177.064 136.981ZM167.938 136.981C167.2 130.036 165.78 123.261 164.019 117.356C159.854 103.427 158.813 96.8037 159.513 82.014C160.365 64.007 167.247 33.2353 163.981 17.3763C161.558 5.59563 156.683 3.52335 148.987 -1.50119C148.23 -1.99323 147.444 -2.51365 146.639 -3.08139C144.103 -4.8414 141.992 -6.71497 140.259 -8.71153C139.89 -9.13734 139.54 -9.56313 139.199 -9.99841C132.204 -19.0539 132.44 -30.3142 135.659 -43.202C135.697 -43.3628 135.744 -43.5237 135.782 -43.6846C135.886 -44.0725 135.981 -44.4605 136.085 -44.8484C138.111 -52.3616 140.676 -58.0863 143.194 -64.5302C143.904 -66.3375 144.604 -68.2016 145.286 -70.1793C146.819 -74.5982 147.529 -82.0262 146.772 -88.9716H145.986C146.725 -82.1303 146.053 -74.7591 144.585 -70.5105C144.093 -69.0722 143.572 -67.6717 143.033 -66.2997C140.752 -60.3762 138.224 -54.8123 136.227 -48.1319C136.104 -47.7155 135.981 -47.2897 135.858 -46.8734C135.763 -46.5327 135.659 -46.1921 135.564 -45.8515C133.803 -39.54 132.668 -33.4273 132.724 -27.6742C132.753 -25.318 132.98 -23.0281 133.444 -20.8045C134.371 -16.4234 136.236 -12.3262 139.341 -8.59799C139.682 -8.19111 140.042 -7.78423 140.411 -7.3868C142.048 -5.6268 143.97 -3.96142 146.242 -2.39066C147.236 -1.6999 148.182 -1.07536 149.082 -0.479233C157.327 4.93326 161.994 7.24209 163.716 20.4894C165.931 37.5312 158.955 66.5903 158.605 86.1869C158.368 99.4437 159.58 105.178 163.29 117.593C165.051 123.488 166.452 130.149 167.19 136.972H167.938V136.981ZM160.668 136.981C159.523 130.272 157.81 122.674 156.02 111.489C153.928 98.3839 156.352 64.6315 160.025 51.9519C162.173 44.5523 160.829 39.5183 159.031 32.1282C156.38 21.2275 151.297 4.6967 141.452 -1.00912C141.339 -1.07536 141.234 -1.14161 141.121 -1.19839C140.742 -1.42548 140.373 -1.65257 140.023 -1.88912C137.931 -3.25171 136.284 -4.7184 134.958 -6.37432C132.279 -9.71455 130.907 -13.7928 129.856 -19.281C128.001 -28.9327 128.332 -39.1426 130.49 -48.8227C131.38 -52.8158 132.582 -56.7237 134.069 -60.4614C134.125 -60.5939 134.173 -60.7263 134.229 -60.8588C134.608 -61.8051 135.015 -62.7324 135.432 -63.6597C140.903 -75.7148 142.938 -81.449 142.332 -89H141.566C142.172 -81.572 140.165 -75.9514 134.741 -64.0193C134.504 -63.4988 134.277 -62.9784 134.05 -62.4485L133.908 -62.1079C132.431 -58.5878 131.2 -54.9164 130.254 -51.1504C127.622 -40.7323 127.092 -29.614 129.108 -19.1296C130.292 -12.9791 131.863 -8.57905 135.11 -5.00226C136.463 -3.51666 138.101 -2.16354 140.127 -0.895584C140.458 -0.687408 140.808 -0.479233 141.168 -0.271057C141.196 -0.252136 141.215 -0.242683 141.244 -0.223763C150.71 5.33067 155.736 21.8047 158.292 32.308C160.053 39.5656 161.388 44.4483 159.296 51.687C155.585 64.4896 153.152 98.3745 155.273 111.612C157.052 122.721 158.747 130.282 159.892 136.943H160.668V136.981ZM158.624 136.981C158.245 133.433 157.497 129.865 155.85 123.951C155.689 123.384 155.538 122.797 155.386 122.201C153.323 113.969 152.111 103.229 151.997 92.8295C151.903 84.4553 152.518 76.3082 153.957 69.8926C156.446 58.8406 159.589 45.1106 155.765 33.9828L152.206 25.7316C147.406 12.2098 150.956 16.941 142.266 8.62359C141.632 8.018 140.941 7.34615 140.174 6.59863C138.688 5.14142 137.23 3.67477 135.867 2.16078C131.096 -3.10031 127.357 -8.8913 126.884 -16.7262C126.439 -23.9838 126.306 -40.4484 127.565 -47.602C128.209 -51.2639 128.938 -54.2162 129.676 -56.7048C131.02 -61.2184 132.412 -64.2274 133.501 -67.2838C135.252 -72.2232 136.189 -77.2761 134.76 -88.9811H133.983C135.261 -78.6387 134.674 -73.5195 133.302 -69.0722C132.308 -65.8266 130.888 -62.9405 129.477 -58.6352C128.55 -55.7964 127.622 -52.3427 126.808 -47.7629C125.53 -40.543 125.663 -24.069 126.117 -16.7356C126.638 -8.23841 130.765 -2.15408 136.009 3.47604C137.183 4.73454 138.404 5.96465 139.663 7.19476C140.714 8.22617 141.622 9.0967 142.418 9.85369C150.151 17.1871 146.848 12.9479 151.486 25.9965L155.045 34.2572C158.803 45.1863 155.67 58.8122 153.218 69.675C152.111 74.5765 151.486 80.4621 151.287 86.6884C150.871 99.6708 152.31 114.129 155.121 124.197C155.452 125.371 155.736 126.449 156.001 127.452C157.024 131.408 157.563 134.199 157.857 136.972H158.624V136.981ZM151.931 136.981C151.505 135.089 150.956 133.168 150.237 131.2C149.792 129.988 149.404 128.777 149.053 127.585C146.829 119.977 146.374 112.701 146.687 105.074C146.838 101.374 147.17 97.5891 147.567 93.6338C148.987 79.5159 154.847 52.7657 153.086 40.2848C151.278 27.4821 144.292 20.5746 137.05 13.4778C133.415 9.91048 129.714 6.29585 126.571 1.85798C118.459 -9.61045 122.349 -44.6497 125.275 -58.5405C126.25 -63.1771 127.442 -66.0631 128.342 -69.3182C129.014 -71.75 129.515 -74.39 129.638 -78.1277C129.686 -79.5849 129.421 -84.0417 128.9 -88.9905H128.105C128.635 -84.089 128.919 -79.6417 128.872 -78.1372C128.786 -75.5161 128.502 -73.4343 128.105 -71.5797C127.206 -67.3595 125.7 -64.2937 124.527 -58.7203C121.535 -44.4794 117.654 -9.37389 125.984 2.38787C129.317 7.09068 133.311 10.8946 137.183 14.6985C144.093 21.4925 150.625 28.3148 152.329 40.4078C154.061 52.6994 148.211 79.5821 146.8 93.5392C146.564 95.8669 146.356 98.1284 146.195 100.352C145.399 111.007 145.665 120.677 149.441 131.247C149.479 131.341 149.508 131.436 149.546 131.531C150.208 133.366 150.738 135.164 151.145 136.953H151.931V136.981ZM147.435 136.981C144.86 125.655 140.401 117.791 143.847 104.09C145.731 96.605 144.188 87.3035 146.204 78.3426C147.615 72.0595 149.262 70.0062 146.119 63.1838C142.474 55.2827 137.874 55.595 134.977 63.7516C133.084 69.1073 131.825 73.3464 129.515 78.617C124.867 89.2243 125.814 90.5112 126.505 102.226C127.537 119.788 128.275 117.441 123.627 134.294C123.372 135.231 123.145 136.129 122.946 136.981H123.741C123.921 136.196 124.129 135.382 124.366 134.53C129.033 117.574 128.304 119.816 127.272 102.178C126.59 90.5964 125.625 89.4325 130.206 78.9765C132.526 73.6871 133.794 69.41 135.697 64.0259C138.281 56.7115 142.02 56.21 145.409 63.5623C148.448 70.1671 146.81 72.0785 145.437 78.1722C143.43 87.1048 144.936 96.5482 143.109 103.825C139.568 117.952 144.046 125.579 146.649 137H147.435V136.981ZM136.946 136.981C135.233 129.118 135.044 121.964 135.271 112.54C135.536 101.611 139.568 91.2682 140.676 80.4243C141.67 70.6212 137.325 78.986 136.539 82.1749C133.633 93.9555 132.043 101.592 131.295 113.713C130.983 118.861 129.979 129.78 130.14 136.981H130.926C130.755 128.891 131.995 115.274 132.327 109.559C132.592 104.998 136.321 78.9955 140.061 76.7245C140.43 77.6329 139.909 80.3202 139.909 80.3202C138.783 91.1925 134.769 101.563 134.504 112.521C134.277 121.964 134.457 129.127 136.151 136.981H136.946ZM116.594 136.981C116.32 128.824 117.938 120.952 119.869 112.388C120.958 107.553 122.151 102.491 123.154 97.0403C125.274 85.534 128.095 66.9688 133.955 57.3644C139.341 48.536 146.8 41.0134 146.166 29.5166C146.109 28.5325 137.069 21.4357 135.82 20.603C129.061 16.1178 127.253 14.3862 123.618 6.42831C116.083 -10.0647 115.979 -41.9529 116.755 -60.433C117.162 -70.0468 120.172 -78.3832 120.778 -88.9716H120.011C119.406 -78.421 116.395 -70.0847 115.988 -60.4425C115.203 -41.8015 115.335 -9.85649 122.927 6.77841C126.685 15.0012 128.54 16.7234 135.507 21.36C139.379 23.9337 141.992 26.64 145.399 29.6585C144.756 43.5683 140.08 45.8392 133.321 56.9291C127.385 66.666 124.555 85.2501 122.406 96.8983C121.583 101.355 120.646 105.547 119.737 109.568C117.541 119.258 115.534 127.944 115.827 137H116.594V136.981ZM114.351 136.981C114.474 123.999 115.203 111.811 119.235 98.7341C122.596 87.8334 125.691 62.8526 129.26 55.6044C131.749 50.5515 135.943 48.7915 139.218 40.9377C148.485 18.6632 128.985 33.803 121.422 12.5505C119.282 6.54185 115.685 -11.3894 113.518 -24.438C112.675 -29.5288 112.041 -33.8721 111.804 -36.4837C110.413 -51.6803 112.06 -66.8201 113.404 -81.9221C113.612 -84.2783 113.821 -86.6249 114 -88.9811H113.158C112.372 -77.2098 110.943 -65.4954 110.593 -53.5728C110.271 -42.8046 111.53 -30.8536 113.537 -19.1202C115.136 -9.73347 117.209 -0.488693 119.32 7.92339C126.335 35.8375 145.153 19.7703 139.947 36.7175C136.312 48.5455 132.033 48.2143 128.569 55.2732C124.924 62.6917 121.914 87.4548 118.525 98.4785C115.411 108.584 114.256 118.132 113.821 127.916C113.688 130.916 113.622 133.934 113.593 136.991H114.351V136.981ZM109.428 136.981H108.652C108.661 136.801 108.68 136.612 108.69 136.423C108.87 134.123 109.362 130.159 110.072 125.115C113.735 99.3586 123.41 45.2147 128.805 38.4869C134.523 31.3523 117.976 29.9424 115.401 15.2094C113.906 6.66486 111.634 -1.18893 109.532 -9.36444C109.078 -11.1245 108.633 -12.9034 108.207 -14.7107C107.062 -19.546 106.399 -24.2109 106.049 -28.8191C105.49 -36.162 105.746 -43.3628 106.134 -50.9706C106.229 -52.8063 106.333 -54.6609 106.427 -56.544C106.816 -63.7354 108.056 -77.3896 108.69 -88.9716H109.457C109.381 -87.6658 109.305 -86.3316 109.22 -84.9879C108.557 -74.3806 107.535 -62.9216 107.194 -56.4967C106.418 -41.9813 105.566 -29.226 108.945 -14.9189C109.135 -14.1335 109.315 -13.3576 109.513 -12.5816C111.814 -3.26118 114.474 5.4726 116.159 15.1148C118.648 29.3652 135.782 31.0306 129.383 39.0168C123.864 45.9054 112.969 108.452 110.091 130.736C109.778 133.187 109.551 135.155 109.447 136.498C109.457 136.659 109.438 136.82 109.428 136.981ZM106.2 136.981H105.424L105.443 136.593C106.058 124.954 107.649 113.032 111.236 102.396C116.869 85.7138 114.455 64.0449 121.1 46.6814C124.858 36.8594 116.963 32.3553 112.827 23.1768C109.116 14.9539 107.213 4.41281 105.973 -5.57948C105.424 -10.0552 105.008 -14.4268 104.619 -18.4294C102.707 -38.5086 97.9743 -47.3087 99.6308 -69.6872C100.114 -76.1784 101.108 -82.5656 102.158 -88.9811H102.934C101.884 -82.5466 100.88 -76.1311 100.398 -69.621C98.7505 -47.3749 103.474 -38.5275 105.386 -18.5146C105.576 -16.518 105.774 -14.4268 105.992 -12.2788C107.185 -0.61171 109.012 12.8533 113.508 22.8172C117.768 32.2607 125.767 36.6418 121.791 47.041C115.221 64.2247 117.597 85.9598 111.946 102.727C108.387 113.268 106.797 125.323 106.2 136.981ZM100.88 136.981H100.095C102.367 127.717 105.5 119.362 106.191 107.903C106.948 95.4033 106.986 86.8398 108.964 74.1223C110.015 67.3567 113.338 54.6866 112.382 48.659C111.179 41.0891 106.162 33.0744 104.799 25.2206C104.127 21.3127 104.818 10.4498 98.9493 16.0043C94.1499 20.5462 94.1973 35.2413 93.9133 41.6095C93.6293 47.9966 92.73 78.9766 93.705 84.0957C94.9546 90.6059 97.9269 95.7628 98.8167 103.598C99.8864 112.975 97.9742 116.249 96.9708 124.879C96.1757 131.71 96.6585 132.297 95.106 136.991H94.2919C95.9201 132.117 95.4089 131.654 96.2041 124.793C97.0276 117.678 98.6558 114.186 98.2866 106.55C97.8133 96.7469 94.5002 92.3848 92.9477 84.2755C91.9443 78.986 92.8436 48.0913 93.1371 41.5717C93.44 34.8723 93.3737 20.1677 98.4286 15.3892C105.292 8.90746 104.913 21.3505 105.547 25.0409C106.891 32.8663 111.918 40.862 113.129 48.5171C114.123 54.7528 110.791 67.3283 109.712 74.2643C107.734 86.9533 107.705 95.4979 106.948 107.969C106.276 119.447 103.162 127.765 100.88 136.981ZM99.8864 136.981C105.273 119.627 105.699 85.1744 104.875 71.1985C104.657 67.4513 104.127 65.0384 104.108 61.2724C104.108 61.0548 105.964 14.0739 99.8675 37.0392C92.9477 63.1176 102.755 85.7327 100.842 112.994C100.047 124.339 98.6179 128.787 96.0337 136.972H96.8478C99.4036 128.881 100.814 124.358 101.609 113.051C103.133 91.3533 97.5577 74.2737 98.031 54.3554C98.1162 50.788 100.218 33.3489 102.65 31.6929C102.849 31.92 103.01 32.7622 103.029 32.8663C104.657 41.108 102.745 57.3739 103.824 67.5081C105.263 81.1434 104.553 119.296 99.0628 136.972H99.8864V136.981ZM90.5717 136.981C91.3006 133.404 91.897 129.383 92.4082 124.491C94.3771 105.727 92.1337 104.241 87.5331 87.2845C86.9273 85.0419 86.7948 82.4966 86.9273 79.8376C86.9746 78.8346 87.0598 77.8127 87.1639 76.7907C87.6656 71.8987 88.688 66.8457 88.8868 62.6633C88.972 60.875 88.8868 58.9635 88.6785 56.9859C87.2302 42.991 80.0076 24.8989 88.2525 13.0615C89.7198 10.9513 91.1586 8.87907 92.5218 6.8068C100.123 -4.7468 105.254 -16.0449 99.2522 -31.1469C97.9364 -34.4587 96.9235 -37.6949 96.1662 -40.8553C92.0579 -58.0106 95.4752 -73.141 98.6653 -88.9811H97.8985C94.5664 -72.4313 90.9693 -56.6859 95.9769 -38.4613C96.6584 -35.9632 97.5104 -33.4273 98.5327 -30.8252C104.203 -16.5464 99.6592 -5.73087 92.6353 5.18874C91.0734 7.62057 89.379 10.0524 87.6562 12.5316C77.8966 26.5454 88.811 47.9872 88.1105 62.5688C87.7698 69.7034 85.176 78.7684 86.4445 85.9787C86.5392 86.5086 86.6528 87.029 86.7853 87.54C91.348 104.393 93.5914 105.774 91.6225 124.415C91.1018 129.354 90.5055 133.395 89.7576 136.991H90.5717V136.981ZM84.5134 136.981H83.6615C86.028 132.136 87.1734 127.178 85.0341 115.662C82.4119 101.563 81.9008 100.579 83.1219 85.8841C84.5324 68.918 81.0299 63.9786 79.733 48.6306C78.9568 39.5089 79.733 35.2792 77.6884 25.5234C76.0602 17.7643 65.0606 18.7673 57.3362 15.7677C54.4964 14.6701 52.1015 13.0236 50.7762 10.2038C50.3692 9.33328 50.0662 8.35863 49.8769 7.25153C49.2805 3.67474 49.025 0.523781 49.0534 -2.28655C49.1196 -8.80615 50.691 -13.4711 52.8966 -17.3696C57.3173 -25.1666 64.3033 -29.8789 66.9254 -40.1362C68.9133 -47.9237 68.014 -49.5039 64.6157 -56.0708C61.0659 -62.9311 59.1159 -66.3849 54.4301 -72.1475C51.0886 -76.2541 48.8357 -82.3763 46.933 -88.9716H47.7376C49.6213 -82.5277 51.8364 -76.5948 55.017 -72.6774C59.7312 -66.8769 61.7285 -63.3569 65.2878 -56.4683C68.7334 -49.8067 69.6706 -47.7818 67.6637 -39.9185C64.8807 -29.0368 57.412 -24.3907 53.067 -16.0544C50.284 -10.7176 48.7883 -3.85732 50.6247 7.11907C51.3252 11.2825 53.8906 13.4778 57.2037 14.8593C64.8997 18.0481 76.6282 16.7991 78.4362 25.3815C80.4903 35.1656 79.7236 39.4332 80.4903 48.5644C81.7967 63.9786 85.3086 68.8707 83.8887 85.9598C82.6675 100.57 83.1882 101.469 85.7913 115.501C87.9401 127.083 86.8326 132.136 84.5134 136.981ZM78.7864 136.981H77.9818C80.9636 127.244 82.0617 115.956 82.0522 107.667C82.0428 102.803 79.4396 99.3586 78.4646 93.9271C76.4672 82.9224 76.9784 66.9688 75.7857 54.9042C74.8485 45.4418 75.5396 44.0035 75.7857 35.1751C76.2495 18.0576 61.2552 24.2271 51.6471 16.4774C50.5301 15.569 49.4794 14.4808 48.5327 13.1371C43.3548 5.74701 44.8599 -7.30164 47.1412 -16.1774C47.3116 -16.8492 47.4915 -17.4926 47.6713 -18.1077C51.666 -31.9039 71.3555 -32.7555 58.8697 -55.0678C53.3036 -65.0223 47.7092 -76.7083 42.9004 -88.9905H43.7145C46.791 -81.0043 50.1136 -73.4438 53.3794 -66.8201C55.869 -61.7672 59.4756 -56.2696 61.6054 -51.6424C68.2601 -37.165 58.9076 -32.8028 51.5335 -23.6527C49.7917 -21.4952 48.3907 -18.0793 47.4252 -14.1808C45.3237 -5.7498 45.2007 5.00896 47.908 10.5161C48.8924 12.5316 50.1136 14.0834 51.4956 15.3135C60.7724 23.6026 77.0541 16.9694 76.5619 35.2224C76.3252 44.013 75.6247 45.3945 76.5619 54.819C77.7546 66.8457 77.2434 82.8372 79.2313 93.7947C80.2253 99.2734 82.8285 102.595 82.8285 107.657C82.8285 116.031 81.7399 127.225 78.7864 136.981ZM68.9606 136.981C71.5259 128.758 72.9553 120.677 70.674 111.612C66.206 93.8798 71.4786 83.2252 72.5483 65.89C73.173 55.7653 72.0276 54.8001 71.1378 46.3596C69.7084 32.8663 65.3729 33.0177 53.758 29.4693C51.5808 28.8069 49.6592 27.9837 47.9742 26.9901C44.3393 24.8327 41.8497 21.871 40.4581 17.9441C39.4926 15.2189 39.0477 12.0301 39.1139 8.33026C39.1139 8.08424 39.1234 7.83822 39.1329 7.59219C39.3506 1.44164 40.8084 -4.69949 43.0045 -10.6703C46.8762 -21.183 53.0481 -31.1374 58.7656 -39.559C59.8731 -41.1865 44.5759 -74.2292 42.8152 -77.7492C40.8841 -81.6099 39.3885 -85.3286 38.0821 -88.9811H37.2586C38.6028 -85.2056 40.1458 -81.3449 42.1715 -77.3139C46.0905 -69.4696 55.9636 -48.0467 58.1124 -39.9848C53.4646 -33.5409 47.1033 -22.9808 42.8436 -11.9004C40.8462 -6.7055 39.3128 -1.38762 38.6312 3.66531C37.7982 9.90102 38.262 15.7488 40.78 20.4894C42.3514 23.4606 44.7274 25.9966 48.0973 27.9269C49.6876 28.8447 51.5051 29.6301 53.5592 30.2546C64.8428 33.6989 68.989 33.3772 70.3616 46.3786C71.2514 54.819 72.3968 55.7464 71.772 65.8238C70.6834 83.3766 65.3919 93.823 69.9356 111.849C72.1791 120.781 70.7118 128.824 68.1465 136.962H68.9606V136.981ZM64.5589 136.981C66.0166 130.49 66.8118 123.781 66.9159 118.246C67.1336 106.796 63.4135 104.061 61.3783 93.3783C58.2923 77.1692 61.7664 69.183 62.2586 53.939C62.7508 38.6289 56.0678 34.3897 44.3771 29.157C43.3926 28.7123 42.5028 28.154 41.7077 27.5105C34.3336 21.4924 34.7028 7.07176 37.3817 -6.36485C39.3506 -16.2341 42.5596 -25.5735 44.8599 -30.6454C49.7065 -41.319 57.109 -46.722 45.9106 -57.7741C39.1613 -64.4261 37.7982 -65.4481 34.3241 -74.6455C32.5634 -79.3105 31.1814 -84.1079 30.0454 -88.9716H29.2503C30.4051 -84.0133 31.8061 -79.1212 33.6141 -74.3427C37.1261 -65.0412 38.5555 -63.9152 45.3995 -57.1685C56.2098 -46.5044 48.9114 -41.4325 44.1688 -30.986C41.9727 -26.1507 39.0666 -17.8049 37.0882 -8.75883C33.8792 5.8795 33.1314 22.3252 41.8686 28.6271C42.5596 29.1286 43.3169 29.5639 44.131 29.9329C58.4343 36.339 62.7887 40.9377 61.17 58.5283C59.8353 73.0341 57.8095 82.3641 61.4067 97.0687C62.5331 101.667 63.9246 104.27 65.1174 108.196C67.181 115 66.1681 126.658 63.7448 136.991H64.5589V136.981ZM59.9773 136.981C61.0185 132.43 61.88 127.585 62.3438 122.977C63.2147 114.356 62.6751 106.531 59.343 102.879C56.3991 99.6519 56.8251 89.5366 57.2889 78.3047C57.961 62.0862 58.7372 43.5777 49.4983 39.2818C36.454 33.2258 31.6263 23.5552 30.9826 12.5126C30.3389 1.3943 33.936 -11.1623 37.7224 -22.8673C38.972 -26.7279 40.354 -29.9357 41.5657 -32.765C45.6172 -42.1895 47.908 -47.5168 37.9875 -58.0863C35.6872 -60.5371 32.7149 -67.1135 30.1022 -74.1913C28.209 -79.32 26.524 -84.7041 25.426 -88.9716H24.6497C25.7573 -84.6284 27.4801 -79.1307 29.4017 -73.898C32.0428 -66.7255 35.0719 -60.0451 37.4479 -57.5091C46.9992 -47.337 44.7842 -42.1895 40.8747 -33.0961C39.6441 -30.2385 38.2525 -27.0023 36.9935 -23.1228C33.1787 -11.3421 29.5626 1.29971 30.2158 12.5694C30.869 23.9148 35.8197 33.8314 49.1764 40.0293C57.942 44.0981 57.1753 62.3132 56.5127 78.2763C56.0394 89.688 55.6039 99.9736 58.7751 103.446C61.9273 106.9 62.41 114.498 61.5676 122.901C61.1037 127.538 60.2329 132.411 59.1821 136.991H59.9773V136.981ZM52.8682 136.981C53.2563 136.016 53.6539 135.126 54.0515 134.256C56.683 128.418 58.9076 123.497 53.5498 103.437C51.8553 97.1065 52.0257 89.3568 52.2056 81.4557C52.4896 68.4827 52.783 55.0934 44.9356 46.5583L43.9701 45.508C35.8292 36.6796 28.2847 28.4946 27.4328 15.0391C27.2624 12.3234 27.0825 10.3173 26.9405 8.72766C26.4578 3.26786 26.4104 2.73798 28.3794 -7.22593C29.3355 -12.0896 31.3139 -16.9817 33.2544 -21.7791C37.1355 -31.3929 40.8557 -40.5998 36.0753 -48.6334C34.2768 -51.6519 30.0076 -62.193 26.543 -70.7565C24.7444 -75.1944 23.1541 -79.1118 22.2359 -81.1935C21.3745 -83.1333 20.2669 -85.8017 19.0079 -88.9811H18.1844C19.5002 -85.6598 20.655 -82.8589 21.5448 -80.8529C22.4536 -78.809 24.0439 -74.8916 25.8425 -70.4442C29.326 -61.8524 33.6047 -51.2829 35.4316 -48.2076C39.9943 -40.5336 36.3499 -31.5159 32.5539 -22.1008C30.6039 -17.275 28.616 -12.3451 27.641 -7.39625C25.6531 2.68121 25.7005 3.23002 26.1927 8.79391C26.3347 10.3552 26.5051 12.3328 26.6755 15.0864C27.5464 28.8447 35.195 37.1338 43.4305 46.0663L44.3961 47.1166C52.0163 55.4057 51.7323 68.6152 51.4483 81.4273C51.2684 89.3947 51.0981 97.2011 52.8209 103.645C58.103 123.412 55.9352 128.209 53.3699 133.896C52.9345 134.871 52.4801 135.874 52.0541 136.972H52.8682V136.981ZM48.7221 136.981C49.6498 134.256 50.4922 131.502 51.1548 128.862C52.8114 122.314 53.3699 116.495 51.3442 113.779C46.7815 107.667 46.8194 88.4673 46.8383 79.232V77.7843C46.8383 62.512 44.6422 60.2694 40.5055 56.0491C38.9152 54.4311 37.0409 52.5197 34.8826 49.4065C27.1299 38.2125 23.457 27.8039 22.8323 17.0925C22.2075 6.37155 24.6403 -4.67109 29.0799 -17.1236C37.8739 -41.7921 34.0874 -50.0622 26.4862 -66.6498C24.8675 -70.1698 23.0878 -74.0778 21.2135 -78.5819C20.1723 -81.0894 19.2067 -83.3793 18.3832 -85.357C17.8152 -86.7006 17.3135 -87.8929 16.8591 -89H16.0356C16.5278 -87.7983 17.0768 -86.5019 17.7016 -85.0353C18.4684 -83.209 19.3582 -81.0894 20.532 -78.2696C22.4157 -73.7372 24.2048 -69.8386 25.8141 -66.3092C33.3207 -49.9297 37.0693 -41.7542 28.3794 -17.4169C23.9019 -4.8698 21.4597 6.27691 22.0844 17.1303C22.7187 27.9931 26.4294 38.5437 34.2768 49.8702C36.4729 53.0306 38.3756 54.9704 39.9848 56.6169C43.9701 60.6763 46.081 62.8337 46.081 77.7654V79.2131C46.0621 88.5336 46.0337 107.932 50.7478 114.262C52.5937 116.732 52.0163 122.305 50.4165 128.635C49.7349 131.341 48.8641 134.171 47.908 136.962H48.7221V136.981ZM41.8023 136.981C45.532 125.863 45.674 116.258 42.6353 104.459C39.5873 92.6308 42.588 83.2535 40.9599 72.4569C38.8205 58.2633 26.2874 50.0973 20.0019 38.0706C19.0742 36.2822 18.2696 34.4181 17.6732 32.431C15.9598 26.7914 16.4994 19.6946 17.7206 12.5883C18.847 6.01197 20.5509 -0.573868 21.5827 -5.98636C22.9174 -13.0075 22.7849 -18.7701 24.4699 -26.0466C29.5248 -47.8007 36.1511 -47.971 21.8383 -69.4696C18.0708 -75.1376 15.3729 -81.96 13.1105 -88.9811H12.2775C14.7766 -81.5058 17.749 -74.2008 21.2325 -68.9681C35.3181 -47.8196 28.7202 -47.7534 23.7221 -26.2454C22.0276 -18.9404 22.1602 -13.1778 20.8254 -6.1472C19.9356 -1.42546 18.5536 4.08163 17.465 9.71176C15.903 17.8021 14.9564 26.129 16.9443 32.6865C17.73 35.2792 18.847 37.6826 20.1723 39.9536C26.6755 51.1192 38.1958 59.2758 40.2026 72.5611C41.8402 83.4807 38.7921 92.6119 41.9159 104.733C44.9262 116.419 44.7463 125.938 40.9883 136.981H41.8023ZM37.9591 136.981H37.1545C37.5331 135.931 37.8739 134.861 38.1768 133.783C40.4392 125.664 40.4582 116.779 38.4513 109.152C36.7474 102.68 36.9462 95.4411 37.145 88.3822C37.2018 86.1774 37.2681 83.9916 37.2681 81.7774C37.2681 67.1201 33.8887 64.887 29.1745 61.7834C27.4233 60.6289 25.4922 59.3515 23.4665 57.3077C10.2612 43.9846 11.3688 33.3394 12.8834 18.9376C13.2336 15.569 13.6122 11.9922 13.8205 8.141C14.0193 4.5169 15.231 -2.73129 16.6319 -11.1907C19.6611 -29.4342 23.6274 -53.3078 20.4657 -57.8876C11.5013 -70.8511 7.58235 -80.8907 5.37674 -88.9905H6.16242C8.36802 -80.9948 12.2681 -71.1066 21.0715 -58.3702C24.432 -53.516 20.4278 -29.4436 17.3703 -11.0582C15.9693 -2.61773 14.7671 4.61153 14.5683 8.17886C14.3506 12.0584 13.9814 15.6447 13.6217 19.0133C12.1355 33.188 11.0375 43.6723 23.9776 56.7115C25.9466 58.6986 27.8493 59.9477 29.5721 61.0831C34.4945 64.3288 38.0254 66.6565 38.0254 81.7585C38.0254 83.8781 37.9591 86.1207 37.9023 88.3822C37.713 95.3844 37.5142 102.557 39.1802 108.906C41.2249 116.675 41.206 125.721 38.8962 133.981C38.6217 135.013 38.3093 136.006 37.9591 136.981ZM31.7304 136.981H30.7838C38.1579 126.043 35.8103 112.634 33.794 101.137C32.5823 94.211 31.4843 87.9658 32.6581 83.263C35.7062 71.066 30.3673 69.06 25.3786 67.1769C23.4665 66.4578 21.6017 65.7576 20.2007 64.5275C5.92578 52.0182 7.35517 37.9476 8.81295 23.5742C9.25785 19.2025 9.70276 14.8026 9.70276 10.412C9.70276 2.38789 10.7251 -4.72785 11.6622 -11.2758C12.4006 -16.4518 13.0916 -21.2681 13.1768 -25.8479C13.3283 -33.8153 14.2938 -38.4329 14.9848 -41.7637C16.2438 -47.8196 16.6035 -49.5134 9.15371 -60.0072C7.95152 -61.7104 5.65124 -67.473 2.99127 -74.1251C2.02572 -76.538 1.02232 -79.0645 0.00944647 -81.5531V-83.5591C1.25897 -80.5312 2.50851 -77.3991 3.69178 -74.4374C6.32336 -67.8326 8.60469 -62.1079 9.75956 -60.4898C17.4176 -49.7026 17.0485 -47.9237 15.7232 -41.5839C15.0322 -38.2815 14.0856 -33.7112 13.9341 -25.8195C13.8489 -21.164 13.1579 -16.3288 12.4101 -11.1434C11.4824 -4.63325 10.46 2.4541 10.46 10.4214C10.46 14.8404 10.0057 19.2688 9.56075 23.6688C8.1219 37.8246 6.72094 51.6775 20.674 63.9124C21.9614 65.0479 23.7694 65.7197 25.6247 66.4199C30.9352 68.4165 36.6149 70.555 33.3775 83.4712C32.2416 88.0037 33.3207 94.1637 34.5229 100.996C36.5581 112.511 38.8962 125.901 31.7304 136.981ZM16.0829 136.981H15.1647C16.7171 134.615 18.2223 131.928 19.4623 128.995C21.933 123.156 23.3813 116.325 22.2075 108.991C20.4563 98.0433 22.4157 92.1198 23.9114 87.5968C24.8107 84.8811 25.5301 82.6763 25.142 80.2161C24.4699 75.977 21.8383 73.3464 19.1121 70.6307C17.1999 68.7193 15.2404 66.77 13.8489 64.1773C13.2431 63.0513 12.5994 61.9442 11.9273 60.7898C8.48161 54.8474 4.36386 47.7506 3.82429 36.5471C3.18059 23.2525 4.2976 10.2322 5.42406 -2.8543C6.54106 -15.8556 7.66755 -28.9327 7.07119 -42.4261C6.9008 -46.2394 4.00417 -54.7272 0 -63.4042V-65.2021C4.39228 -55.9384 7.63913 -46.5801 7.81899 -42.4639C8.41535 -28.9232 7.2889 -15.8178 6.17189 -2.78806C5.04543 10.2701 3.92842 23.2619 4.57212 36.4998C5.10222 47.4951 9.16319 54.4973 12.5615 60.3546C13.2525 61.5468 13.9152 62.6823 14.4926 63.7705C15.8368 66.2591 17.749 68.1705 19.6138 70.044C22.4252 72.8544 25.1514 75.5795 25.8709 80.0836C26.2968 82.752 25.5396 85.0419 24.6024 87.8617C23.1352 92.2996 21.2135 98.1095 22.9364 108.859C24.1386 116.372 22.6524 123.365 20.1344 129.326C18.9701 132.117 17.5596 134.682 16.0829 136.981ZM7.13743 136.981H6.18137C10.3465 131.464 13.4703 123.516 15.4487 115.123C15.8841 113.259 16.2722 111.376 16.5941 109.493C18.5536 98.1379 18.44 86.7925 15.9882 80.2161C14.7766 76.9516 13.83 73.829 12.552 70.8862C11.5392 68.549 10.318 66.3159 8.59522 64.2152C8.45322 64.0449 8.32069 63.884 8.16923 63.7137C3.45511 58.2917 1.71335 55.7937 0.00944647 51.3842V49.1227C1.9216 54.6392 3.36993 56.967 8.39644 62.7769L8.72776 63.1649C10.2234 64.887 11.3593 66.6754 12.3059 68.5395C14.0856 72.0595 15.1742 75.835 16.6793 79.8755C16.9917 80.7271 17.2757 81.6544 17.5123 82.6385C18.4116 86.3099 18.7997 90.8708 18.7145 95.848C18.6198 101.043 17.9951 106.682 16.8781 112.246C16.5373 113.931 16.1586 115.605 15.7232 117.252C13.7826 124.756 10.886 131.815 7.13743 136.981ZM0.0189218 135.609V134.256C0.51116 133.575 0.984474 132.893 1.44831 132.212C2.50852 130.66 3.46459 129.146 4.31654 127.812C16.8781 108.026 10.4222 103.531 8.46268 81.645C7.60126 72.0122 5.12117 65.6629 0.0283972 60.9885V59.9193C5.62287 64.7735 8.31125 71.4066 9.22946 81.626C11.2173 103.673 17.6732 108.234 4.95076 128.266C3.93788 129.856 2.81143 131.635 1.5619 133.442C1.0602 134.171 0.549024 134.89 0.0189218 135.609ZM53.6539 -88.9811H54.4775C56.56 -82.8778 61.6717 -71.5419 63.7164 -67.0851C68.1276 -57.4902 67.73 -56.4588 76.4294 -51.3113C84.9299 -46.2773 86.1511 -48.6523 88.3661 -58.3986C89.4642 -63.2339 90.1647 -65.0507 91.5562 -69.5737C92.5596 -72.8382 93.4684 -82.0451 93.8186 -88.9811H94.6138C94.2919 -81.8748 93.2791 -72.5165 92.2567 -69.1952C90.8747 -64.7195 90.2026 -62.9406 89.1234 -58.181C86.7664 -47.8386 85.053 -45.2175 76.0886 -50.5164C67.2472 -55.7397 67.5123 -56.9319 63.0443 -66.6593C60.9144 -71.2769 55.6986 -82.8589 53.6539 -88.9811ZM60.1287 -88.9811H60.9807C62.9591 -79.8309 65.8557 -68.2679 71.4881 -62.4201C83.9928 -49.4093 88.5649 -74.2387 89.9281 -88.9811H90.6948C89.2465 -73.6614 84.3241 -47.8859 70.9674 -61.7578C65.4676 -67.473 62.2018 -79.2064 60.1287 -88.9811ZM66.5468 -88.9811H67.2094C67.6638 -86.3411 68.3358 -83.7294 69.1973 -80.9853C77.1582 -55.5788 83.6804 -74.4941 85.5831 -88.9811H86.312C85.1098 -79.8688 81.7304 -63.073 74.8864 -68.5896C70.6456 -71.9866 67.8436 -80.9948 66.5468 -88.9811ZM70.5415 -88.9811H71.3271C71.7058 -84.4297 72.7092 -80.1148 74.9053 -77.9006C77.9439 -74.8537 79.2124 -82.7264 79.7425 -88.9811H80.4998C79.9034 -82.1776 78.3699 -73.264 74.4226 -77.2099C72.0087 -79.6322 70.939 -84.1931 70.5415 -88.9811ZM189.635 -88.9811C192.399 -79.5092 195.485 -70.3118 198.817 -60.821C204.099 -45.7663 205.519 -69.99 205.377 -88.9811H204.582C204.724 -72.6206 203.891 -52.2764 200.757 -58.1242C198.864 -61.6537 193.61 -78.2602 190.43 -88.9811H189.635ZM194.708 -88.9811H195.485C196.942 -80.6542 198.769 -71.3148 200.009 -70.5862C201.221 -71.523 201.382 -80.323 201.06 -88.9811H201.988C202.423 -72.3083 200.379 -55.5599 194.708 -88.9811ZM272.207 -88.9811H272.984C270.466 -69.7156 270.201 -54.5001 276.969 -32.8123C278.995 -26.3305 279.402 -29.6045 279.903 -34.894C281.446 -51.3302 280.102 -71.6838 280.206 -88.9811H281.03C281.001 -87.3819 280.992 -85.6598 281.002 -83.6916C281.002 -83.6254 283.311 -9.85648 276.231 -32.5568C269.434 -54.3298 269.689 -69.6399 272.207 -88.9811ZM275.18 -88.9811H275.852C275.473 -71.8447 274.981 -50.8381 276.732 -49.75C278.342 -51.0936 278.247 -72.403 278.237 -75.0146C278.218 -79.4335 278.001 -84.2877 277.868 -88.9811H278.796C279.26 -73.1505 279.553 -43.3534 275.767 -49.7405C273.997 -52.7022 274.725 -72.4692 275.18 -88.9811ZM300 -72.0528V-68.7789C295.769 -50.7435 292.616 -26.3589 294.614 -12.6384C296.961 3.51389 292.673 21.5871 295.948 38.9506C297.331 46.2745 298.646 53.5605 300 60.8561V65.0668C299.924 64.6315 299.849 64.2625 299.801 63.9692C298.239 55.6801 296.763 47.4194 295.191 39.1115C291.897 21.6628 296.195 3.61797 293.856 -12.4681C291.727 -27.1538 295.371 -53.6769 300 -72.0528ZM300 -51.0842V-45.1512C299.678 -43.0506 299.347 -40.8932 298.987 -38.6316C296.232 -21.2208 296.289 -15.4015 297.501 1.90528C298.277 12.9101 297.794 27.6146 300 40.4173V44.2779C298.855 39.0168 298.334 33.5381 297.917 28.3338C297.151 18.7578 297.207 8.71822 296.507 -1.18891C295.087 -21.5142 296.905 -31.7998 300 -51.0842ZM74.9905 -42.3125C74.9337 -42.3409 74.8769 -42.3598 74.8201 -42.3693C74.5172 -42.4166 74.1764 -42.1138 73.8262 -41.5934C73.5517 -41.1865 73.2393 -40.6187 72.9269 -40.0131C72.1412 -38.4518 71.3555 -36.5404 71.3082 -36.1146C70.6456 -30.9955 69.131 -29.1125 67.4555 -27.0307C66.3006 -25.5924 65.0606 -24.0595 63.9625 -21.3722C62.855 -18.6754 60.6588 -15.2406 58.6141 -12.0328C56.5979 -8.88184 54.7236 -5.93904 54.1083 -4.05602C52.8682 -0.242668 54.4112 2.99346 55.6228 5.54831C55.9731 6.28638 56.2949 6.96767 56.5032 7.5638C56.5505 7.71521 56.6547 7.87608 56.7872 8.0464C57.7811 9.31436 61.5486 11.8597 65.6759 13.8279C69.8315 15.815 74.3752 17.2249 76.95 16.2124C77.3286 16.061 77.6694 15.8623 77.9629 15.5974C81.2949 12.6073 85.3275 8.25457 88.5081 3.55176C91.0072 -0.148041 92.9761 -4.06548 93.6861 -7.72743C95.106 -15.0608 94.822 -19.3946 94.4339 -25.214C94.3392 -26.5955 94.2446 -28.0527 94.1689 -29.614V-29.6613C94.0647 -31.5538 93.44 -34.1086 92.3798 -36.162C91.2817 -38.291 89.7198 -39.8996 87.7603 -39.7861H87.7414C86.2078 -39.6914 85.0625 -39.5873 84.1442 -39.5022C82.5066 -39.3508 81.5884 -39.2656 80.7175 -39.4359C79.591 -39.663 78.4267 -40.3349 75.7667 -41.8583L74.9905 -42.3125ZM84.2768 -19.2716C84.362 -17.8333 84.1348 -16.3477 83.7183 -14.9283C83.2071 -13.1589 82.4214 -11.5029 81.6736 -10.216C80.9826 -9.03325 80.4619 -8.1154 80.0265 -7.32056C78.2753 -4.19797 77.7073 -3.17603 74.29 0.0128021C71.914 2.23647 70.1723 3.15432 69.0174 3.26787C68.4305 3.32465 67.9667 3.17325 67.6259 2.88938C67.2851 2.59605 67.0768 2.16077 67.0106 1.64981C66.8781 0.703568 67.1999 -0.573853 67.9193 -1.77558C68.0992 -2.07838 68.9038 -3.22332 69.7936 -4.49128C71.0999 -6.33645 72.624 -8.44659 72.6902 -8.50336C73.4381 -9.12788 74.6497 -11.0487 75.7951 -13.4238C76.8175 -15.5434 77.7925 -18.0036 78.3321 -20.2178C78.9095 -22.5645 79.7141 -24.2961 80.5377 -25.1193C80.9447 -25.5357 81.3801 -25.7439 81.8061 -25.7249C82.251 -25.706 82.6581 -25.4505 83.0083 -24.9301C83.6141 -24.0406 84.0875 -22.2144 84.2768 -19.2716ZM82.9989 -15.1743C82.5066 -13.4806 81.7588 -11.8909 81.0299 -10.6513C80.3673 -9.52529 79.8277 -8.56012 79.3733 -7.74635C77.6694 -4.70892 77.1109 -3.71538 73.7883 -0.602249C71.5449 1.48895 69.964 2.35949 68.9511 2.45412C68.5725 2.49197 68.2885 2.40681 68.0992 2.24594C67.9099 2.08508 67.7963 1.82958 67.7584 1.51732C67.6543 0.750862 67.9383 -0.318367 68.5536 -1.35923C68.724 -1.6431 69.5097 -2.77859 70.3995 -4.02763C71.6774 -5.83495 73.1352 -7.86936 73.1636 -7.89775C73.9966 -8.58851 75.284 -10.6135 76.4767 -13.0832C77.5274 -15.25 78.5119 -17.767 79.0704 -20.0475C79.61 -22.2428 80.3389 -23.8419 81.0678 -24.5705C81.3233 -24.8355 81.5695 -24.9679 81.7872 -24.9585C81.9954 -24.949 82.2037 -24.7976 82.4025 -24.4948C82.9421 -23.7 83.3586 -22.0062 83.529 -19.2337C83.6047 -17.8901 83.3775 -16.4991 82.9989 -15.1743ZM77.9345 -28.7623C78.3699 -29.3869 78.9852 -29.8316 79.6762 -30.0776C80.2915 -30.2953 80.9826 -30.3426 81.6641 -30.2196C82.3457 -30.0966 83.0367 -29.7843 83.6615 -29.2828C84.5513 -28.5731 85.3181 -27.4849 85.7819 -25.952C86.0469 -25.1004 86.2836 -24.3623 86.5108 -23.6716C88.0159 -19.1012 88.7259 -16.9343 85.8103 -10.8311C85.1571 -9.46851 84.5797 -8.16272 84.0212 -6.91368C80.4335 1.1199 77.7262 7.18531 67.1431 6.43778C66.2722 6.381 65.2878 5.68079 64.5115 4.63993C64.0761 4.05326 63.7069 3.36251 63.4513 2.60552C63.1958 1.84853 63.0632 1.02528 63.12 0.192589C63.2052 -1.19839 63.8016 -2.60826 65.1836 -3.7816C65.1931 -3.79106 65.8084 -4.6143 66.5846 -5.65517C67.7395 -7.19754 69.2256 -9.18463 69.6138 -9.66721C70.8349 -11.1717 72.8228 -14.9946 74.3658 -18.7511C75.6721 -21.9305 76.666 -25.0342 76.6092 -26.6049C76.5903 -27.097 77.1488 -27.7877 77.5842 -28.3271C77.7262 -28.4974 77.8587 -28.6583 77.9345 -28.7623ZM79.9129 -29.3112C80.4146 -29.491 80.9731 -29.5288 81.5411 -29.4247C82.109 -29.3206 82.6865 -29.0652 83.2166 -28.6393C83.9833 -28.0243 84.6554 -27.0591 85.0719 -25.6965C85.3181 -24.8828 85.5736 -24.1163 85.8103 -23.4066C87.2397 -19.0539 87.9212 -16.9911 85.1477 -11.2001C84.5134 -9.86595 83.9171 -8.54121 83.3491 -7.26379C79.8845 0.485916 77.2813 6.33368 67.1999 5.624C66.5468 5.57668 65.7611 4.99949 65.1079 4.12895C64.7198 3.60852 64.3885 2.99347 64.1707 2.3311C63.953 1.66873 63.83 0.959061 63.8773 0.239922C63.953 -0.942879 64.4642 -2.14462 65.6569 -3.14764C65.7137 -3.19495 66.3669 -4.07495 67.181 -5.15366C68.3359 -6.7055 69.822 -8.68314 70.1912 -9.1468C71.4597 -10.7081 73.4949 -14.6161 75.0662 -18.4389C76.4104 -21.7129 77.4328 -24.949 77.3665 -26.6428C77.357 -26.8226 77.8019 -27.3714 78.1617 -27.8067C78.3036 -27.9864 78.4362 -28.1473 78.5403 -28.2892C78.8811 -28.7718 79.3639 -29.1219 79.9129 -29.3112ZM76.9784 -35.6415C76.8837 -35.774 76.7701 -35.8497 76.6282 -35.8875C76.3726 -35.9538 76.098 -35.8402 75.8235 -35.6321C75.6058 -35.4617 75.3786 -35.2252 75.1609 -34.9602C74.6119 -34.2979 74.1196 -33.4084 74.1196 -33.0772C74.1196 -25.46 73.2204 -23.9081 70.6361 -19.4324C70.0397 -18.401 69.3582 -17.2088 68.5252 -15.6758C68.4778 -15.5907 66.5468 -13.3481 64.4831 -10.9636C62.1355 -8.24788 59.6175 -5.37129 59.4945 -5.2672C58.1219 -4.04655 57.4687 -2.56096 57.393 -0.980736C57.3173 0.618408 57.8285 2.29324 58.7751 3.86401C59.7028 5.41584 61.0659 6.86359 62.6846 8.03693C65.7137 10.2227 69.6706 11.4339 73.5706 10.4877C82.1848 8.38703 84.0117 4.3182 87.1923 -2.75967C87.4479 -3.32742 87.713 -3.92355 88.0632 -4.68054C90.3635 -9.70508 90.4487 -13.3954 90.5339 -17.3318C90.5812 -19.2526 90.6285 -21.2397 90.9409 -23.4823C92.1242 -31.7809 89.3601 -34.0424 85.886 -34.6007C84.5608 -34.8183 83.1314 -34.771 81.7777 -34.7237C79.6384 -34.6669 77.7168 -34.6007 76.9784 -35.6415ZM81.8061 -33.9288C83.1124 -33.9761 84.504 -34.0235 85.7724 -33.8153C88.8489 -33.3138 91.2817 -31.251 90.1931 -23.6053C89.8713 -21.3344 89.8239 -19.3094 89.7766 -17.3507C89.6914 -13.509 89.6062 -9.91325 87.3722 -5.03065C87.1071 -4.45344 86.8042 -3.77217 86.5013 -3.10033C83.4248 3.75044 81.6547 7.69629 73.4002 9.70232C69.7274 10.5918 65.9788 9.44682 63.1105 7.37455C61.5676 6.26745 60.2896 4.89542 59.4093 3.42874C58.5479 1.99046 58.0746 0.476479 58.1503 -0.942879C58.2166 -2.30547 58.7845 -3.59237 59.9867 -4.65215C60.1382 -4.78463 62.6846 -7.68959 65.0416 -10.4242C67.1337 -12.8371 69.1121 -15.1365 69.1878 -15.2784C69.964 -16.7073 70.674 -17.9374 71.2893 -19.0161C73.9587 -23.6337 74.8864 -25.2423 74.8864 -33.0867C74.8864 -33.257 75.2934 -33.891 75.7383 -34.4398C75.9277 -34.6669 76.1075 -34.8561 76.2779 -34.9886C76.3442 -35.0454 76.401 -35.0832 76.4294 -35.1022C77.4138 -33.7869 79.4869 -33.8531 81.8061 -33.9288ZM75.407 -41.1581L74.7065 -41.5555C74.6781 -41.5082 74.5929 -41.3474 74.4415 -41.1203C74.1859 -40.7512 73.8925 -40.2119 73.599 -39.6347C72.8417 -38.1396 72.1034 -36.3701 72.056 -36.0106C71.365 -30.6454 69.7842 -28.6867 68.0235 -26.5103C66.897 -25.1193 65.7043 -23.6337 64.6441 -21.0505C63.5081 -18.278 61.293 -14.8148 59.2294 -11.5786C57.2416 -8.46551 55.3862 -5.57001 54.8088 -3.79108C53.6728 -0.299446 55.1306 2.76636 56.2855 5.18874C56.6452 5.94572 56.9765 6.63648 57.2037 7.28939C57.2226 7.34616 57.2794 7.43134 57.3646 7.53542C58.3018 8.72768 61.9462 11.1785 65.9788 13.0993C69.9829 15.0107 74.3279 16.3922 76.6755 15.4649C76.9784 15.3419 77.2435 15.1905 77.4706 14.9918C80.7649 12.0395 84.7501 7.73412 87.8834 3.08808C90.3256 -0.526558 92.2472 -4.34937 92.9288 -7.88831C94.3203 -15.1081 94.0458 -19.3946 93.6672 -25.1572C93.582 -26.5103 93.4873 -27.958 93.4021 -29.5761V-29.6234C93.3074 -31.4118 92.7111 -33.8342 91.7077 -35.774C90.7421 -37.6475 89.3979 -39.0669 87.7887 -38.9817H87.7792C86.312 -38.8966 85.1477 -38.783 84.2105 -38.6979C82.5161 -38.5465 81.56 -38.4519 80.5755 -38.6506C79.326 -38.8966 78.1333 -39.5873 75.407 -41.1581ZM189.729 -14.4836C187.959 -14.4836 186.255 -14.6445 184.513 -14.8053C182.658 -14.9756 180.765 -15.1554 178.682 -15.1554C177.982 -15.1554 177.281 -15.2311 176.581 -15.373C172.605 -16.1773 168.705 -19.158 165.789 -23.0092C162.874 -26.8604 160.962 -31.5821 160.962 -35.8781C160.962 -36.6635 161.028 -37.4299 161.161 -38.168C161.833 -41.9246 163.376 -45.6149 165.43 -48.9835C167.711 -52.7212 170.627 -56.0614 173.675 -58.6541C174.091 -59.0137 174.565 -59.4489 175.076 -59.9126C176.609 -61.3225 178.455 -63.0257 180.159 -63.7165C181.863 -64.4072 183.472 -64.0287 184.513 -61.0954C185.365 -58.6919 186.833 -56.0046 188.319 -53.27C190.505 -49.2485 192.758 -45.1134 193.175 -41.7164C193.393 -39.9185 194.008 -38.2626 194.623 -36.5783C195.627 -33.8721 196.649 -31.0901 195.967 -27.712C195.854 -27.1348 195.74 -26.4251 195.617 -25.6303C194.945 -21.306 193.866 -14.4836 189.729 -14.4836ZM179.932 -38.8871C180.604 -37.3921 181.768 -34.2884 182.033 -31.8849C182.128 -31.0428 182.1 -30.2953 181.91 -29.7654C181.74 -29.3112 181.427 -29.0178 180.907 -28.9705C180.396 -28.9232 179.686 -29.0935 178.758 -29.5477C178.578 -29.6329 178.408 -29.7275 178.228 -29.8316C176.335 -30.9292 174.962 -32.7176 174.299 -34.7804C173.637 -36.8432 173.684 -39.171 174.612 -41.3473C174.697 -41.5461 174.792 -41.7448 174.886 -41.934C176.335 -44.7822 177.215 -45.5013 177.783 -45.1796C178.512 -44.7633 178.957 -42.7951 179.326 -41.1297C179.515 -40.2213 179.705 -39.3886 179.932 -38.8871ZM180.045 -41.3284C180.244 -40.4579 180.415 -39.6725 180.613 -39.2372C181.304 -37.6949 182.507 -34.4871 182.781 -31.9796C182.885 -31.0144 182.857 -30.1439 182.611 -29.472C182.336 -28.7245 181.816 -28.2419 180.964 -28.1757C180.329 -28.1189 179.496 -28.3082 178.436 -28.8191C178.228 -28.9138 178.039 -29.0178 177.859 -29.1314C175.786 -30.3236 174.299 -32.2824 173.58 -34.5344C172.861 -36.7865 172.908 -39.3224 173.911 -41.688C174.006 -41.9056 174.101 -42.1138 174.214 -42.3314C175.937 -45.719 177.177 -46.4571 178.133 -45.9082C179.146 -45.3026 179.638 -43.1452 180.045 -41.3284ZM186.852 -30.1533C187.022 -28.0337 186.965 -26.2075 186.198 -25.1004C185.451 -24.0312 183.964 -23.6148 181.229 -24.2583C179.468 -24.6651 177.281 -25.3464 175.284 -26.3494C173.552 -27.22 171.971 -28.3271 170.93 -29.7275C169.917 -31.0806 169.415 -32.7176 169.822 -34.6763C169.936 -35.2441 170.134 -35.8402 170.409 -36.4742C170.863 -37.4962 171.232 -39.1521 171.64 -41.0162C172.539 -45.085 173.656 -50.1568 176.231 -51.122C179.298 -52.267 180.878 -49.1538 181.92 -45.9934C182.194 -45.1607 182.44 -44.2996 182.658 -43.5142C182.98 -42.3693 183.264 -41.3852 183.567 -40.7418C184.996 -37.7138 185.744 -36.0579 186.17 -34.6669C186.587 -33.2948 186.691 -32.1594 186.852 -30.1533ZM186.889 -34.9129C187.334 -33.4557 187.448 -32.2824 187.609 -30.229C187.789 -27.9391 187.722 -25.9331 186.814 -24.6367C185.886 -23.312 184.154 -22.7632 181.077 -23.4823C179.269 -23.9081 177.026 -24.5989 174.972 -25.6303C173.154 -26.5481 171.469 -27.7309 170.343 -29.2355C169.188 -30.7778 168.629 -32.6325 169.084 -34.8561C169.216 -35.4807 169.424 -36.1336 169.727 -36.8243C170.144 -37.7706 170.504 -39.3886 170.901 -41.2054C171.838 -45.4635 173.012 -50.7814 175.984 -51.8885C179.667 -53.27 181.475 -49.7973 182.639 -46.2678C182.933 -45.3878 183.169 -44.5362 183.396 -43.7508C183.709 -42.6437 183.983 -41.688 184.258 -41.1108C185.697 -38.026 186.445 -36.3417 186.889 -34.9129ZM191.045 -28.2608C191.092 -28.1189 191.14 -27.977 191.168 -27.835C191.518 -26.3873 191.348 -24.4191 190.78 -22.678C190.212 -20.9653 189.265 -19.4987 188.025 -19.0161C187.94 -18.9782 187.855 -18.9498 187.779 -18.9309C184.646 -18.0698 183.387 -18.4862 181.267 -19.1959C181.115 -19.2432 180.945 -19.3 180.594 -19.4135L179.506 -19.7636C177.272 -20.4922 176.325 -20.795 175.577 -21.1735C175.028 -21.4479 174.574 -21.7696 173.779 -22.3279C173.088 -22.8105 172.151 -23.4634 170.788 -24.3623C166.215 -27.3619 165.326 -32.008 166.121 -36.8243C166.935 -41.7353 169.491 -46.8261 171.734 -50.6016C175.7 -57.2726 176.07 -57.1022 179.894 -55.3612C180.367 -55.1435 180.897 -54.907 181.446 -54.6704C183.51 -53.7809 184.807 -52.1439 185.668 -50.1852C186.539 -48.1887 186.965 -45.842 187.249 -43.5899C187.467 -41.8867 188.006 -39.3886 188.631 -36.8811C189.53 -33.2286 190.6 -29.5572 191.045 -28.2608ZM189.351 -37.0798C190.25 -33.4652 191.31 -29.8221 191.755 -28.5447C191.812 -28.3933 191.859 -28.223 191.897 -28.0432C192.285 -26.4441 192.105 -24.2961 191.49 -22.4225C190.856 -20.5111 189.748 -18.8458 188.281 -18.2685C188.186 -18.2307 188.073 -18.1928 187.959 -18.1645C184.608 -17.2466 183.283 -17.6914 181.03 -18.4389L180.367 -18.6565L179.279 -19.0066C176.997 -19.7447 176.032 -20.0569 175.246 -20.4544C174.659 -20.7477 174.186 -21.0789 173.362 -21.6656C172.709 -22.1197 171.829 -22.7443 170.39 -23.681C165.487 -26.8983 164.521 -31.8471 165.382 -36.9663C166.225 -42.0002 168.819 -47.1951 171.1 -51.0274C175.407 -58.285 175.833 -58.0863 180.197 -56.0992C180.642 -55.8911 181.143 -55.664 181.73 -55.4085C183.993 -54.4244 185.422 -52.6455 186.35 -50.5164C187.259 -48.4252 187.694 -46.0123 187.988 -43.6846C188.196 -42.0286 188.735 -39.559 189.351 -37.0798ZM196.365 -25.4884C195.646 -20.918 194.51 -13.6793 189.729 -13.6793C187.931 -13.6793 186.208 -13.8401 184.447 -14.001C182.611 -14.1713 180.736 -14.3416 178.682 -14.3416C177.934 -14.3416 177.187 -14.4174 176.439 -14.5688C172.274 -15.4109 168.213 -18.5051 165.193 -22.4982C162.183 -26.4914 160.195 -31.3929 160.195 -35.8686C160.195 -36.6919 160.261 -37.5151 160.403 -38.3099C161.094 -42.18 162.675 -45.965 164.786 -49.4093C167.115 -53.2227 170.087 -56.6291 173.201 -59.2691C173.627 -59.6287 174.082 -60.0545 174.574 -60.5087C176.155 -61.9659 178.058 -63.7165 179.885 -64.4545C181.995 -65.3061 183.964 -64.8709 185.214 -61.3603C186.047 -59.0231 187.495 -56.3642 188.972 -53.6485C191.196 -49.5607 193.487 -45.3499 193.923 -41.7921C194.131 -40.0983 194.727 -38.4897 195.324 -36.8433C196.365 -34.0235 197.425 -31.128 196.706 -27.5133C196.602 -26.9645 196.488 -26.2643 196.365 -25.4884ZM208.917 70.4225C209.192 69.9589 209.466 68.6625 209.684 67.2242C209.949 65.4832 210.11 63.5907 210.091 62.7675C209.722 63.1649 209.125 64.3855 208.633 65.7386C208.311 66.5997 208.056 67.5176 207.952 68.3313C207.847 69.0883 207.866 69.7318 208.084 70.1103C208.226 70.3563 208.491 70.4793 208.917 70.4225ZM209.305 78.2479C211.681 75.078 212.022 64.9911 212.221 58.973C212.249 58.235 212.268 57.5631 212.287 56.9765C212.325 56.0775 212.211 55.5382 212.012 55.2827C211.918 55.1597 211.776 55.1218 211.615 55.1502C211.378 55.1975 211.104 55.3678 210.801 55.6328C209.722 56.5696 208.501 58.5945 207.923 60.7898C207.27 63.3068 206.371 66.8836 206.229 70.2428C206.087 73.5357 206.655 76.6393 208.879 78.3331C208.908 78.352 208.974 78.352 209.04 78.3426C209.182 78.3142 209.296 78.2668 209.305 78.2479ZM212.921 59.0014C212.95 58.2728 212.969 57.601 212.988 57.0049C213.035 55.9072 212.864 55.1881 212.543 54.8001C212.259 54.45 211.889 54.3364 211.473 54.4216C211.123 54.4973 210.735 54.715 210.346 55.0556C209.173 56.0775 207.847 58.2539 207.242 60.5911C206.579 63.146 205.67 66.7606 205.519 70.2144C205.367 73.7344 206.002 77.0746 208.463 78.9482C208.661 79.0996 208.917 79.1279 209.144 79.0901C209.447 79.0333 209.769 78.8441 209.854 78.7211C212.382 75.3524 212.722 65.1047 212.921 59.0014ZM209.977 84.4363L210.365 83.4144C213.858 74.2927 217.086 65.8427 215.221 55.7842C214.824 53.6457 214.228 52.3777 213.281 51.7911C212.325 51.1949 210.952 51.2517 209.021 51.7343H209.002C208.046 52.0182 206.096 54.9988 204.468 58.4337C202.84 61.878 201.571 65.7481 202.016 67.7636L202.045 67.8772C202.508 69.6182 202.698 71.0281 202.887 72.4191C203.152 74.3494 203.408 76.2419 204.383 78.9008C204.724 79.8282 206.352 82.5249 207.791 84.266C208.217 84.7865 208.633 85.2217 208.974 85.4772C209.21 85.657 209.381 85.7516 209.438 85.7138C209.438 85.7138 209.447 85.7043 209.457 85.6949L209.977 84.4363ZM211.019 83.6983C214.549 74.463 217.825 65.9184 215.913 55.6423C215.468 53.2767 214.777 51.8573 213.631 51.1476C212.495 50.4474 210.971 50.4758 208.86 51.0057L208.813 51.0151C207.677 51.3558 205.547 54.5068 203.843 58.1025C202.149 61.6793 200.842 65.7386 201.335 67.9434C201.344 67.9907 201.354 68.038 201.373 68.0853C201.817 69.7696 202.007 71.1606 202.196 72.5327C202.461 74.5008 202.726 76.4406 203.739 79.1847C204.099 80.1593 205.793 82.9697 207.279 84.7675C207.743 85.3258 208.188 85.7989 208.586 86.1017C209.078 86.4708 209.513 86.5938 209.854 86.3478C209.958 86.2721 210.044 86.168 210.11 86.0355L210.119 86.0166C210.413 85.2312 210.716 84.4837 211.019 83.6983ZM212.391 85.8841C213.612 83.3576 214.994 80.3581 216.064 77.8884C216.992 75.7404 217.683 74.0088 217.825 73.3464C218.061 72.2772 218.288 71.2741 218.497 70.3563C219.85 64.4328 220.371 62.1808 218.762 54.2986C218.459 52.813 217.105 51.1192 215.61 49.2457C214.758 48.1764 213.858 47.0504 213.082 45.8865C212.77 45.4229 212.552 44.874 212.334 44.3347C212.154 43.8994 211.984 43.4831 211.785 43.133C211.246 42.2246 210.356 41.8461 208.056 43.4074C206.437 44.505 204.449 47.3532 202.849 50.4474C201.221 53.5984 199.991 56.9859 199.953 59.0582C199.934 60.1842 199.517 61.5941 199.044 63.2122C197.823 67.3662 196.176 72.9963 200.009 78.3331C200.388 78.8535 201.041 80.0269 201.846 81.4557C202.859 83.2536 204.089 85.4583 205.225 87.1804C207.44 90.5585 208.614 91.4196 209.57 90.7099C210.346 90.1327 211.094 88.5903 212.098 86.5086L212.391 85.8841ZM216.708 78.2006C217.654 76.0148 218.364 74.2264 218.516 73.5167C218.762 72.3907 218.98 71.4255 219.188 70.5361C220.57 64.4896 221.1 62.1902 219.462 54.1472C219.122 52.4818 217.711 50.7123 216.159 48.7726C215.326 47.7222 214.445 46.6246 213.669 45.4607C213.395 45.0538 213.186 44.5429 212.988 44.0414C212.798 43.5777 212.618 43.133 212.382 42.7355C211.624 41.4676 210.469 40.8809 207.677 42.7734C205.954 43.9373 203.881 46.8896 202.225 50.0878C200.549 53.3335 199.29 56.8535 199.243 59.0487C199.224 60.0612 198.826 61.4238 198.372 62.9851C197.113 67.3 195.399 73.1382 199.441 78.7873C199.792 79.2793 200.445 80.4337 201.231 81.8342C202.243 83.6415 203.484 85.8462 204.638 87.5968C207.156 91.4291 208.605 92.328 209.958 91.3155C210.877 90.6342 211.653 89.0162 212.703 86.8398L213.006 86.2153C214.246 83.6983 215.629 80.6798 216.708 78.2006ZM210.839 95.848C208.822 98.1379 208.056 98.2893 207.554 97.7878C207.355 97.5891 207.175 97.2863 206.977 96.9646C206.607 96.3684 206.21 95.7155 205.528 95.2897C202.916 93.6622 199.139 89.177 196.128 84.4553C193.393 80.1594 191.31 75.7026 191.348 73.0909C191.386 70.5645 191.32 69.164 191.282 68.2272C191.244 67.4324 191.225 66.9688 191.301 66.4389C191.395 65.7103 191.679 64.7924 192.342 62.6444C192.55 61.9632 192.806 61.1399 193.147 59.9855C193.904 57.478 194.888 55.4909 195.759 53.7498C196.393 52.4629 196.971 51.3085 197.359 50.1446C198.334 47.2302 200.435 43.5966 202.594 39.8874C205.396 35.0521 208.273 30.0938 208.889 26.3088C210.167 29.1381 213.432 36.0267 216.026 38.2693C221.649 43.1329 222.851 55.0745 223.741 63.9408C223.902 65.5305 224.053 67.0255 224.224 68.3881C224.621 71.5959 223.788 75.1159 222.444 78.4656C221.081 81.8437 219.188 85.0609 217.465 87.6441C215.42 90.7099 213.48 92.8863 211.463 95.1667L210.839 95.848ZM211.956 95.6871L211.35 96.3685C208.927 99.1031 207.876 99.1504 207.071 98.3461C206.816 98.0906 206.607 97.75 206.38 97.3904C206.058 96.8699 205.699 96.2928 205.168 95.9521C202.471 94.2773 198.599 89.6974 195.541 84.8905C192.739 80.4905 190.6 75.8729 190.638 73.0909C190.676 70.6023 190.61 69.2113 190.572 68.2746C190.534 67.423 190.505 66.9404 190.591 66.3442C190.695 65.5494 190.988 64.6126 191.66 62.4173C191.897 61.6414 192.181 60.7236 192.465 59.7679C193.241 57.1941 194.235 55.1786 195.125 53.4091C195.75 52.1506 196.318 51.0152 196.687 49.8986C197.681 46.9179 199.811 43.2465 201.988 39.4994C205.093 34.1437 208.292 28.6271 208.292 24.9273V24.8705L208.396 24.5488H208.652C208.889 24.5488 208.964 24.7381 209.106 25.0693C209.864 26.7819 213.631 35.2508 216.462 37.6921C222.312 42.745 223.533 54.8758 224.432 63.8651C224.593 65.4737 224.744 66.9782 224.905 68.2935C225.322 71.6526 224.47 75.2957 223.069 78.7684C221.687 82.2127 219.765 85.4772 218.014 88.0889C215.941 91.1925 213.991 93.3878 211.956 95.6871ZM210.375 67.3473C210.706 65.1331 210.867 62.6161 210.716 62.1524L210.649 61.9537L210.451 61.9064C209.816 61.7644 208.699 63.4771 207.97 65.4737C207.639 66.3915 207.365 67.3567 207.242 68.2272C207.118 69.1451 207.156 69.9683 207.478 70.5077C207.791 71.0565 208.34 71.3215 209.173 71.1417L209.286 71.1133L209.362 71.0187C209.778 70.555 210.129 69.0221 210.375 67.3473Z" fill="#456920"/>
</svg>
