<svg width="50" height="50" viewBox="0 0 50 50" fill="none" xmlns="http://www.w3.org/2000/svg">
<path d="M12.5 47.5L0.5 14.5L9.5 11L15.5 44L34 41L27.5 44L13 49L12.5 47.5Z" fill="#577D31"/>
<path d="M18.5 1V37.5L19 39.5H49V7H43.5L42.5 6.5V1H18.5Z" fill="#B48352"/>
<path d="M8.98626 10.6602C6.27756 11.5717 3.49661 12.5113 0.811937 13.4757C0.177562 13.7076 -0.155349 14.413 0.0710185 15.0512L5.41135 29.8965C5.51877 30.1952 5.80032 30.3812 6.10061 30.3812C6.18284 30.3812 6.26663 30.3673 6.34846 30.3378C6.72913 30.2009 6.92669 29.7813 6.78977 29.4007L1.52844 14.7749C4.05774 13.8693 6.67708 12.983 9.23694 12.1214L8.98626 10.6602Z" fill="#577D31"/>
<path d="M13.5587 48.2258L7.9134 32.5237C7.77659 32.1431 7.35715 31.9455 6.97639 32.0823C6.59573 32.2191 6.39817 32.6387 6.53499 33.0193L12.2604 48.9445C12.4435 49.4453 12.9179 49.7566 13.4194 49.7566C13.5579 49.7566 13.6987 49.7328 13.8358 49.6827L38.3246 40.88L30.0456 42.299L13.5587 48.2258Z" fill="#577D31"/>
<path d="M6.10061 30.3812C5.80032 30.3812 5.51877 30.1952 5.41135 29.8965L6.53499 33.0193C6.39817 32.6387 6.59573 32.2191 6.97639 32.0823C7.35715 31.9455 7.77659 32.1431 7.9134 32.5237L6.78977 29.4007C6.92669 29.7813 6.72913 30.2009 6.34846 30.3378C6.26663 30.3673 6.18284 30.3812 6.10061 30.3812Z" fill="#577D31"/>
<path d="M17.8981 5.3418L9.56456 6.77031C8.89659 6.8875 8.44737 7.52676 8.56309 8.19404L8.98604 10.6601L9.23672 12.1213L14.6493 43.6913C14.7539 44.2878 15.2782 44.7122 15.87 44.7122C15.937 44.7122 16.005 44.7067 16.0732 44.6955L30.0454 42.2989L38.3243 40.8799L41.5723 40.3231L32.9018 40.3229L16.0534 43.2125L10.0459 8.17392L17.898 6.82793L17.8981 5.3418Z" fill="black"/>
<path fill-rule="evenodd" clip-rule="evenodd" d="M49.5883 6.3105C49.5586 6.28257 43.6855 0.681494 43.6855 0.681494C43.4609 0.466064 43.2287 0.243408 42.7951 0.243408H19.1506C18.46 0.243408 17.898 0.805224 17.898 1.49585V5.34184L17.8979 6.82798V21.1856C17.8979 21.5901 18.2259 21.918 18.6304 21.918C19.0349 21.918 19.3628 21.5901 19.3628 21.1856V1.70815H41.6748L41.6844 6.13452C41.6844 6.67104 41.8476 7.10503 42.1693 7.42456C42.6638 7.91548 43.3627 7.94966 43.7966 7.94966C43.8259 7.94966 43.854 7.94947 43.8808 7.9493L43.9024 7.94917L48.535 7.94888V38.8581H19.3629V24.584C19.3629 24.1795 19.035 23.8516 18.6305 23.8516C18.226 23.8516 17.898 24.1795 17.898 24.584V39.0677C17.898 39.7598 18.46 40.323 19.1506 40.323H32.9018L41.5723 40.3232H48.7472C49.4378 40.3232 49.9997 39.7601 49.9997 39.0679V7.13579C49.9998 6.69741 49.7619 6.47378 49.5883 6.3105ZM43.9827 6.48393H47.6478L43.1407 2.18608L43.1492 6.13286C43.1492 6.2812 43.1774 6.36108 43.2014 6.38501C43.3053 6.48825 43.7142 6.48551 43.8905 6.48433L43.8919 6.48432L43.9827 6.48393Z" fill="#B48352"/>
<path d="M18.6305 23.8516C19.035 23.8516 19.3629 24.1795 19.3629 24.584L19.3628 21.1856C19.3628 21.5901 19.0349 21.918 18.6304 21.918C18.2259 21.918 17.8979 21.5901 17.8979 21.1856L17.898 24.584C17.898 24.1795 18.226 23.8516 18.6305 23.8516Z" fill="#B48352"/>
<path d="M22.8936 11.6162C22.8936 12.0207 23.2215 12.3486 23.626 12.3486H44.567C44.9715 12.3486 45.2994 12.0207 45.2994 11.6162C45.2994 11.2117 44.9715 10.8838 44.567 10.8838H23.626C23.2215 10.8838 22.8936 11.2117 22.8936 11.6162Z" fill="white"/>
<path d="M31.567 16.0871H23.626C23.2215 16.0871 22.8936 16.415 22.8936 16.8195C22.8936 17.224 23.2215 17.552 23.626 17.552H31.567C31.9715 17.552 32.2994 17.224 32.2994 16.8195C32.2994 16.415 31.9715 16.0871 31.567 16.0871Z" fill="white"/>
<path d="M40.567 21.2904H23.626C23.2215 21.2904 22.8936 21.6184 22.8936 22.0229C22.8936 22.4273 23.2215 22.7553 23.626 22.7553H40.567C40.9715 22.7553 41.2994 22.4273 41.2994 22.0229C41.2994 21.6184 40.9715 21.2904 40.567 21.2904Z" fill="white"/>
<path d="M35.567 26.4937H23.626C23.2215 26.4937 22.8936 26.8217 22.8936 27.2262C22.8936 27.6306 23.2215 27.9586 23.626 27.9586H35.567C35.9715 27.9586 36.2994 27.6306 36.2994 27.2262C36.2994 26.8217 35.9715 26.4937 35.567 26.4937Z" fill="white"/>
<path d="M40.567 31.6971H23.626C23.2215 31.6971 22.8936 32.0251 22.8936 32.4296C22.8936 32.8341 23.2215 33.162 23.626 33.162H40.567C40.9715 33.162 41.2994 32.8341 41.2994 32.4296C41.2994 32.0251 40.9715 31.6971 40.567 31.6971Z" fill="white"/>
</svg>
