<svg width="50" height="50" viewBox="0 0 50 50" fill="none" xmlns="http://www.w3.org/2000/svg">
<path d="M12.5 47.5L0.5 14.5L9.5 11L15.5 44L34 41L27.5 44L13 49L12.5 47.5Z" fill="#F6F6E3"/>
<path d="M18.5 1V37.5L19 39.5H49V7H43.5L42.5 6.5V1H18.5Z" fill="#F6F6E3"/>
<path d="M49.5885 6.3105C49.5588 6.28257 43.6857 0.681494 43.6857 0.681494C43.4612 0.466064 43.2289 0.243408 42.7954 0.243408H19.1508C18.4602 0.243408 17.8983 0.805224 17.8983 1.49585V5.34184L9.56477 6.77036C8.8968 6.88755 8.44758 7.5268 8.56331 8.19409L8.98626 10.6601C6.27756 11.5716 3.49661 12.5113 0.811937 13.4756C0.177562 13.7076 -0.155349 14.4129 0.0710185 15.0511L5.41135 29.8964C5.51877 30.1952 5.80032 30.3812 6.10061 30.3812C6.18284 30.3812 6.26663 30.3672 6.34846 30.3377C6.72913 30.2008 6.92669 29.7813 6.78977 29.4006L1.52844 14.7748C4.05774 13.8693 6.67708 12.983 9.23694 12.1213L14.6495 43.6913C14.7541 44.2878 15.2784 44.7122 15.8702 44.7122C15.9372 44.7122 16.0052 44.7068 16.0734 44.6955L30.0456 42.299L13.5587 48.2257L7.9134 32.5237C7.77659 32.143 7.35715 31.9454 6.97639 32.0823C6.59573 32.2191 6.39817 32.6386 6.53499 33.0193L12.2604 48.9445C12.4435 49.4452 12.9179 49.7566 13.4194 49.7566C13.5579 49.7566 13.6987 49.7327 13.8358 49.6827L38.3246 40.8799L41.5725 40.3232H48.7474C49.438 40.3232 49.9999 39.7601 49.9999 39.0679V7.13579C50 6.69741 49.7622 6.47378 49.5885 6.3105ZM47.648 6.48393H43.983L43.8921 6.48432C43.7166 6.4855 43.3058 6.48852 43.2016 6.38501C43.1776 6.36108 43.1495 6.2812 43.1495 6.13286L43.141 2.18608L47.648 6.48393ZM48.5352 38.8581H19.3631V24.584C19.3631 24.1795 19.0352 23.8516 18.6307 23.8516C18.2262 23.8516 17.8983 24.1795 17.8983 24.584V39.0677C17.8983 39.7598 18.4602 40.323 19.1508 40.323H32.902L16.0536 43.2125L10.0461 8.17397L17.8982 6.82798V21.1856C17.8982 21.5901 18.2261 21.918 18.6306 21.918C19.0351 21.918 19.363 21.5901 19.363 21.1856V1.70815H41.675L41.6846 6.13452C41.6846 6.67104 41.8478 7.10503 42.1696 7.42456C42.664 7.91548 43.3629 7.94966 43.7968 7.94966C43.8341 7.94966 43.8695 7.94936 43.9026 7.94917L48.5352 7.94888V38.8581Z" fill="black"/>
<path d="M6.10061 30.3812C5.80032 30.3812 5.51877 30.1952 5.41135 29.8964L6.53499 33.0193C6.39817 32.6386 6.59573 32.2191 6.97639 32.0823C7.35715 31.9454 7.77659 32.143 7.9134 32.5237L6.78977 29.4006C6.92669 29.7813 6.72913 30.2008 6.34846 30.3377C6.26663 30.3672 6.18284 30.3812 6.10061 30.3812Z" fill="black"/>
<path d="M18.6307 23.8516C19.0352 23.8516 19.3631 24.1795 19.3631 24.584L19.363 21.1856C19.363 21.5901 19.0351 21.918 18.6306 21.918C18.2261 21.918 17.8982 21.5901 17.8982 21.1856L17.8983 24.584C17.8983 24.1795 18.2262 23.8516 18.6307 23.8516Z" fill="black"/>
<path d="M22.8936 11.6162C22.8936 12.0207 23.2215 12.3486 23.626 12.3486H44.567C44.9715 12.3486 45.2994 12.0207 45.2994 11.6162C45.2994 11.2117 44.9715 10.8838 44.567 10.8838H23.626C23.2215 10.8838 22.8936 11.2117 22.8936 11.6162Z" fill="black"/>
<path d="M31.567 16.0871H23.626C23.2215 16.0871 22.8936 16.415 22.8936 16.8195C22.8936 17.224 23.2215 17.552 23.626 17.552H31.567C31.9715 17.552 32.2994 17.224 32.2994 16.8195C32.2994 16.415 31.9715 16.0871 31.567 16.0871Z" fill="black"/>
<path d="M40.567 21.2904H23.626C23.2215 21.2904 22.8936 21.6184 22.8936 22.0229C22.8936 22.4273 23.2215 22.7553 23.626 22.7553H40.567C40.9715 22.7553 41.2994 22.4273 41.2994 22.0229C41.2994 21.6184 40.9715 21.2904 40.567 21.2904Z" fill="black"/>
<path d="M35.567 26.4937H23.626C23.2215 26.4937 22.8936 26.8217 22.8936 27.2262C22.8936 27.6306 23.2215 27.9586 23.626 27.9586H35.567C35.9715 27.9586 36.2994 27.6306 36.2994 27.2262C36.2994 26.8217 35.9715 26.4937 35.567 26.4937Z" fill="black"/>
<path d="M40.567 31.6971H23.626C23.2215 31.6971 22.8936 32.0251 22.8936 32.4296C22.8936 32.8341 23.2215 33.162 23.626 33.162H40.567C40.9715 33.162 41.2994 32.8341 41.2994 32.4296C41.2994 32.0251 40.9715 31.6971 40.567 31.6971Z" fill="black"/>
</svg>
