<svg width="102" height="101" viewBox="0 0 102 101" fill="none" xmlns="http://www.w3.org/2000/svg">
<g filter="url(#filter0_d_117_3844)">
<rect x="25.8242" y="15" width="51" height="51" rx="10" fill="white"/>
<path fill-rule="evenodd" clip-rule="evenodd" d="M48.6845 55.9723C45.3065 55.7789 41.8459 55.2169 37.8712 54.3509L35.8242 53.8995V27.0359L37.8712 26.5845C41.901 25.7001 45.3524 25.175 48.6845 25V27.6716C45.1597 27.8743 42.0019 28.3441 38.422 29.1272V51.7899C42.0295 52.5821 45.178 53.0151 48.6845 53.2546V55.9723Z" fill="#577D31"/>
<path fill-rule="evenodd" clip-rule="evenodd" d="M64.4266 26.5939L66.4736 27.0453V53.9089L62.8936 54.6919C59.5248 55.4289 56.5231 55.8527 53.6133 56.0001V53.2824C56.5599 53.0982 59.3504 52.7942 62.3429 52.1401L63.8758 51.8084V29.1458C60.305 28.3627 57.1382 27.8928 53.6133 27.6902V25.0186C56.9454 25.1844 60.3968 25.7187 64.4266 26.5939Z" fill="#577D31"/>
<path fill-rule="evenodd" clip-rule="evenodd" d="M40.3682 33.5492V30.767V30.721C43.0669 30.1314 45.8391 29.7537 48.6847 29.6155V34.9311V37.2618V38.3028V39.3438H53.614V38.3028V37.2618V34.9311V29.6155C56.4504 29.7537 59.2318 30.1314 61.9305 30.721V30.767V33.5492V34.9403V36.3314V45.1477V46.0229V47.46V50.2422C59.2318 50.8318 56.4596 51.2095 53.614 51.3477V46.0321V44.0699V43.8764V42.1352H48.6847V43.8764V44.0699V46.0321V51.3477C45.8483 51.2095 43.0669 50.8318 40.3682 50.2422V47.46V46.0229V45.1477V36.3314V34.9403V33.5492Z" fill="#B48352"/>
<path fill-rule="evenodd" clip-rule="evenodd" d="M40.3684 33.0702V32.3332L40.451 32.4529C40.9191 33.1347 41.4056 33.8164 41.8921 34.4797C42.2868 35.014 42.6265 35.5667 42.6724 36.2485C42.7274 36.9578 42.7642 37.6672 42.7091 38.3766C42.6173 39.3899 42.5439 40.3849 42.8652 41.3614C42.9753 41.6838 42.9477 42.0707 42.9018 42.4024C42.7642 43.3973 42.5989 44.3923 42.4337 45.3872C42.2593 46.4651 41.8829 47.5245 41.9839 48.63C42.039 49.1828 41.9288 49.6987 41.6351 50.1685C41.58 50.2606 41.5249 50.362 41.4974 50.4725C41.3414 50.4449 41.1853 50.408 41.0293 50.3804C41.066 50.2422 41.1027 50.104 41.1302 49.9658C41.167 49.8276 41.2312 49.671 41.3322 49.5697C41.5433 49.3578 41.525 49.0722 41.5433 48.7959C41.58 48.1602 41.6259 47.5337 41.6994 46.8981C41.7085 46.8428 41.7085 46.7875 41.7177 46.7323C41.5066 47.1376 41.3047 47.543 41.1394 47.9575C40.8916 48.6024 40.6621 49.2473 40.451 49.9014L40.3592 50.1869V48.2155C40.607 47.2021 40.864 46.1887 41.121 45.1754C41.3414 44.3278 41.2312 43.5263 40.7355 42.8354C40.7539 43.0473 40.7814 43.2592 40.7998 43.471C40.8273 43.8211 40.8457 44.1712 40.8089 44.5213C40.7355 45.2859 40.5795 46.0505 40.451 46.806L40.4326 46.8981L40.35 46.8889V46.0137V45.1385V44.945C40.3775 44.6963 40.3959 44.4476 40.4142 44.1896C40.4418 43.7566 40.4234 43.3144 40.35 42.8814V41.1127L40.4418 41.2969C40.7539 41.951 41.0568 42.6143 41.3781 43.2592C41.4607 43.4158 41.525 43.5724 41.5709 43.7382C41.4974 43.0381 41.2863 42.3747 40.9558 41.7299C40.8365 41.4904 40.7263 41.2508 40.6162 41.0113C40.2398 40.1638 40.2674 39.3807 40.7355 38.6621C40.6621 38.7358 40.5887 38.8187 40.506 38.8924C40.4785 38.9201 40.4418 38.9569 40.4142 38.9846L40.3408 39.0675V37.8699C40.4326 37.6948 40.4418 37.4921 40.3408 37.3263V36.8196L40.3959 36.8657C40.6896 37.0776 40.763 37.4092 40.7172 37.7409C40.7998 37.4922 40.8273 37.2158 40.8181 36.9302C40.7998 36.617 40.6621 36.4235 40.3408 36.4143V36.313V35.6128L40.3775 35.6312C40.5519 35.7049 40.7172 35.7971 40.8732 35.8984C41.0017 35.9813 41.1119 36.0826 41.2128 36.184C41.0752 35.9813 40.9008 35.8063 40.6805 35.6497C40.5703 35.576 40.4601 35.5022 40.35 35.4285V34.9311V34.8297L40.4142 34.8758C40.7814 35.1614 41.0935 35.5023 41.4515 35.7971C41.6443 35.9537 41.7361 36.2392 41.8095 36.4696C42.0849 37.3816 41.9747 38.2568 41.6443 39.1412C41.5066 39.5189 41.3689 39.9427 41.3873 40.348C41.4148 41.2877 41.6259 42.1997 42.0206 43.0565C42.0849 43.1947 42.1675 43.3144 42.2501 43.4434C42.3695 42.7525 42.6081 42.0247 42.397 41.3246C42.1033 40.3757 42.0941 39.4176 42.1859 38.441C42.2318 37.9436 42.2134 37.4461 42.195 36.9486C42.1583 36.1564 41.9656 35.3917 41.5341 34.7192C41.1853 34.1572 40.7906 33.6045 40.3684 33.0702ZM40.9191 30.6012L40.9375 30.6289C41.0935 30.9052 41.2955 31.1263 41.5433 31.3198C41.8371 31.5501 42.1308 31.7712 42.4245 32.0015C42.8192 32.3147 43.012 32.7293 43.0579 33.236C43.1497 34.1664 43.2782 35.0877 43.3608 36.0182C43.4251 36.8104 43.4893 37.6119 43.4618 38.4042C43.4343 39.1596 43.572 39.8782 43.829 40.5875C44.1319 41.4167 44.3614 42.2827 44.1594 43.167C44.0768 43.5448 43.9116 43.904 43.7739 44.2633C43.3516 45.3135 43.0671 46.4006 42.9936 47.5338C42.9294 48.5655 43.3149 49.4592 43.9667 50.2422C44.1319 50.4357 44.2971 50.666 44.3247 50.9239C44.4715 50.9424 44.6092 50.9608 44.7561 50.9792V50.9608C44.7469 50.6476 44.6092 50.3712 44.3981 50.1501C43.9758 49.6895 43.6454 49.1643 43.4802 48.5563C43.3149 47.9483 43.3333 47.3311 43.4985 46.723C43.728 45.8387 43.9391 44.945 44.2879 44.0975C44.7469 42.992 44.6735 41.9049 44.4073 40.7626C44.3522 40.5415 44.2879 40.3112 44.2145 40.0993C43.9299 39.2702 43.8473 38.4226 43.8473 37.5474C43.8473 36.7091 43.6913 35.8708 43.6087 35.0416C43.5536 34.535 43.4618 34.0283 43.471 33.5216C43.4893 32.7201 43.1956 32.0936 42.553 31.6146C42.397 31.504 42.2501 31.3751 42.0941 31.2645C41.8095 31.0618 41.5525 30.8131 41.3689 30.5183C41.2129 30.5459 41.066 30.5736 40.9191 30.6012ZM43.4434 30.1498C43.6362 30.1222 43.8198 30.0945 44.0126 30.0669C44.1594 30.8131 44.3063 31.5685 44.4532 32.3147C44.6092 33.0886 44.8203 33.8532 44.9489 34.6271C45.0131 35.014 44.9397 35.4101 44.9029 35.7971C44.857 36.359 44.9397 36.8841 45.1324 37.4093C45.5914 38.6069 45.8852 39.8597 46.032 41.1311C46.1789 42.4024 46.1697 43.6829 46.032 44.9542C45.9494 45.7649 45.8301 46.5756 45.7291 47.3771C45.6649 47.893 45.6832 48.4642 46.0596 48.8604C46.7113 49.5421 47.1335 50.3343 47.464 51.2095L47.4824 51.2556C47.3447 51.2464 47.207 51.2372 47.0693 51.228C46.7572 50.5462 46.3258 49.9198 45.8943 49.321C45.3528 48.5748 45.2426 47.7917 45.3986 46.8981C45.9678 43.6553 45.8851 40.4586 44.7377 37.3448C44.5082 36.7183 44.4991 36.0826 44.545 35.4285C44.5633 35.1245 44.545 34.8021 44.4715 34.5073C44.1319 33.0517 43.7831 31.6054 43.4434 30.1498ZM45.3252 29.8919C45.3528 30.5736 45.3344 31.2645 45.4354 31.9462C45.6281 33.2176 45.9127 34.4705 46.1697 35.7234C46.6103 37.8699 47.0601 40.0164 47.5191 42.1629C47.7577 43.296 47.9505 44.4291 47.8404 45.5899C47.7302 46.7507 47.9322 47.8562 48.6023 48.8143L48.6849 48.934V47.7088C48.6206 47.589 48.5564 47.4785 48.5013 47.3587C48.3728 47.1008 48.2993 46.7691 48.3177 46.4743C48.4829 44.337 47.9505 42.3011 47.4824 40.2375C47.1703 38.8464 46.9224 37.4369 46.6562 36.0366C46.6929 36.1471 46.7388 36.2485 46.7847 36.359C47.6751 38.4687 48.0882 40.7257 48.5931 42.9459L48.6114 43.0288L48.6849 43.0196V42.126H48.8317V42.1076C48.6206 41.1126 48.4095 40.1269 48.1433 39.1504C47.7669 37.7593 47.207 36.4327 46.7755 35.0601C46.2523 33.365 45.8117 31.6146 46.1789 29.8366L46.1881 29.809C45.9035 29.8274 45.6098 29.8642 45.3252 29.8919ZM46.5369 29.7721C46.2982 31.3935 46.5277 32.9596 47.1978 34.452C47.7486 35.6773 48.2075 36.9486 48.5931 38.2384L48.6849 38.5608V38.3121V37.271V37.1789C48.3452 36.1287 47.9597 35.0969 47.5099 34.0928C46.9683 32.8767 46.7756 31.6146 46.9041 30.2788C46.9224 30.1037 46.9316 29.9195 46.95 29.7445V29.726C46.8123 29.7444 46.6746 29.7537 46.5369 29.7721ZM47.3722 29.6984C47.464 30.417 47.5466 31.1448 47.7394 31.8449C47.9781 32.7293 48.2718 33.5861 48.5931 34.4428L48.6849 34.6823V33.5216C48.3269 32.5451 48.0515 31.5501 47.9505 30.5091C47.923 30.2327 47.8863 29.9471 47.8495 29.6708C47.6935 29.6708 47.5283 29.6892 47.3722 29.6984ZM48.4462 29.6247C48.5288 29.6247 48.6023 29.6155 48.6849 29.6155V30.2419L48.5931 30.0024C48.5472 29.8919 48.5013 29.7721 48.4646 29.6523L48.4462 29.6247ZM48.896 39.3438H49.3091C49.5477 40.2559 49.7588 41.1771 49.9516 42.1076V42.126H49.5294C49.4926 41.9418 49.4559 41.7668 49.4192 41.5825C49.2632 40.8455 49.0979 40.0993 48.9052 39.3715L48.896 39.3438ZM50.741 39.3438H51.1817C51.2643 39.5281 51.3377 39.7216 51.4203 39.9058C51.7232 40.6244 51.9527 41.3614 52.2006 42.0892L52.2098 42.1168H51.7599C51.659 41.8497 51.5672 41.5825 51.4846 41.3153C51.2826 40.652 51.0348 40.0164 50.7594 39.3807L50.741 39.3438ZM52.4025 39.3438H52.8339C52.8523 39.3899 52.8798 39.4268 52.8982 39.4728C53.5591 40.6612 54.3669 41.7667 55.138 42.8814C55.652 43.6276 56.3772 44.1159 57.24 44.3647C57.341 44.3923 57.4512 44.4291 57.5522 44.466C58.672 44.8437 59.0576 45.3596 59.0484 46.548C59.0484 46.7138 59.0484 46.8889 59.0392 47.0547C59.03 47.414 59.1769 47.6811 59.4982 47.8378C60.205 48.1878 60.7374 48.6945 61.0954 49.4039C61.2514 49.7079 61.4809 49.9751 61.6737 50.2422L61.7012 50.2791C61.5085 50.3159 61.3157 50.362 61.1229 50.3988C60.9577 50.1224 60.8016 49.8461 60.664 49.5605C60.4345 49.0814 60.1407 48.6761 59.6451 48.455C58.8832 48.1049 58.571 47.5337 58.6169 46.6954C58.672 45.6176 58.3966 45.1938 57.3594 44.8898C55.7346 44.4107 54.7341 43.2684 53.8437 41.8957C53.3205 41.0942 52.8431 40.2559 52.4117 39.3991L52.4025 39.3438ZM53.5499 39.3438C53.7152 39.5649 53.9079 39.7584 54.0548 39.9887C54.9911 41.4259 56.2579 42.4485 57.8551 43.0749C58.5619 43.3513 59.2595 43.6645 59.9296 44.0146C60.563 44.337 60.8292 44.8713 60.82 45.5715C60.8108 46.502 61.1505 47.3495 61.6737 48.1141C61.7288 48.1971 61.793 48.2708 61.8573 48.3445L61.9307 48.4181V47.8101C61.9032 47.7733 61.8848 47.7364 61.8573 47.6996C61.4993 47.0731 61.2514 46.3914 61.2423 45.6728C61.2331 44.6042 60.6915 43.8948 59.7552 43.4526C59.131 43.1578 58.4793 42.8999 57.8459 42.6235C56.4139 41.997 55.239 41.0666 54.3945 39.7308C54.2659 39.5281 54.1282 39.2794 53.9171 39.1412C53.8345 39.0859 53.7519 39.0214 53.6876 38.9477L53.6142 38.8648V39.3531H53.5499V39.3438ZM53.6142 33.8348C53.6785 34.0006 53.7611 34.1665 53.8437 34.3231C54.064 34.7284 54.165 35.189 54.3485 35.6128C54.5505 36.0826 54.7891 36.5433 55.037 36.9855C55.1655 37.2158 55.3766 37.3908 55.5051 37.6211C56.3313 39.0859 57.5063 40.2651 58.7455 41.3798C59.7277 42.2642 60.6823 43.1855 61.8848 43.7566L61.9307 43.775V43.2131C61.4534 42.9091 60.976 42.6051 60.5079 42.2734C60.2233 42.08 59.9847 41.822 59.7001 41.6193C58.7271 40.8915 57.8551 40.044 57.1024 39.0859C56.4047 38.1923 55.7713 37.2526 55.1288 36.313C54.9727 36.0919 54.8993 35.7971 54.8075 35.5483C54.6056 35.0048 54.3944 34.452 54.2109 33.8993C54.0364 33.3742 53.8529 32.8491 53.7519 32.3055C53.7335 32.2226 53.7244 32.1489 53.706 32.066L53.6876 31.9739L53.605 31.9831V33.8348H53.6142ZM55.2481 29.726L55.2573 29.7629C55.294 29.8642 55.3216 29.9748 55.3399 30.0761C55.496 30.85 55.5878 31.633 55.6979 32.4161C55.9182 33.8624 56.3405 35.1982 57.2584 36.359C57.5613 36.7459 57.6715 37.3171 57.8551 37.7685C58.0203 38.1647 58.1121 38.7174 58.4334 39.0122C59.0025 39.5281 59.6726 39.9242 60.3243 40.3204C60.8108 40.606 61.3432 40.7902 61.8756 40.9837L61.9124 40.9929V40.4954C60.9394 40.1361 60.0306 39.6294 59.1769 39.0306C58.7179 38.7082 58.4058 38.3028 58.3232 37.7317C58.2223 37.0315 57.9285 36.4235 57.4879 35.8708C56.983 35.2443 56.5883 34.5349 56.4231 33.7427C56.1844 32.6188 56.0192 31.4764 55.7989 30.3525C55.7622 30.159 55.7346 29.9563 55.6887 29.7629C55.551 29.7445 55.4042 29.7352 55.2481 29.726ZM56.524 29.8458C56.6893 29.8642 56.8637 29.8826 57.0289 29.9011C58.158 31.9002 59.3146 33.8809 60.4895 35.8523C60.7833 36.3406 61.3708 36.5985 61.9215 36.6538V37.0315H61.9124C61.7012 37.0223 61.4901 36.9947 61.279 36.9763C60.7649 36.9118 60.306 36.6262 60.104 36.1379C59.1586 33.9361 57.6806 32.0199 56.5516 29.9103L56.524 29.8458ZM58.516 30.0945C58.7088 30.1222 58.9015 30.1498 59.0943 30.1866C59.333 30.4446 59.5808 30.6841 59.8562 30.9052C60.306 31.2737 60.6915 31.6883 60.9761 32.195C61.2147 32.6095 61.5268 32.9504 61.9307 33.2083V33.5492V33.6598L61.8848 33.6321C61.435 33.3742 61.0587 33.0149 60.7558 32.6003C60.462 32.195 60.1866 31.7528 59.8194 31.4119C59.3972 31.025 58.9841 30.6196 58.6078 30.1866L58.516 30.0945ZM60.9393 30.5183C61.2698 30.5828 61.6003 30.6565 61.9215 30.721V30.767V31.2829L61.8573 31.2277C61.7196 31.1079 61.5727 30.9881 61.4167 30.8776C61.3065 30.8039 61.2055 30.721 61.0954 30.6381L60.9393 30.5183ZM58.6996 50.8318L58.6078 50.7673C58.2498 50.5186 57.8551 50.4357 57.4236 50.4909C57.0565 50.537 56.726 50.3896 56.5057 50.0856C55.6612 48.934 54.8259 47.7733 54.5229 46.3453C54.3761 45.6544 54.1099 45.0187 53.6876 44.466L53.605 44.3647V45.1385C53.7427 45.3688 53.8437 45.636 53.8988 45.9031C54.1833 47.4416 54.9268 48.7774 55.6979 50.104C55.9641 50.5647 56.3221 50.9239 56.8086 51.0806C57.4512 51.0069 58.0754 50.9239 58.6996 50.8318ZM41.5892 44.9727C41.4515 45.4794 41.3046 45.9861 41.1578 46.502C41.1027 46.6954 41.0476 46.8889 40.9925 47.0915C40.9834 47.1284 40.9742 47.1652 40.965 47.2113C41.2771 46.4927 41.5066 45.7465 41.5892 44.9727ZM41.3414 38.6898C41.066 39.0767 40.8732 39.5189 40.8273 39.9887C40.7906 40.3757 40.8549 40.7441 41.0293 41.0758C40.8824 40.2559 41.0935 39.482 41.3414 38.6898ZM41.2312 37.2342C41.2404 37.1697 41.2404 37.096 41.2312 37.0315V37.2342Z" fill="#8A5A30"/>
</g>
<path d="M51.0608 69.4999C51.0608 69.4999 49.0424 67.0353 48.0608 66.4999C42.5607 63.4999 60.5601 63.5001 54.0608 66.4999C53.0452 66.9687 51.0608 69.4999 51.0608 69.4999Z" fill="white"/>
<defs>
<filter id="filter0_d_117_3844" x="0.824219" y="0" width="101" height="101" filterUnits="userSpaceOnUse" color-interpolation-filters="sRGB">
<feFlood flood-opacity="0" result="BackgroundImageFix"/>
<feColorMatrix in="SourceAlpha" type="matrix" values="0 0 0 0 0 0 0 0 0 0 0 0 0 0 0 0 0 0 127 0" result="hardAlpha"/>
<feOffset dy="10"/>
<feGaussianBlur stdDeviation="12.5"/>
<feComposite in2="hardAlpha" operator="out"/>
<feColorMatrix type="matrix" values="0 0 0 0 0.541176 0 0 0 0 0.352941 0 0 0 0 0.188235 0 0 0 0.15 0"/>
<feBlend mode="normal" in2="BackgroundImageFix" result="effect1_dropShadow_117_3844"/>
<feBlend mode="normal" in="SourceGraphic" in2="effect1_dropShadow_117_3844" result="shape"/>
</filter>
</defs>
</svg>
