<svg width="23" height="22" viewBox="0 0 23 22" fill="none" xmlns="http://www.w3.org/2000/svg">
<path d="M1.84637 10.2932C7.75194 7.72028 11.6899 6.02402 13.6603 5.20448C19.2861 2.86451 20.4551 2.45803 21.217 2.44447C21.3846 2.44166 21.7593 2.48319 22.002 2.68013C22.207 2.84643 22.2633 3.07107 22.2903 3.22874C22.3173 3.38641 22.3509 3.74558 22.3242 4.02622C22.0193 7.22946 20.7002 15.0029 20.0291 18.5906C19.7451 20.1087 19.186 20.6177 18.6447 20.6675C17.4682 20.7757 16.5749 19.89 15.4355 19.1431C13.6526 17.9744 12.6453 17.2468 10.9146 16.1063C8.91457 14.7883 10.2111 14.0639 11.351 12.88C11.6493 12.5702 16.8326 7.85559 16.9329 7.42791C16.9454 7.37442 16.9571 7.17503 16.8386 7.06975C16.7202 6.96447 16.5454 7.00047 16.4192 7.0291C16.2404 7.06969 13.3921 8.9523 7.87433 12.6769C7.06586 13.2321 6.33356 13.5026 5.67745 13.4884C4.95414 13.4728 3.56279 13.0795 2.52846 12.7432C1.25981 12.3308 0.251514 12.1128 0.339314 11.4125C0.385046 11.0477 0.887398 10.6746 1.84637 10.2932Z" fill="url(#paint0_linear_124_4515)"/>
<defs>
<linearGradient id="paint0_linear_124_4515" x1="11.334" y1="2.44434" x2="11.334" y2="20.5412" gradientUnits="userSpaceOnUse">
<stop stop-color="#2AABEE"/>
<stop offset="1" stop-color="#229ED9"/>
</linearGradient>
</defs>
</svg>
