<svg width="23" height="22" viewBox="0 0 23 22" fill="none" xmlns="http://www.w3.org/2000/svg">
<path d="M19.1039 2.15156C18.5842 1.66081 16.5052 0.0442215 11.8274 0.0153538C11.8274 0.0153538 6.3289 -0.331062 3.64805 2.26703C2.14349 3.85475 1.62374 6.1353 1.56903 8.99319C1.51431 11.8511 1.43225 17.1916 6.3289 18.6639V20.8867C6.3289 20.8867 6.30154 21.7816 6.84865 21.9548C7.53254 22.1857 7.91552 21.4929 8.57205 20.7712C8.92767 20.367 9.42007 19.7897 9.77569 19.3278C13.1131 19.6165 15.6845 18.9525 15.9854 18.8371C16.6693 18.6061 20.4717 18.0865 21.1009 12.746C21.7574 7.2034 20.8273 3.71041 19.1039 2.15156ZM19.6784 12.313C19.1587 16.7875 16.0675 17.0761 15.493 17.2493C15.2468 17.3359 13.0037 17.9133 10.1587 17.7401C10.1587 17.7401 8.0523 20.4248 7.36841 21.1465C7.25899 21.2619 7.14956 21.2908 7.0675 21.2908C6.95807 21.2619 6.93072 21.1176 6.93072 20.9155C6.93072 20.6269 6.95808 17.2205 6.95808 17.2205C2.82738 16.008 3.07358 11.4469 3.10094 9.05092C3.15565 6.65491 3.56599 4.72078 4.82434 3.39286C7.09486 1.22779 11.7727 1.54534 11.7727 1.54534C15.7119 1.5742 17.5994 2.81551 18.0371 3.24853C19.4596 4.57644 20.1982 7.72302 19.6784 12.313Z" fill="#7360F2"/>
<path fill-rule="evenodd" clip-rule="evenodd" d="M11.8925 7.13067C11.9003 6.97728 12.0245 6.85965 12.1699 6.86794C12.7201 6.89933 13.1748 7.07486 13.4979 7.42913C13.8196 7.78176 13.9761 8.27357 14.0055 8.86319C14.0132 9.01659 13.9015 9.14749 13.7562 9.15556C13.6108 9.16363 13.4868 9.04582 13.4791 8.89242C13.4538 8.38503 13.3231 8.03964 13.1181 7.81489C12.9146 7.59179 12.6034 7.44976 12.1414 7.42341C11.9961 7.41512 11.8846 7.28405 11.8925 7.13067Z" fill="#7360F2"/>
<path fill-rule="evenodd" clip-rule="evenodd" d="M11.5373 5.62266C11.5487 5.46952 11.6756 5.35518 11.8207 5.36727C12.9118 5.45817 13.8003 5.85603 14.4564 6.61135C15.0804 7.33261 15.4028 8.27076 15.3736 9.34769C15.3695 9.50124 15.2481 9.62216 15.1026 9.61777C14.9571 9.61339 14.8425 9.48535 14.8467 9.3318C14.8722 8.38801 14.5925 7.59372 14.0676 6.98703C13.5201 6.35679 12.7672 6.00413 11.7793 5.92182C11.6341 5.90974 11.5258 5.77579 11.5373 5.62266Z" fill="#7360F2"/>
<path fill-rule="evenodd" clip-rule="evenodd" d="M11.0167 4.23005C11.0167 4.07644 11.1347 3.95191 11.2802 3.95191C12.8223 3.95191 14.1204 4.49704 15.1571 5.56066C16.2014 6.63205 16.7416 8.09438 16.7416 9.91719C16.7416 10.0708 16.6236 10.1953 16.478 10.1953C16.3324 10.1953 16.2144 10.0708 16.2144 9.91719C16.2144 8.21801 15.7151 6.90895 14.7897 5.95951C13.8567 5.00233 12.6927 4.50819 11.2802 4.50819C11.1347 4.50819 11.0167 4.38366 11.0167 4.23005Z" fill="#7360F2"/>
<path d="M12.2104 12.6017C12.2104 12.6017 12.5933 12.6305 12.7848 12.3707L13.1678 11.8511C13.3593 11.5913 13.797 11.4181 14.262 11.6779C14.5082 11.8222 14.9459 12.1109 15.2195 12.3418C15.5204 12.5728 16.1222 13.0924 16.1222 13.0924C16.4231 13.3522 16.4778 13.7275 16.2863 14.1316C16.0948 14.5069 15.8213 14.8533 15.4657 15.1709C15.1921 15.4307 14.9186 15.5462 14.645 15.6039H14.5356C14.4262 15.6039 14.2894 15.575 14.1799 15.5461C13.7696 15.4307 13.0857 15.1131 11.9094 14.4492C11.1708 14.0162 10.5417 13.5543 10.0219 13.1213C9.74835 12.8903 9.44744 12.6305 9.17388 12.313L9.06446 12.1975C8.76355 11.88 8.51734 11.5913 8.2985 11.3026C7.88817 10.7541 7.45048 10.0902 7.04014 9.31073C6.41096 8.09829 6.11006 7.3766 6.00063 6.91472C5.97328 6.79925 5.94592 6.68378 5.94592 6.53944V6.42397C5.97328 6.13529 6.11005 5.84661 6.35625 5.55794C6.65716 5.21152 6.98543 4.92285 7.34105 4.69191C7.72403 4.48983 8.07966 4.54757 8.32586 4.86512C8.32586 4.86512 8.81826 5.50021 9.0371 5.81775C9.22859 6.10643 9.50214 6.56831 9.66628 6.82812C9.91248 7.29 9.74835 7.78075 9.5295 7.98283L9.0371 8.38697C8.7909 8.58905 8.81825 8.99319 8.81825 8.99319C8.81825 8.99319 9.50215 11.8511 12.2104 12.6017Z" fill="#7360F2"/>
</svg>
