<svg width="23" height="22" viewBox="0 0 23 22" fill="none" xmlns="http://www.w3.org/2000/svg">
<path fill-rule="evenodd" clip-rule="evenodd" d="M16.374 13.1837C16.1003 13.0473 14.7547 12.3883 14.5037 12.2974C14.2529 12.2066 14.0705 12.1611 13.888 12.4338C13.7055 12.7065 13.181 13.32 13.0213 13.5018C12.8617 13.6836 12.702 13.7064 12.4283 13.57C12.1546 13.4337 11.2727 13.146 10.2273 12.218C9.41364 11.4958 8.86433 10.6037 8.70464 10.331C8.545 10.0583 8.68764 9.91088 8.82471 9.77505C8.94778 9.65306 9.09836 9.45695 9.23522 9.29787C9.37207 9.13879 9.41769 9.02517 9.50892 8.84341C9.60016 8.6616 9.55454 8.50252 9.48609 8.36617C9.41769 8.22983 8.87033 6.88909 8.64224 6.34371C8.42009 5.81257 8.19442 5.88443 8.02642 5.8761C7.86694 5.86819 7.68431 5.86652 7.50184 5.86652C7.31937 5.86652 7.02288 5.93472 6.77195 6.20736C6.52108 6.48005 5.81403 7.13911 5.81403 8.47979C5.81403 9.82052 6.79479 11.1158 6.93164 11.2976C7.0685 11.4794 8.86164 14.2308 11.6072 15.4106C12.2603 15.6913 12.7701 15.8588 13.1676 15.9845C13.8233 16.1917 14.4199 16.1625 14.8915 16.0924C15.4174 16.0142 16.5109 15.4334 16.739 14.7971C16.967 14.1608 16.967 13.6154 16.8986 13.5018C16.8302 13.3882 16.6477 13.32 16.374 13.1837ZM11.38 19.9698H11.3763C9.74259 19.9692 8.14023 19.5324 6.74238 18.7068L6.4099 18.5104L2.96404 19.41L3.88382 16.0664L3.6673 15.7237C2.75594 14.281 2.27461 12.6136 2.2753 10.9015C2.2773 5.90565 6.3616 1.84118 11.3836 1.84118C13.8154 1.84212 16.1014 2.78586 17.8203 4.4985C19.5393 6.21118 20.4854 8.48775 20.4845 10.9088C20.4824 15.905 16.3982 19.9698 11.38 19.9698ZM19.1286 3.1971C17.0605 1.1365 14.3102 0.00115204 11.3799 0C5.34222 0 0.428272 4.89009 0.425852 10.9008C0.425063 12.8222 0.929438 14.6977 1.88799 16.3509L0.333984 22L6.14088 20.4841C7.74082 21.3526 9.54218 21.8102 11.3755 21.811H11.38H11.38C17.4171 21.811 22.3315 16.9203 22.334 10.9095C22.3351 7.99663 21.1968 5.25765 19.1286 3.1971Z" fill="url(#paint0_linear_124_4517)"/>
<defs>
<linearGradient id="paint0_linear_124_4517" x1="11.334" y1="22" x2="11.334" y2="-2.52773e-05" gradientUnits="userSpaceOnUse">
<stop stop-color="#61FD7D"/>
<stop offset="1" stop-color="#25CF43"/>
</linearGradient>
</defs>
</svg>
