<svg width="166" height="32" viewBox="0 0 166 32" fill="none" xmlns="http://www.w3.org/2000/svg">
<path fill-rule="evenodd" clip-rule="evenodd" d="M58.1323 6.96729V25.0422H53.9557V17.6353H45.7768V25.0422H41.6094V6.96729H45.7768V14.0977H53.9557V6.96729H58.1323Z" fill="black"/>
<path fill-rule="evenodd" clip-rule="evenodd" d="M77.7956 10.5049H66.4682V21.5046H77.7956V25.0422H66.4682H62.3008V6.96729H66.4682H77.7956V10.5049Z" fill="black"/>
<path fill-rule="evenodd" clip-rule="evenodd" d="M122.5 10.5049V21.5046V25.0422H126.667V6.96729H122.5H120.398H115.799L114.156 10.5049L107.391 25.0422H111.98L118.755 10.5049H122.5Z" fill="black"/>
<path fill-rule="evenodd" clip-rule="evenodd" d="M97.4668 10.5049H86.1303V21.5046H97.4668V25.0422H86.1303H81.9629V6.96729H86.1303H97.4668V10.5049Z" fill="black"/>
<path fill-rule="evenodd" clip-rule="evenodd" d="M146.329 10.5049H135.001V14.2359H141.262V17.7735H135.001V21.5046H146.329V25.0422H135.001H130.834V6.96729H135.001H146.329V10.5049Z" fill="black"/>
<path fill-rule="evenodd" clip-rule="evenodd" d="M166 10.5049H154.664V21.5046H166V25.0422H154.664H150.496V6.96729H154.664H166V10.5049Z" fill="black"/>
<path fill-rule="evenodd" clip-rule="evenodd" d="M107.436 14.2358H97.4668V17.7735H105.793L107.436 14.2358Z" fill="black"/>
<path fill-rule="evenodd" clip-rule="evenodd" d="M12.8603 31.4723C9.48231 31.2789 6.02168 30.7169 2.04701 29.8509L0 29.3995V2.53595L2.04701 2.08455C6.07676 1.20015 9.52821 0.675037 12.8603 0.5V3.17161C9.33544 3.37429 6.17771 3.84411 2.59775 4.62717V27.2899C6.20525 28.0821 9.3538 28.5151 12.8603 28.7546V31.4723Z" fill="#577D31"/>
<path fill-rule="evenodd" clip-rule="evenodd" d="M28.6024 2.09388L30.6494 2.54531V29.4089L27.0694 30.1919C23.7006 30.9289 20.6989 31.3527 17.7891 31.5001V28.7824C20.7356 28.5982 23.5262 28.2942 26.5186 27.6401L28.0516 27.3084V4.64575C24.4808 3.86269 21.3139 3.39284 17.7891 3.19017V0.518555C21.1212 0.684379 24.5726 1.21869 28.6024 2.09388Z" fill="#577D31"/>
<path fill-rule="evenodd" clip-rule="evenodd" d="M4.54297 9.04922V6.26704V6.22099C7.24171 5.63139 10.0139 5.25367 12.8595 5.11548V10.4311V12.7618V13.8028V14.8438H17.7888V13.8028V12.7618V10.4311V5.11548C20.6252 5.25367 23.4066 5.63139 26.1053 6.22099V6.26704V9.04922V10.4403V11.8314V20.6477V21.5229V22.96V25.7422C23.4066 26.3318 20.6344 26.7095 17.7888 26.8477V21.5321V19.5699V19.3764V17.6352H12.8595V19.3764V19.5699V21.5321V26.8477C10.0231 26.7095 7.24171 26.3318 4.54297 25.7422V22.96V21.5229V20.6477V11.8314V10.4403V9.04922Z" fill="#B48352"/>
<path fill-rule="evenodd" clip-rule="evenodd" d="M4.54316 8.57016V7.83317L4.62577 7.95294C5.09392 8.63466 5.58041 9.31637 6.06691 9.97966C6.46163 10.514 6.80127 11.0667 6.84717 11.7485C6.90224 12.4578 6.93897 13.1672 6.88389 13.8766C6.7921 14.8899 6.71868 15.8849 7.03996 16.8614C7.15011 17.1838 7.12255 17.5707 7.07665 17.9024C6.93896 18.8973 6.77375 19.8923 6.60852 20.8872C6.43411 21.9651 6.05774 23.0245 6.15871 24.13C6.21379 24.6828 6.10363 25.1987 5.80989 25.6685C5.75482 25.7606 5.69975 25.862 5.67221 25.9725C5.51616 25.9449 5.36013 25.908 5.20408 25.8804C5.2408 25.7422 5.2775 25.604 5.30504 25.4658C5.34176 25.3276 5.40601 25.171 5.50699 25.0697C5.71811 24.8578 5.69976 24.5722 5.71812 24.2959C5.75484 23.6602 5.80072 23.0338 5.87416 22.3981C5.88333 22.3428 5.88335 22.2875 5.89253 22.2323C5.68141 22.6376 5.47946 23.043 5.31423 23.4575C5.06638 24.1024 4.8369 24.7473 4.62577 25.4014L4.53397 25.6869V23.7155C4.78182 22.7021 5.03883 21.6887 5.29585 20.6754C5.51616 19.8278 5.40602 19.0263 4.91033 18.3354C4.92869 18.5473 4.95624 18.7592 4.97459 18.971C5.00213 19.3211 5.02047 19.6712 4.98375 20.0213C4.91032 20.7859 4.75428 21.5505 4.62577 22.306L4.6074 22.3981L4.52479 22.3889V21.5137V20.6385V20.445C4.55232 20.1963 4.57069 19.9476 4.58905 19.6896C4.61659 19.2566 4.59822 18.8144 4.52479 18.3814V16.6127L4.61658 16.7969C4.92868 17.451 5.23159 18.1143 5.55287 18.7592C5.63549 18.9158 5.69976 19.0724 5.74566 19.2382C5.67222 18.5381 5.46109 17.8748 5.13063 17.2299C5.0113 16.9904 4.90115 16.7508 4.791 16.5113C4.41464 15.6638 4.44218 14.8807 4.91033 14.1621C4.8369 14.2358 4.76346 14.3187 4.68085 14.3924C4.65331 14.4201 4.61659 14.4569 4.58905 14.4846L4.51562 14.5675V13.3699C4.60742 13.1948 4.6166 12.9921 4.51562 12.8263V12.3196L4.5707 12.3657C4.86444 12.5776 4.93785 12.9092 4.89196 13.2409C4.97457 12.9922 5.00212 12.7158 4.99294 12.4302C4.97458 12.117 4.8369 11.9235 4.51562 11.9143V11.813V11.1128L4.55232 11.1312C4.72673 11.2049 4.89197 11.2971 5.04802 11.3984C5.17653 11.4813 5.28668 11.5826 5.38765 11.684C5.24996 11.4813 5.07556 11.3063 4.85526 11.1497C4.74511 11.076 4.63494 11.0022 4.52479 10.9285V10.4311V10.3297L4.58905 10.3758C4.95622 10.6614 5.26833 11.0023 5.62632 11.2971C5.81909 11.4537 5.91087 11.7392 5.9843 11.9696C6.25969 12.8816 6.14954 13.7568 5.81908 14.6412C5.68139 15.0189 5.5437 15.4427 5.56206 15.848C5.5896 16.7877 5.80073 17.6997 6.19544 18.5565C6.2597 18.6947 6.34231 18.8144 6.42492 18.9434C6.54426 18.2525 6.78292 17.5247 6.5718 16.8246C6.27806 15.8757 6.26887 14.9176 6.36066 13.941C6.40656 13.4436 6.38821 12.9461 6.36985 12.4486C6.33313 11.6564 6.14036 10.8917 5.70893 10.2192C5.36012 9.65724 4.96541 9.10448 4.54316 8.57016ZM5.0939 6.10122L5.11228 6.12886C5.26833 6.40523 5.47028 6.62633 5.71812 6.81979C6.01186 7.0501 6.30559 7.27119 6.59933 7.50151C6.99405 7.81473 7.18682 8.22929 7.23271 8.73597C7.32451 9.66643 7.45301 10.5877 7.53562 11.5182C7.59988 12.3104 7.66415 13.1119 7.63661 13.9042C7.60907 14.6596 7.74676 15.3782 8.00378 16.0875C8.3067 16.9167 8.53617 17.7827 8.33422 18.667C8.25161 19.0448 8.0864 19.404 7.9487 19.7633C7.52645 20.8135 7.24189 21.9006 7.16845 23.0338C7.1042 24.0655 7.48973 24.9592 8.14146 25.7422C8.30669 25.9357 8.47194 26.166 8.49947 26.4239C8.64634 26.4424 8.78404 26.4608 8.93091 26.4792V26.4608C8.92173 26.1476 8.78402 25.8712 8.5729 25.6501C8.15064 25.1895 7.82019 24.6643 7.65496 24.0563C7.48973 23.4483 7.50808 22.8311 7.67331 22.223C7.90279 21.3387 8.11393 20.445 8.46275 19.5975C8.92172 18.492 8.84829 17.4049 8.58208 16.2626C8.52701 16.0415 8.46273 15.8112 8.3893 15.5993C8.10474 14.7702 8.02213 13.9226 8.02213 13.0474C8.02213 12.2091 7.8661 11.3708 7.78348 10.5416C7.72841 10.035 7.63659 9.52827 7.64577 9.02159C7.66413 8.2201 7.37039 7.59365 6.72783 7.1146C6.57178 7.00405 6.42491 6.87507 6.26886 6.76452C5.9843 6.56184 5.7273 6.31311 5.54371 6.01831C5.38766 6.04595 5.24077 6.07358 5.0939 6.10122ZM7.61823 5.64982C7.811 5.62218 7.99461 5.59455 8.18738 5.56691C8.33425 6.31312 8.4811 7.06852 8.62797 7.81473C8.78402 8.58857 8.99515 9.35322 9.12366 10.1271C9.18792 10.514 9.11447 10.9101 9.07775 11.2971C9.03185 11.859 9.11447 12.3841 9.30724 12.9093C9.7662 14.1069 10.06 15.3597 10.2068 16.6311C10.3537 17.9024 10.3445 19.1829 10.2068 20.4542C10.1242 21.2649 10.0049 22.0756 9.90392 22.8771C9.83966 23.393 9.85801 23.9642 10.2344 24.3604C10.8861 25.0421 11.3083 25.8343 11.6388 26.7095L11.6572 26.7556C11.5195 26.7464 11.3818 26.7372 11.2441 26.728C10.932 26.0462 10.5006 25.4198 10.0691 24.821C9.52756 24.0748 9.4174 23.2917 9.57345 22.3981C10.1426 19.1553 10.06 15.9586 8.91253 12.8448C8.68304 12.2183 8.67387 11.5826 8.71977 10.9285C8.73813 10.6245 8.71978 10.3021 8.64635 10.0073C8.30671 8.55173 7.95787 7.10539 7.61823 5.64982ZM9.50002 5.39187C9.52756 6.07359 9.5092 6.76451 9.61017 7.44623C9.80294 8.71755 10.0875 9.97046 10.3445 11.2234C10.7851 13.3699 11.2349 15.5164 11.6939 17.6629C11.9325 18.796 12.1253 19.9291 12.0152 21.0899C11.905 22.2507 12.107 23.3562 12.7771 24.3143L12.8597 24.434V23.2088C12.7954 23.089 12.7312 22.9785 12.6761 22.8587C12.5476 22.6008 12.4741 22.2691 12.4925 21.9743C12.6577 19.837 12.1253 17.8011 11.6572 15.7375C11.3451 14.3464 11.0972 12.9369 10.831 11.5366C10.8677 11.6471 10.9136 11.7485 10.9595 11.859C11.8499 13.9687 12.263 16.2257 12.7679 18.4459L12.7862 18.5288L12.8597 18.5196V17.626H13.0066V17.6076C12.7954 16.6126 12.5843 15.6269 12.3181 14.6504C11.9417 13.2593 11.3818 11.9327 10.9504 10.5601C10.4271 8.86496 9.98652 7.1146 10.3537 5.3366L10.3629 5.30896C10.0783 5.32739 9.78458 5.36423 9.50002 5.39187ZM10.7117 5.2721C10.473 6.8935 10.7025 8.45961 11.3726 9.95203C11.9234 11.1773 12.3823 12.4486 12.7679 13.7384L12.8597 14.0608V13.8121V12.771V12.6789C12.52 11.6287 12.1345 10.5969 11.6847 9.59276C11.1431 8.37671 10.9504 7.11459 11.0789 5.77878C11.0972 5.60374 11.1064 5.4195 11.1248 5.24447V5.22602C10.9871 5.24445 10.8494 5.25368 10.7117 5.2721ZM11.547 5.19839C11.6388 5.91696 11.7214 6.64476 11.9142 7.34491C12.1529 8.22931 12.4466 9.08607 12.7679 9.94283L12.8597 10.1823V9.02159C12.5017 8.04506 12.2263 7.0501 12.1253 6.00909C12.0978 5.73272 12.0611 5.44713 12.0244 5.17075C11.8683 5.17075 11.7031 5.18917 11.547 5.19839ZM12.621 5.1247C12.7036 5.1247 12.7771 5.11548 12.8597 5.11548V5.74192L12.7679 5.50241C12.722 5.39187 12.6761 5.2721 12.6394 5.15234L12.621 5.1247ZM13.0708 14.8438H13.4839C13.7225 15.7559 13.9336 16.6771 14.1264 17.6076V17.626H13.7042C13.6674 17.4418 13.6307 17.2668 13.594 17.0825C13.438 16.3455 13.2727 15.5993 13.08 14.8715L13.0708 14.8438ZM14.9159 14.8438H15.3565C15.4391 15.0281 15.5125 15.2216 15.5951 15.4058C15.898 16.1244 16.1275 16.8614 16.3754 17.5892L16.3846 17.6168H15.9348C15.8338 17.3497 15.742 17.0825 15.6594 16.8153C15.4574 16.152 15.2096 15.5164 14.9342 14.8807L14.9159 14.8438ZM16.5773 14.8438H17.0088C17.0271 14.8899 17.0547 14.9268 17.073 14.9728C17.7339 16.1612 18.5417 17.2667 19.3128 18.3814C19.8268 19.1276 20.552 19.6159 21.4148 19.8647C21.5158 19.8923 21.626 19.9291 21.727 19.966C22.8469 20.3437 23.2324 20.8596 23.2232 22.048C23.2232 22.2138 23.2232 22.3889 23.214 22.5547C23.2048 22.914 23.3517 23.1811 23.673 23.3378C24.3798 23.6878 24.9122 24.1945 25.2702 24.9039C25.4262 25.2079 25.6557 25.4751 25.8485 25.7422L25.876 25.7791C25.6833 25.8159 25.4905 25.862 25.2977 25.8988C25.1325 25.6224 24.9765 25.3461 24.8388 25.0605C24.6093 24.5814 24.3156 24.1761 23.8199 23.955C23.058 23.6049 22.7459 23.0337 22.7917 22.1954C22.8468 21.1176 22.5714 20.6938 21.5342 20.3898C19.9094 19.9107 18.9089 18.7684 18.0185 17.3957C17.4953 16.5942 17.0179 15.7559 16.5865 14.8991L16.5773 14.8438ZM17.7247 14.8438C17.89 15.0649 18.0827 15.2584 18.2296 15.4887C19.1659 16.9259 20.4327 17.9485 22.0299 18.5749C22.7367 18.8513 23.4343 19.1645 24.1044 19.5146C24.7378 19.837 25.004 20.3713 24.9948 21.0715C24.9856 22.002 25.3253 22.8495 25.8485 23.6141C25.9036 23.6971 25.9678 23.7708 26.0321 23.8445L26.1055 23.9181V23.3101C26.078 23.2733 26.0596 23.2364 26.0321 23.1996C25.6741 22.5731 25.4262 21.8914 25.4171 21.1728C25.4079 20.1042 24.8663 19.3948 23.93 18.9526C23.3058 18.6578 22.6541 18.3999 22.0207 18.1235C20.5887 17.497 19.4138 16.5666 18.5693 15.2308C18.4407 15.0281 18.303 14.7794 18.0919 14.6412C18.0093 14.5859 17.9267 14.5214 17.8624 14.4477L17.789 14.3648V14.8531H17.7247V14.8438ZM17.789 9.33481C17.8533 9.50063 17.9359 9.66646 18.0185 9.82307C18.2388 10.2284 18.3398 10.689 18.5233 11.1128C18.7253 11.5826 18.964 12.0433 19.2118 12.4855C19.3403 12.7158 19.5514 12.8908 19.68 13.1211C20.5061 14.5859 21.6811 15.7651 22.9203 16.8798C23.9025 17.7642 24.8571 18.6855 26.0596 19.2566L26.1055 19.275V18.7131C25.6282 18.4091 25.1509 18.1051 24.6827 17.7734C24.3981 17.58 24.1595 17.322 23.8749 17.1193C22.9019 16.3915 22.0299 15.544 21.2772 14.5859C20.5795 13.6923 19.9462 12.7526 19.3036 11.813C19.1475 11.5919 19.0741 11.2971 18.9823 11.0483C18.7804 10.5048 18.5692 9.95202 18.3857 9.39927C18.2113 8.87416 18.0277 8.34907 17.9267 7.80553C17.9083 7.72262 17.8992 7.64891 17.8808 7.566L17.8624 7.47387L17.7798 7.48309V9.33481H17.789ZM19.4229 5.22602L19.4321 5.26288C19.4688 5.36422 19.4964 5.47477 19.5147 5.5761C19.6708 6.34995 19.7626 7.13302 19.8727 7.91608C20.093 9.36244 20.5153 10.6982 21.4332 11.859C21.7361 12.2459 21.8463 12.8171 22.0299 13.2685C22.1951 13.6647 22.2869 14.2174 22.6082 14.5122C23.1773 15.0281 23.8474 15.4242 24.4991 15.8204C24.9856 16.106 25.518 16.2902 26.0504 16.4837L26.0872 16.4929V15.9954C25.1142 15.6361 24.2054 15.1294 23.3517 14.5306C22.8927 14.2082 22.5806 13.8028 22.498 13.2317C22.3971 12.5315 22.1033 11.9235 21.6627 11.3708C21.1578 10.7443 20.7631 10.0349 20.5979 9.24268C20.3592 8.11876 20.194 6.97642 19.9737 5.85249C19.937 5.65903 19.9094 5.45634 19.8635 5.26288C19.7258 5.24446 19.579 5.23524 19.4229 5.22602ZM20.6989 5.34579C20.8641 5.36422 21.0385 5.38264 21.2037 5.40106C22.3328 7.40017 23.4894 9.38087 24.6644 11.3523C24.9581 11.8406 25.5456 12.0985 26.0963 12.1538V12.5315H26.0872C25.876 12.5223 25.6649 12.4947 25.4538 12.4763C24.9397 12.4118 24.4808 12.1262 24.2788 11.6379C23.3334 9.43614 21.8555 7.51994 20.7264 5.41028L20.6989 5.34579ZM22.6908 5.59455C22.8836 5.62218 23.0763 5.6498 23.2691 5.68665C23.5078 5.9446 23.7556 6.18412 24.031 6.40522C24.4808 6.77372 24.8663 7.1883 25.1509 7.69499C25.3895 8.10955 25.7016 8.45039 26.1055 8.70834V9.04922V9.15977L26.0596 9.13213C25.6098 8.87418 25.2335 8.5149 24.9306 8.10034C24.6368 7.69499 24.3614 7.25278 23.9942 6.91192C23.572 6.525 23.1589 6.11963 22.7826 5.68665L22.6908 5.59455ZM25.1141 6.01831C25.4446 6.0828 25.7751 6.1565 26.0963 6.22099V6.26704V6.78293L26.0321 6.72766C25.8944 6.6079 25.7475 6.48813 25.5915 6.37758C25.4813 6.30388 25.3803 6.22099 25.2702 6.13808L25.1141 6.01831ZM22.8744 26.3318L22.7826 26.2673C22.4246 26.0186 22.0299 25.9357 21.5984 25.9909C21.2313 26.037 20.9008 25.8896 20.6805 25.5856C19.836 24.434 19.0007 23.2733 18.6978 21.8453C18.5509 21.1544 18.2847 20.5187 17.8624 19.966L17.7798 19.8647V20.6385C17.9175 20.8688 18.0185 21.136 18.0736 21.4031C18.3581 22.9416 19.1016 24.2774 19.8727 25.604C20.1389 26.0647 20.4969 26.4239 20.9834 26.5806C21.626 26.5069 22.2502 26.4239 22.8744 26.3318ZM5.76401 20.4727C5.62632 20.9794 5.47945 21.4861 5.33258 22.002C5.2775 22.1954 5.22243 22.3889 5.16735 22.5915C5.15817 22.6284 5.149 22.6652 5.13982 22.7113C5.45192 21.9927 5.68139 21.2465 5.76401 20.4727ZM5.51617 14.1898C5.24079 14.5767 5.04803 15.0189 5.00213 15.4887C4.96541 15.8757 5.02967 16.2441 5.20408 16.5758C5.05721 15.7559 5.26833 14.982 5.51617 14.1898ZM5.406 12.7342C5.41518 12.6697 5.41518 12.596 5.406 12.5315V12.7342Z" fill="#8A5A30"/>
</svg>
