<svg width="150" height="28" viewBox="0 0 150 28" fill="none" xmlns="http://www.w3.org/2000/svg">
<path fill-rule="evenodd" clip-rule="evenodd" d="M52.5299 5.84131V22.167H48.7559V15.477H41.3654V22.167H37.5996V5.84131H41.3654V12.2817H48.7559V5.84131H52.5299Z" fill="white"/>
<path fill-rule="evenodd" clip-rule="evenodd" d="M70.2963 9.03655H60.0607V18.9718H70.2963V22.167H60.0607H56.2949V5.84131H60.0607H70.2963V9.03655Z" fill="white"/>
<path fill-rule="evenodd" clip-rule="evenodd" d="M110.692 9.03655V18.9718V22.167H114.458V5.84131H110.692H108.793H104.637L103.152 9.03655L97.0391 22.167H101.186L107.308 9.03655H110.692Z" fill="white"/>
<path fill-rule="evenodd" clip-rule="evenodd" d="M88.0721 9.03655H77.8282V18.9718H88.0721V22.167H77.8282H74.0625V5.84131H77.8282H88.0721V9.03655Z" fill="white"/>
<path fill-rule="evenodd" clip-rule="evenodd" d="M132.224 9.03655H121.988V12.4065H127.645V15.6018H121.988V18.9718H132.224V22.167H121.988H118.223V5.84131H121.988H132.224V9.03655Z" fill="white"/>
<path fill-rule="evenodd" clip-rule="evenodd" d="M150 9.03655H139.756V18.9718H150V22.167H139.756H135.99V5.84131H139.756H150V9.03655Z" fill="white"/>
<path fill-rule="evenodd" clip-rule="evenodd" d="M97.0802 12.4065H88.0723V15.6018H95.5955L97.0802 12.4065Z" fill="white"/>
<path fill-rule="evenodd" clip-rule="evenodd" d="M11.6208 27.975C8.56835 27.8003 5.44128 27.2927 1.84971 26.5105L0 26.1028V1.83892L1.84971 1.4312C5.49105 0.632393 8.60983 0.158098 11.6208 0V2.41307C8.43564 2.59613 5.58227 3.02049 2.34737 3.72777V24.1973C5.60715 24.9129 8.45223 25.304 11.6208 25.5203V27.975Z" fill="white"/>
<path fill-rule="evenodd" clip-rule="evenodd" d="M25.8453 1.43972L27.695 1.84746V26.1113L24.4601 26.8186C21.4159 27.4843 18.7036 27.8671 16.0742 28.0002V25.5455C18.7368 25.3791 21.2583 25.1045 23.9624 24.5137L25.3476 24.2141V3.74464C22.121 3.03736 19.2594 2.61298 16.0742 2.42991V0.0168457C19.0852 0.166623 22.2039 0.64923 25.8453 1.43972Z" fill="white"/>
<path fill-rule="evenodd" clip-rule="evenodd" d="M4.10547 7.72176V5.20882V5.16722C6.54409 4.63468 9.04906 4.29352 11.6204 4.1687V8.9699V11.0751V12.0153V12.9556H16.0746V12.0153V11.0751V8.9699V4.1687C18.6376 4.29352 21.1509 4.63468 23.5895 5.16722V5.20882V7.72176V8.97821V10.2347V18.1978V18.9883V20.2864V22.7993C21.1509 23.3319 18.6459 23.673 16.0746 23.7978V18.9966V17.2243V17.0495V15.4769H11.6204V17.0495V17.2243V18.9966V23.7978C9.05736 23.673 6.54409 23.3319 4.10547 22.7993V20.2864V18.9883V18.1978V10.2347V8.97821V7.72176Z" fill="white"/>
<path fill-rule="evenodd" clip-rule="evenodd" d="M4.10496 7.28906V6.62339L4.17961 6.73157C4.60264 7.34732 5.04223 7.96305 5.48185 8.56216C5.83851 9.04477 6.14542 9.54404 6.18689 10.1598C6.23666 10.8005 6.26985 11.4412 6.22008 12.0819C6.13713 12.9972 6.07079 13.8959 6.3611 14.7779C6.46063 15.0691 6.43573 15.4186 6.39426 15.7182C6.26984 16.6168 6.12055 17.5155 5.97125 18.4142C5.81365 19.3877 5.47356 20.3446 5.5648 21.3431C5.61457 21.8424 5.51503 22.3084 5.2496 22.7327C5.19983 22.8159 5.15007 22.9075 5.12518 23.0073C4.98417 22.9824 4.84318 22.9491 4.70217 22.9241C4.73535 22.7993 4.76852 22.6745 4.7934 22.5497C4.82658 22.4249 4.88465 22.2834 4.97589 22.1919C5.16666 22.0005 5.15008 21.7425 5.16667 21.4929C5.19985 20.9188 5.24131 20.3529 5.30767 19.7788C5.31596 19.7289 5.31598 19.679 5.32427 19.629C5.1335 19.9952 4.95101 20.3613 4.80171 20.7357C4.57775 21.3182 4.37039 21.9007 4.17961 22.4914L4.09666 22.7494V20.9687C4.32061 20.0534 4.55285 19.1381 4.7851 18.2228C4.98417 17.4573 4.88465 16.7333 4.43674 16.1093C4.45333 16.3006 4.47822 16.492 4.49481 16.6834C4.51969 16.9996 4.53627 17.3158 4.50309 17.632C4.43673 18.3226 4.29573 19.0133 4.17961 19.6956L4.163 19.7788L4.08836 19.7705V18.98V18.1895V18.0148C4.11324 17.7901 4.12983 17.5654 4.14642 17.3324C4.17131 16.9414 4.15471 16.5419 4.08836 16.1509V14.5532L4.17131 14.7197C4.45332 15.3104 4.72704 15.9096 5.01735 16.492C5.092 16.6335 5.15008 16.7749 5.19155 16.9247C5.1252 16.2923 4.93441 15.6932 4.6358 15.1107C4.52797 14.8944 4.42844 14.6781 4.32891 14.4617C3.98883 13.6962 4.01372 12.9889 4.43674 12.3399C4.37038 12.4064 4.30403 12.4813 4.22938 12.5479C4.20449 12.5729 4.17131 12.6061 4.14642 12.6311L4.08008 12.706V11.6243C4.16302 11.4662 4.17132 11.2831 4.08008 11.1333V10.6757L4.12984 10.7173C4.39527 10.9087 4.46161 11.2082 4.42014 11.5078C4.49479 11.2831 4.51968 11.0335 4.51139 10.7755C4.4948 10.4926 4.37039 10.3179 4.08008 10.3096V10.218V9.58564L4.11324 9.60228C4.27084 9.66884 4.42015 9.75206 4.56116 9.84359C4.67728 9.91848 4.77681 10.01 4.86805 10.1015C4.74363 9.91848 4.58605 9.76039 4.38698 9.61894C4.28744 9.55237 4.18789 9.48578 4.08836 9.41922V8.9699V8.87836L4.14642 8.91998C4.47821 9.17793 4.76023 9.4858 5.08372 9.75207C5.25791 9.89353 5.34084 10.1515 5.4072 10.3595C5.65604 11.1833 5.55651 11.9737 5.2579 12.7726C5.13348 13.1137 5.00906 13.4965 5.02565 13.8626C5.05054 14.7113 5.24131 15.5351 5.59798 16.309C5.65605 16.4338 5.7307 16.542 5.80535 16.6584C5.91318 16.0344 6.12884 15.377 5.93807 14.7446C5.67264 13.8876 5.66433 13.0222 5.74728 12.1402C5.78875 11.6908 5.77217 11.2415 5.75558 10.7922C5.7224 10.0766 5.54822 9.38594 5.15837 8.77851C4.84317 8.27093 4.48651 7.77167 4.10496 7.28906ZM4.60262 5.05905L4.61922 5.08401C4.76023 5.33364 4.94272 5.53334 5.16667 5.70808C5.4321 5.9161 5.69752 6.1158 5.96295 6.32382C6.31962 6.60673 6.49381 6.98117 6.53528 7.43883C6.61823 8.27924 6.73434 9.11135 6.80899 9.95177C6.86705 10.6674 6.92513 11.3913 6.90024 12.1069C6.87536 12.7892 6.99978 13.4382 7.23202 14.0789C7.50575 14.8278 7.7131 15.61 7.53062 16.4088C7.45597 16.75 7.30668 17.0745 7.18226 17.399C6.80071 18.3476 6.54357 19.3295 6.47721 20.3529C6.41915 21.2849 6.76752 22.092 7.35644 22.7993C7.50574 22.974 7.65506 23.1821 7.67994 23.415C7.81266 23.4317 7.93708 23.4483 8.06979 23.465V23.4483C8.0615 23.1654 7.93706 22.9158 7.74629 22.7161C7.36473 22.3 7.06613 21.8257 6.91683 21.2766C6.76752 20.7274 6.7841 20.1699 6.93341 19.6207C7.14077 18.8219 7.33156 18.0148 7.64676 17.2492C8.06149 16.2507 7.99513 15.2688 7.75459 14.237C7.70482 14.0373 7.64674 13.8293 7.58038 13.6379C7.32325 12.8891 7.2486 12.1235 7.2486 11.333C7.2486 10.5758 7.10761 9.81863 7.03296 9.06975C6.98319 8.6121 6.90023 8.15445 6.90852 7.6968C6.92511 6.97288 6.65968 6.40705 6.07906 5.97436C5.93805 5.87451 5.80534 5.75801 5.66433 5.65816C5.4072 5.4751 5.17496 5.25043 5.00907 4.98416C4.86806 5.00913 4.73533 5.03409 4.60262 5.05905ZM6.88364 4.65133C7.05783 4.62637 7.22374 4.60141 7.39793 4.57644C7.53064 5.25044 7.66334 5.93274 7.79605 6.60673C7.93706 7.30569 8.12784 7.99634 8.24397 8.6953C8.30203 9.04478 8.23566 9.40259 8.20248 9.75207C8.16101 10.2597 8.23566 10.7339 8.40985 11.2082C8.82458 12.29 9.09001 13.4216 9.22273 14.5699C9.35544 15.7182 9.34715 16.8748 9.22273 18.0231C9.14808 18.7553 9.04026 19.4876 8.94902 20.2115C8.89096 20.6775 8.90753 21.1934 9.24761 21.5512C9.83653 22.1669 10.2181 22.8825 10.5167 23.673L10.5333 23.7146C10.4089 23.7063 10.2844 23.698 10.16 23.6897C9.87801 23.0739 9.48816 22.5081 9.09831 21.9672C8.60893 21.2932 8.50939 20.5859 8.6504 19.7788C9.16466 16.8498 9.09001 13.9625 8.05318 11.15C7.84582 10.5842 7.83753 10.01 7.879 9.41922C7.89559 9.14462 7.87902 8.85339 7.81266 8.58712C7.50576 7.27241 7.19054 5.96604 6.88364 4.65133ZM8.58405 4.41834C8.60894 5.03409 8.59234 5.65815 8.68358 6.2739C8.85777 7.42219 9.11489 8.55384 9.34714 9.68549C9.74529 11.6243 10.1517 13.563 10.5665 15.5018C10.7821 16.5253 10.9563 17.5488 10.8568 18.5972C10.7572 19.6457 10.9397 20.6442 11.5452 21.5095L11.6199 21.6177V20.511C11.5618 20.4029 11.5038 20.303 11.454 20.1948C11.3379 19.9619 11.2715 19.6623 11.2881 19.396C11.4374 17.4656 10.9563 15.6266 10.5333 13.7627C10.2513 12.5063 10.0273 11.2332 9.78676 9.9684C9.81994 10.0683 9.86142 10.1598 9.90289 10.2596C10.7075 12.1651 11.0807 14.2038 11.5369 16.2091L11.5535 16.284L11.6199 16.2757V15.4686H11.7526V15.4519C11.5618 14.5532 11.3711 13.6629 11.1305 12.7809C10.7904 11.5244 10.2844 10.3262 9.89459 9.08638C9.4218 7.55533 9.02366 5.97436 9.35545 4.36842L9.36375 4.34346C9.10662 4.3601 8.84119 4.39338 8.58405 4.41834ZM9.67895 4.31017C9.46329 5.77465 9.67063 7.1892 10.2761 8.5372C10.7738 9.64388 11.1886 10.7922 11.5369 11.9571L11.6199 12.2484V12.0237V11.0834V11.0002C11.313 10.0516 10.9646 9.11968 10.5582 8.21269C10.0688 7.11433 9.8946 5.97435 10.0107 4.76781C10.0273 4.60971 10.0356 4.4433 10.0522 4.28521V4.26855C9.92777 4.28519 9.80337 4.29353 9.67895 4.31017ZM10.4337 4.24359C10.5167 4.89262 10.5914 5.54999 10.7655 6.18238C10.9812 6.98119 11.2466 7.75505 11.5369 8.52889L11.6199 8.74522V7.6968C11.2964 6.81478 11.0475 5.9161 10.9563 4.97583C10.9314 4.72621 10.8983 4.46825 10.8651 4.21862C10.7241 4.21862 10.5747 4.23527 10.4337 4.24359ZM11.4042 4.17703C11.4789 4.17703 11.5452 4.1687 11.6199 4.1687V4.73452L11.5369 4.51819C11.4955 4.41834 11.454 4.31016 11.4208 4.20199L11.4042 4.17703ZM11.8106 12.9556H12.1839C12.3996 13.7794 12.5903 14.6115 12.7645 15.4519V15.4686H12.383C12.3498 15.3021 12.3166 15.144 12.2834 14.9776C12.1424 14.3119 11.9931 13.6379 11.819 12.9806L11.8106 12.9556ZM13.4779 12.9556H13.876C13.9507 13.122 14.017 13.2968 14.0917 13.4632C14.3654 14.1122 14.5728 14.7779 14.7967 15.4353L14.805 15.4602H14.3986C14.3073 15.2189 14.2244 14.9776 14.1497 14.7363C13.9673 14.1372 13.7433 13.5631 13.4945 12.9889L13.4779 12.9556ZM14.9792 12.9556H15.369C15.3856 12.9972 15.4105 13.0305 15.4271 13.0721C16.0243 14.1455 16.7543 15.144 17.451 16.1509C17.9155 16.8249 18.5708 17.2659 19.3505 17.4905C19.4417 17.5155 19.5413 17.5488 19.6325 17.5821C20.6444 17.9232 20.9928 18.3892 20.9845 19.4626C20.9845 19.6124 20.9845 19.7705 20.9762 19.9202C20.9679 20.2448 21.1006 20.4861 21.391 20.6275C22.0296 20.9437 22.5107 21.4014 22.8342 22.0421C22.9752 22.3167 23.1826 22.558 23.3568 22.7993L23.3817 22.8326C23.2075 22.8659 23.0333 22.9075 22.8591 22.9408C22.7098 22.6911 22.5688 22.4415 22.4444 22.1835C22.237 21.7509 21.9716 21.3847 21.5237 21.185C20.8352 20.8688 20.5532 20.3529 20.5947 19.5957C20.6444 18.6222 20.3956 18.2394 19.4583 17.9648C17.9901 17.5322 17.086 16.5004 16.2815 15.2605C15.8087 14.5366 15.3773 13.7794 14.9875 13.0055L14.9792 12.9556ZM16.016 12.9556C16.1653 13.1553 16.3395 13.3301 16.4722 13.5381C17.3183 14.8362 18.4629 15.7598 19.9062 16.3256C20.5449 16.5752 21.1753 16.8581 21.7808 17.1743C22.3531 17.4656 22.5937 17.9482 22.5854 18.5806C22.5771 19.421 22.884 20.1865 23.3568 20.8772C23.4065 20.9521 23.4646 21.0186 23.5227 21.0852L23.589 21.1518V20.6026C23.5641 20.5693 23.5475 20.536 23.5227 20.5027C23.1992 19.9369 22.9752 19.3211 22.9669 18.6721C22.9586 17.7069 22.4693 17.0662 21.6232 16.6668C21.0592 16.4005 20.4702 16.1675 19.8979 15.9179C18.6039 15.352 17.5422 14.5116 16.7791 13.3051C16.663 13.122 16.5386 12.8974 16.3478 12.7726C16.2732 12.7226 16.1985 12.6644 16.1404 12.5978L16.0741 12.5229V12.9639H16.016V12.9556ZM16.0741 7.97971C16.1322 8.12948 16.2068 8.27926 16.2815 8.42072C16.4805 8.78684 16.5718 9.20288 16.7377 9.58564C16.9201 10.01 17.1358 10.4261 17.3598 10.8255C17.4759 11.0335 17.6667 11.1916 17.7828 11.3996C18.5293 12.7226 19.591 13.7877 20.7108 14.7946C21.5983 15.5934 22.4609 16.4255 23.5475 16.9414L23.589 16.958V16.4504C23.1577 16.1758 22.7264 15.9012 22.3033 15.6017C22.0462 15.427 21.8306 15.194 21.5734 15.0109C20.6942 14.3535 19.9062 13.588 19.226 12.7226C18.5957 11.9155 18.0233 11.0668 17.4427 10.218C17.3017 10.0183 17.2353 9.75206 17.1524 9.52739C16.9699 9.03646 16.7791 8.53719 16.6132 8.03794C16.4556 7.56364 16.2898 7.08936 16.1985 6.59843C16.1819 6.52354 16.1736 6.45696 16.157 6.38208L16.1404 6.29886L16.0658 6.30719V7.97971H16.0741ZM17.5505 4.26855L17.5588 4.30184C17.592 4.39337 17.6169 4.49322 17.6335 4.58475C17.7745 5.28371 17.8574 5.991 17.957 6.69828C18.156 8.00466 18.5376 9.2112 19.3671 10.2596C19.6408 10.6091 19.7403 11.125 19.9062 11.5327C20.0555 11.8905 20.1385 12.3898 20.4288 12.6561C20.943 13.122 21.5485 13.4798 22.1375 13.8376C22.5771 14.0956 23.0582 14.262 23.5393 14.4367L23.5724 14.4451V13.9957C22.6932 13.6712 21.872 13.2136 21.1006 12.6727C20.6859 12.3815 20.4039 12.0153 20.3292 11.4995C20.238 10.8671 19.9726 10.3179 19.5744 9.81863C19.1182 9.25281 18.7616 8.61209 18.6122 7.89649C18.3966 6.88134 18.2473 5.84955 18.0482 4.83439C18.015 4.65965 17.9901 4.47658 17.9487 4.30184C17.8242 4.2852 17.6915 4.27687 17.5505 4.26855ZM18.7035 4.37672C18.8528 4.39337 19.0104 4.41001 19.1597 4.42665C20.1799 6.23229 21.225 8.02131 22.2868 9.802C22.5522 10.243 23.083 10.476 23.5807 10.5259V10.8671H23.5724C23.3817 10.8588 23.1909 10.8338 23.0001 10.8172C22.5356 10.7589 22.1209 10.501 21.9384 10.0599C21.0841 8.07124 19.7486 6.34047 18.7284 4.43498L18.7035 4.37672ZM20.5034 4.60141C20.6776 4.62637 20.8518 4.65131 21.026 4.6846C21.2416 4.91758 21.4656 5.13393 21.7144 5.33363C22.1209 5.66647 22.4692 6.04093 22.7264 6.49858C22.942 6.87302 23.2241 7.18088 23.589 7.41386V7.72176V7.82161L23.5475 7.79665C23.1411 7.56366 22.801 7.23915 22.5273 6.8647C22.2619 6.49858 22.013 6.09917 21.6812 5.7913C21.2997 5.44182 20.9265 5.07568 20.5864 4.6846L20.5034 4.60141ZM22.6932 4.98416C22.9918 5.04241 23.2904 5.10898 23.5807 5.16722V5.20882V5.67479L23.5227 5.62487C23.3982 5.51669 23.2655 5.40852 23.1245 5.30867C23.025 5.2421 22.9337 5.16723 22.8342 5.09234L22.6932 4.98416ZM20.6693 23.3318L20.5864 23.2736C20.2629 23.0489 19.9062 22.974 19.5164 23.024C19.1846 23.0656 18.886 22.9324 18.6869 22.6578C17.9238 21.6177 17.169 20.5693 16.8953 19.2795C16.7625 18.6555 16.522 18.0813 16.1404 17.5821L16.0658 17.4905V18.1895C16.1902 18.3975 16.2815 18.6388 16.3312 18.8801C16.5884 20.2697 17.2602 21.4763 17.957 22.6745C18.1975 23.0905 18.521 23.4151 18.9606 23.5565C19.5412 23.4899 20.1053 23.415 20.6693 23.3318ZM5.20813 18.0397C5.08372 18.4974 4.951 18.955 4.81829 19.421C4.76852 19.5957 4.71876 19.7705 4.66899 19.9535C4.66069 19.9868 4.6524 20.0201 4.64411 20.0617C4.92612 19.4127 5.13348 18.7387 5.20813 18.0397ZM4.98419 12.3648C4.73535 12.7143 4.56117 13.1137 4.51969 13.5381C4.48651 13.8876 4.54458 14.2204 4.70217 14.52C4.56946 13.7794 4.76023 13.0804 4.98419 12.3648ZM4.88463 11.0501C4.89293 10.9919 4.89293 10.9253 4.88463 10.8671V11.0501Z" fill="#B48352"/>
</svg>
