<svg width="0" height="0" class="hidden">
  <symbol xmlns="http://www.w3.org/2000/svg" viewBox="0 0 10 10" id="ic_arr_down">
    <path d="M8.66602 3.5L5.16602 7L1.66602 3.5" stroke="currentColor" stroke-width="1.5" stroke-linecap="round" fill="none"></path>
  </symbol>
  <symbol xmlns="http://www.w3.org/2000/svg" viewBox="0 0 35 18" id="ic_arrow">
    <path d="M34 9H2M2 9L10 1M2 9L10 17" stroke="currentColor" stroke-width="2" stroke-linecap="round" fill="none"></path>
  </symbol>
  <symbol xmlns="http://www.w3.org/2000/svg" viewBox="0 0 20 20" id="ic_cart">
    <path d="M15.7 3.76922H10.94C10.38 3.76922 10 4.13461 10 4.67307C10 5.21153 10.38 5.57691 10.94 5.57691H15.8C17.1 5.57691 18.22 6.65383 18.22 7.90383V11.2308C18.22 12.4807 17.1 13.5577 15.8 13.5577H10.94C9.82 13.5577 8.88 12.8461 8.6 11.8461L6.82 5.92307L5.6 1.71154C5.24 0.711537 4.3 0 3.18 0H0.94C0.38 0 0 0.365384 0 0.903845C0 1.44231 0.38 1.80769 0.94 1.80769H3.18C3.46 1.80769 3.74 1.98077 3.84 2.25L5.14 6.3846L6.82 12.4038C7.28 14.1923 9.06 15.4615 10.94 15.4615H15.7C18.04 15.4615 20 13.5769 20 11.3269V7.98075C20 5.65384 18.14 3.76922 15.7 3.76922Z" fill="currentColor"></path>
    <path d="M12 18.5577C12 19.3543 11.3284 20 10.5 20C9.67157 20 9 19.3543 9 18.5577C9 17.7611 9.67157 17.1154 10.5 17.1154C11.3284 17.1154 12 17.7611 12 18.5577Z" fill="currentColor"></path>
    <path d="M18 18.5577C18 19.3543 17.3284 20 16.5 20C15.6716 20 15 19.3543 15 18.5577C15 17.7611 15.6716 17.1154 16.5 17.1154C17.3284 17.1154 18 17.7611 18 18.5577Z" fill="currentColor"></path>
  </symbol>
  <symbol xmlns="http://www.w3.org/2000/svg" viewBox="0 0 10 8" id="ic_check">
    <path d="M9.76765 0.634387C9.45825 0.324573 8.95583 0.324768 8.64601 0.634387L3.59787 5.68272L1.35419 3.43906C1.04438 3.12924 0.542175 3.12924 0.232361 3.43906C-0.0774535 3.74887 -0.0774535 4.25107 0.232361 4.56089L3.03684 7.36537C3.19165 7.52017 3.39464 7.59777 3.59766 7.59777C3.80067 7.59777 4.00386 7.52037 4.15867 7.36537L9.76765 1.7562C10.0775 1.4466 10.0775 0.944181 9.76765 0.634387Z" fill="currentColor"></path>
  </symbol>
  <symbol xmlns="http://www.w3.org/2000/svg" viewBox="0 0 18 18" id="ic_close">
    <path d="M2.72557 16.2001C2.48847 16.2001 2.25137 16.1099 2.07122 15.9284C1.70958 15.5667 1.70958 14.9804 2.07122 14.6188L14.6187 2.07128C14.9803 1.70964 15.5666 1.70964 15.9283 2.07128C16.2899 2.43293 16.2899 3.01925 15.9283 3.38112L3.38105 15.9284C3.19955 16.1087 2.96245 16.2001 2.72557 16.2001Z" fill="currentColor"></path>
    <path d="M15.2742 16.2001C15.0371 16.2001 14.8002 16.1099 14.6198 15.9284L2.07122 3.38112C1.70958 3.01925 1.70958 2.43293 2.07122 2.07128C2.43287 1.70964 3.01918 1.70964 3.38105 2.07128L15.9283 14.6188C16.2899 14.9804 16.2899 15.5667 15.9283 15.9284C15.7468 16.1087 15.5099 16.2001 15.2742 16.2001Z" fill="currentColor"></path>
  </symbol>
  <symbol xmlns="http://www.w3.org/2000/svg" viewBox="0 0 22 16" id="ic_delivery">
    <path d="M16.6154 10.0798C15.0863 10.0798 13.8423 11.3238 13.8423 12.853C13.8423 14.3821 15.0863 15.6261 16.6154 15.6261C18.1448 15.6261 19.3885 14.3821 19.3885 12.853C19.3885 11.3238 18.1446 10.0798 16.6154 10.0798ZM16.6154 14.2395C15.8507 14.2395 15.2289 13.6176 15.2289 12.853C15.2289 12.0883 15.8507 11.4664 16.6154 11.4664C17.3801 11.4664 18.002 12.0883 18.002 12.853C18.002 13.6177 17.3801 14.2395 16.6154 14.2395Z" fill="currentColor"></path>
    <path d="M7.14081 10.0798C5.61167 10.0798 4.36768 11.3238 4.36768 12.853C4.36768 14.3821 5.61167 15.6261 7.14081 15.6261C8.66994 15.6261 9.91394 14.3821 9.91394 12.853C9.91394 11.3238 8.66994 10.0798 7.14081 10.0798ZM7.14081 14.2395C6.37613 14.2395 5.75424 13.6176 5.75424 12.853C5.75424 12.0883 6.37613 11.4664 7.14081 11.4664C7.90527 11.4664 8.52737 12.0883 8.52737 12.853C8.52737 13.6177 7.90548 14.2395 7.14081 14.2395Z" fill="currentColor"></path>
    <path d="M18.4833 2.14252C18.3654 1.90843 18.1258 1.76074 17.8637 1.76074H14.2124V3.14731H17.4361L19.3239 6.90211L20.5631 6.27906L18.4833 2.14252Z" fill="currentColor"></path>
    <path d="M14.5359 12.1829H9.29004V13.5694H14.5359V12.1829Z" fill="currentColor"></path>
    <path d="M5.06096 12.1829H2.65762C2.27468 12.1829 1.96436 12.4932 1.96436 12.8761C1.96436 13.2591 2.27472 13.5694 2.65762 13.5694H5.061C5.44394 13.5694 5.75426 13.259 5.75426 12.8761C5.75426 12.4932 5.4439 12.1829 5.06096 12.1829Z" fill="currentColor"></path>
    <path d="M21.8546 7.94464L20.4909 6.18833C20.3599 6.01916 20.1577 5.92024 19.9434 5.92024H14.9056V1.06728C14.9056 0.684345 14.5952 0.374023 14.2123 0.374023H2.65762C2.27468 0.374023 1.96436 0.684388 1.96436 1.06728C1.96436 1.45018 2.27472 1.76055 2.65762 1.76055H13.519V6.6135C13.519 6.99644 13.8294 7.30677 14.2123 7.30677H19.6039L20.6136 8.60735V12.1828H18.6955C18.3125 12.1828 18.0022 12.4932 18.0022 12.8761C18.0022 13.259 18.3126 13.5694 18.6955 13.5694H21.3068C21.6898 13.5694 22.0001 13.259 22.0001 12.8761V8.36986C22.0001 8.21595 21.9488 8.0662 21.8546 7.94464Z" fill="currentColor"></path>
    <path d="M5.0147 8.67017H1.82559C1.44265 8.67017 1.13232 8.98053 1.13232 9.36343C1.13232 9.74637 1.44269 10.0567 1.82559 10.0567H5.01466C5.3976 10.0567 5.70792 9.74632 5.70792 9.36343C5.70796 8.98053 5.3976 8.67017 5.0147 8.67017Z" fill="currentColor"></path>
    <path d="M6.60927 5.94336H0.693261C0.310365 5.94336 0 6.25372 0 6.63666C0 7.01959 0.310365 7.32991 0.693261 7.32991H6.60927C6.99221 7.32991 7.30253 7.01955 7.30253 6.63666C7.30253 6.25376 6.99221 5.94336 6.60927 5.94336Z" fill="currentColor"></path>
    <path d="M7.7416 3.21631H1.82559C1.44265 3.21631 1.13232 3.52667 1.13232 3.90957C1.13232 4.29251 1.44269 4.60283 1.82559 4.60283H7.7416C8.12454 4.60283 8.43486 4.29247 8.43486 3.90957C8.4349 3.52667 8.12454 3.21631 7.7416 3.21631Z" fill="currentColor"></path>
  </symbol>
  <symbol xmlns="http://www.w3.org/2000/svg" viewBox="0 0 20 20" id="ic_file">
    <path d="M11.7039 17.1876C9.6533 19.2332 6.2708 19.1713 4.08642 16.992C1.90204 14.812 1.83767 11.4382 3.89017 9.39321L10.9071 2.38884C12.3789 0.920091 14.8058 0.966966 16.3852 2.54071C17.9627 4.11634 18.0052 6.53571 16.5321 8.00384L10.4089 14.1107C9.51642 15.002 8.04392 14.9826 7.07267 14.012C6.1008 13.0426 6.08142 11.572 6.97392 10.6807L10.4045 7.25634C10.6739 7.00571 10.6883 6.58321 10.437 6.31321C10.1864 6.04446 9.76517 6.03009 9.47955 6.29571L6.02892 9.74134C4.60579 11.1613 4.67267 13.502 6.12767 14.9538C7.58267 16.4045 9.93017 16.4776 11.3545 15.0563L17.4764 8.94446C19.4789 6.94696 19.3858 3.65259 17.3239 1.59697C16.2933 0.567591 14.9564 0.031966 13.6233 0.00134099C12.2914 -0.028659 10.962 0.444466 9.96142 1.44447L2.94392 8.44759C0.361416 11.0232 0.478291 15.2738 3.14517 17.9363C5.81455 20.5988 10.067 20.7101 12.6489 18.1338L17.8746 12.9201C18.1358 12.6601 18.1358 12.2363 17.8746 11.9751C17.6146 11.7145 17.1908 11.7145 16.9302 11.9751L11.7039 17.1876Z" fill="currentColor"></path>
  </symbol>
  <symbol xmlns="http://www.w3.org/2000/svg" viewBox="0 0 12 12" id="ic_filter">
    <path d="M11.5307 0H0.468749C0.209838 0 0 0.209839 0 0.46875C0 1.77411 0.559569 3.02032 1.53524 3.8876L3.58813 5.71225C3.94408 6.02865 4.14825 6.48331 4.14825 6.95965V11.5307C4.14825 11.9042 4.56573 12.1282 4.87691 11.9206L7.64244 10.077C7.77281 9.99005 7.85118 9.84375 7.85118 9.68701V6.95965C7.85118 6.48331 8.05534 6.02865 8.4113 5.71225L10.4641 3.8876C11.4398 3.02032 11.9993 1.77411 11.9993 0.46875C11.9993 0.209839 11.7895 0 11.5307 0ZM9.84126 3.18686L7.78847 5.0116C7.23256 5.5058 6.91368 6.21579 6.91368 6.95956V9.43616L5.08565 10.6548V6.95965C5.08565 6.21579 4.76678 5.5058 4.21087 5.0116L2.15808 3.18695C1.50018 2.60202 1.08023 1.80057 0.967802 0.937408H11.0315C10.9191 1.80057 10.4992 2.60202 9.84126 3.18686Z" fill="currentColor"></path>
  </symbol>
  <symbol xmlns="http://www.w3.org/2000/svg" viewBox="0 0 20 20" id="ic_menu">
    <path d="M5 4C5 3.44773 5.44773 3 6 3H19C19.5523 3 20 3.44773 20 4C20 4.55227 19.5523 5 19 5H6C5.44773 5 5 4.55223 5 4ZM19 9.00001H1C0.447734 9.00001 0 9.44778 0 10C0 10.5523 0.447734 11 1 11H19C19.5523 11 20 10.5523 20 10C20 9.44778 19.5523 9.00001 19 9.00001ZM19 15H10C9.44777 15 9 15.4477 9 16C9 16.5522 9.44777 17 10 17H19C19.5523 17 20 16.5522 20 16C20 15.4477 19.5523 15 19 15Z" fill="currentColor"></path>
  </symbol>
  <symbol xmlns="http://www.w3.org/2000/svg" viewBox="0 0 12 12" id="ic_minus">
    <path d="M11.25 6.75H0.75C0.335999 6.75 0 6.414 0 6C0 5.586 0.335999 5.25 0.75 5.25H11.25C11.664 5.25 12 5.586 12 6C12 6.414 11.664 6.75 11.25 6.75Z" fill="currentColor"></path>
  </symbol>
  <symbol xmlns="http://www.w3.org/2000/svg" viewBox="0 0 19 18" id="ic_odnokl">
    <path fill-rule="evenodd" clip-rule="evenodd" d="M9.52094 9.30704C6.97741 9.30704 4.86497 7.1957 4.86497 4.69659C4.86497 2.11131 6.97741 0 9.52094 0C12.1507 0 14.1769 2.11131 14.1769 4.69659C14.1769 7.1957 12.1507 9.30704 9.52094 9.30704ZM9.52094 2.71454C8.44319 2.71454 7.62406 3.61939 7.62406 4.6966C7.62406 5.77379 8.44319 6.59244 9.52094 6.59244C10.6418 6.59244 11.4178 5.77379 11.4178 4.6966C11.4178 3.61939 10.6418 2.71454 9.52094 2.71454ZM11.3747 13.1419L14.0045 15.6841C14.5218 16.2442 14.5218 17.0629 14.0045 17.5799C13.444 18.14 12.5818 18.14 12.1507 17.5799L9.52094 14.9947L6.97741 17.5799C6.71874 17.8385 6.37385 17.9677 5.98585 17.9677C5.68407 17.9677 5.33919 17.8385 5.03741 17.5799C4.52008 17.0629 4.52008 16.2442 5.03741 15.6841L7.71026 13.1419C6.71874 12.8402 5.81341 12.4524 4.95119 11.9354C4.30453 11.5907 4.1752 10.7289 4.52008 10.0826C4.95119 9.43625 5.72719 9.2639 6.41696 9.69481C8.31384 10.8582 10.728 10.8582 12.6249 9.69481C13.3147 9.2639 14.1338 9.43625 14.5218 10.0826C14.9098 10.7289 14.7373 11.5907 14.1338 11.9354C13.3147 12.4524 12.3663 12.8402 11.3747 13.1419Z" fill="currentColor"></path>
  </symbol>
  <symbol xmlns="http://www.w3.org/2000/svg" viewBox="0 0 20 20" id="ic_phone">
    <path d="M10.4687 2.29523C10.4819 2.29523 10.4947 2.29516 10.5078 2.29516C12.4117 2.29516 14.1957 3.03125 15.5346 4.37008C16.8845 5.71997 17.6228 7.51924 17.6137 9.43639C17.6116 9.86784 17.9597 10.2193 18.3912 10.2214H18.395C18.8247 10.2214 19.1741 9.87401 19.1761 9.44381C19.1873 7.10642 18.2864 4.9122 16.6394 3.2652C15.0053 1.63101 12.8293 0.732651 10.508 0.732651C10.4937 0.732651 10.4794 0.73269 10.4651 0.732729C10.0336 0.7348 9.68549 1.08625 9.68752 1.51769C9.68959 1.94789 10.039 2.29523 10.4687 2.29523Z" fill="currentColor"></path>
    <path d="M19.9981 16.0243C19.9702 15.2507 19.6479 14.5287 19.0907 13.9914C17.9996 12.9393 17.0855 12.332 16.2139 12.0801C15.0127 11.733 13.9004 12.0487 12.9076 13.0182C12.9061 13.0197 12.9046 13.0212 12.9031 13.0227L11.8458 14.0721C11.1891 13.7032 9.91256 12.8913 8.51635 11.4951L8.41354 11.3923C7.0265 10.0053 6.20951 8.72151 5.83779 8.06214L6.88619 7.00584C6.88767 7.00436 6.88912 7.00288 6.8906 7.00135C7.86017 6.00861 8.17584 4.89619 7.82873 3.69509C7.57685 2.82349 6.96955 1.90934 5.91743 0.818284C5.38013 0.261056 4.65817 -0.0612107 3.88461 -0.0891015C3.11121 -0.116953 2.36773 0.152345 1.7916 0.669534L1.76918 0.68969C1.75875 0.699026 1.74859 0.708675 1.73871 0.718557C0.59183 1.86536 -0.00934337 3.47091 0.000109789 5.36158C0.0161255 8.57331 1.78133 12.2463 4.72196 15.1869C4.72442 15.1894 4.72684 15.1918 4.7293 15.1942C5.28212 15.7462 5.90978 16.2925 6.59501 16.8179C6.9374 17.0804 7.42779 17.0157 7.69037 16.6733C7.95291 16.3309 7.88818 15.8405 7.54576 15.5779C6.91154 15.0917 6.33322 14.5884 5.82685 14.082C5.82443 14.0796 5.822 14.0772 5.81954 14.0748C3.16778 11.42 1.5766 8.16046 1.56258 5.35373C1.55531 3.89763 1.99332 2.68228 2.82942 1.83755L2.83539 1.83216C3.40328 1.32247 4.26305 1.35348 4.79274 1.90278C6.81544 4.00037 6.66896 4.99064 5.77521 5.90713L4.327 7.36624C4.09989 7.59506 4.03665 7.93991 4.16782 8.23444C4.20458 8.31702 5.09395 10.2824 7.309 12.4974L7.41181 12.6001C9.62659 14.8149 11.5919 15.7043 11.6745 15.7411C11.9691 15.8723 12.3139 15.809 12.5427 15.5819L14.0016 14.1339C14.9182 13.24 15.9085 13.0934 18.0062 15.1161C18.5555 15.6458 18.5865 16.5056 18.0769 17.0734L18.0714 17.0795C17.2335 17.9088 16.0311 18.3464 14.5908 18.3464C14.579 18.3464 14.5671 18.3464 14.5552 18.3464C13.404 18.3406 12.0709 18.025 10.7001 17.4338C10.304 17.2628 9.84424 17.4455 9.67334 17.8417C9.50245 18.2379 9.6851 18.6976 10.0813 18.8685C11.6657 19.5519 13.1684 19.9019 14.5474 19.9089C14.562 19.9089 14.5766 19.9089 14.5912 19.9089C16.4629 19.9089 18.0525 19.3082 19.1904 18.1703C19.2003 18.1603 19.2099 18.1502 19.2192 18.1398L19.2395 18.1173C19.7565 17.5412 20.026 16.7979 19.9981 16.0243Z" fill="currentColor"></path>
    <path d="M14.432 5.47717C13.5939 4.63912 12.7896 4.41673 12.4031 4.30982C11.9871 4.19478 11.5569 4.43869 11.4419 4.85459C11.3269 5.27045 11.5707 5.7008 11.9866 5.8158C12.3027 5.90322 12.7804 6.03533 13.3271 6.58201C13.8534 7.1083 13.9932 7.58342 14.0857 7.89784L14.097 7.93608C14.1976 8.27581 14.5087 8.49581 14.8458 8.49581C14.9193 8.49585 14.9939 8.48538 15.0679 8.46346C15.4816 8.341 15.7178 7.90631 15.5953 7.4926L15.5847 7.45674C15.4642 7.04729 15.2399 6.2851 14.432 5.47717Z" fill="currentColor"></path>
  </symbol>
  <symbol xmlns="http://www.w3.org/2000/svg" viewBox="0 0 18 18" id="ic_remove">
    <path d="M7.92287 6.92314C7.54003 6.92314 7.23057 7.23261 7.23057 7.61545V13.1539C7.23057 13.5368 7.54003 13.8462 7.92287 13.8462C8.30572 13.8462 8.61518 13.5368 8.61518 13.1539V7.61545C8.61518 7.23261 8.30572 6.92314 7.92287 6.92314Z" fill="currentColor"></path>
    <path d="M10.6923 6.92314C10.3095 6.92314 10 7.23261 10 7.61545V13.1539C10 13.5368 10.3095 13.8462 10.6923 13.8462C11.0752 13.8462 11.3846 13.5368 11.3846 13.1539V7.61545C11.3846 7.23261 11.0752 6.92314 10.6923 6.92314Z" fill="currentColor"></path>
    <path d="M11.3846 0H7.23077C6.46715 0 5.84615 0.621 5.84615 1.38462V2.76923H1.69231C1.30946 2.76923 1 3.07869 1 3.46154C1 3.84438 1.30946 4.15385 1.69231 4.15385H3.07692V15.9231C3.07692 17.0682 4.00877 18 5.15385 18H13.4615C14.6066 18 15.5385 17.0682 15.5385 15.9231V4.15385H16.9231C17.3059 4.15385 17.6154 3.84438 17.6154 3.46154C17.6154 3.07869 17.3059 2.76923 16.9231 2.76923H12.7692V1.38462C12.7692 0.621 12.1482 0 11.3846 0ZM14.1538 15.9231C14.1538 16.3052 13.8437 16.6154 13.4615 16.6154H5.15385C4.77169 16.6154 4.46154 16.3052 4.46154 15.9231V4.15385H14.1538V15.9231ZM7.23077 2.76923V1.38462H11.3846V2.76923H7.23077Z" fill="currentColor"></path>
  </symbol>
  <symbol xmlns="http://www.w3.org/2000/svg" viewBox="0 0 12 12" id="ic_plus">
    <path d="M11.25 6.75H0.75C0.335999 6.75 0 6.414 0 6C0 5.586 0.335999 5.25 0.75 5.25H11.25C11.664 5.25 12 5.586 12 6C12 6.414 11.664 6.75 11.25 6.75Z" fill="currentColor"></path>
    <path d="M6 12C5.586 12 5.25 11.664 5.25 11.25V0.75C5.25 0.335999 5.586 0 6 0C6.414 0 6.75 0.335999 6.75 0.75V11.25C6.75 11.664 6.414 12 6 12Z" fill="currentColor"></path>
  </symbol>
  <symbol xmlns="http://www.w3.org/2000/svg" viewBox="0 0 12 12" id="ic_sort">
    <path d="M11.7143 1.57146C11.7143 1.7609 11.639 1.94259 11.5051 2.07654C11.3711 2.21049 11.1894 2.28575 11 2.28575H0.714286C0.524846 2.28575 0.343164 2.21049 0.20921 2.07654C0.0752549 1.94259 0 1.7609 0 1.57146C0 1.38202 0.0752549 1.20034 0.20921 1.06639C0.343164 0.932433 0.524846 0.857178 0.714286 0.857178H11C11.1894 0.857178 11.3711 0.932433 11.5051 1.06639C11.639 1.20034 11.7143 1.38202 11.7143 1.57146ZM8.14286 5.14289H0.714286C0.524846 5.14289 0.343164 5.21815 0.20921 5.3521C0.0752549 5.48606 0 5.66774 0 5.85718C0 6.04662 0.0752549 6.2283 0.20921 6.36226C0.343164 6.49621 0.524846 6.57147 0.714286 6.57147H8.14286C8.3323 6.57147 8.51398 6.49621 8.64794 6.36226C8.78189 6.2283 8.85715 6.04662 8.85715 5.85718C8.85715 5.66774 8.78189 5.48606 8.64794 5.3521C8.51398 5.21815 8.3323 5.14289 8.14286 5.14289ZM4.57143 9.42861H0.714286C0.524846 9.42861 0.343164 9.50386 0.20921 9.63782C0.0752549 9.77177 0 9.95345 0 10.1429C0 10.3323 0.0752549 10.514 0.20921 10.648C0.343164 10.7819 0.524846 10.8572 0.714286 10.8572H4.57143C4.76087 10.8572 4.94255 10.7819 5.07651 10.648C5.21046 10.514 5.28572 10.3323 5.28572 10.1429C5.28572 9.95345 5.21046 9.77177 5.07651 9.63782C4.94255 9.50386 4.76087 9.42861 4.57143 9.42861Z" fill="currentColor"></path>
  </symbol>
  <symbol xmlns="http://www.w3.org/2000/svg" viewBox="0 0 19 18" id="ic_search">
    <path d="M8.74516 0C4.29284 0 0.666016 3.62558 0.666016 8.07641C0.666016 12.5272 4.29284 16.1599 8.74516 16.1599C10.6469 16.1599 12.3959 15.4936 13.7782 14.3875L17.1435 17.7498C17.3133 17.9126 17.5401 18.0024 17.7754 18C18.0106 17.9975 18.2355 17.9032 18.402 17.737C18.5685 17.5708 18.6632 17.3461 18.666 17.111C18.6687 16.8758 18.5792 16.6489 18.4166 16.4789L15.0513 13.1148C16.1588 11.7308 16.8261 9.97968 16.8261 8.07641C16.8261 3.62558 13.1975 0 8.74516 0ZM8.74516 1.79517C12.227 1.79517 15.0285 4.59577 15.0285 8.07641C15.0285 11.557 12.227 14.3647 8.74516 14.3647C5.26334 14.3647 2.46177 11.557 2.46177 8.07641C2.46177 4.59577 5.26334 1.79517 8.74516 1.79517Z" fill="currentColor"></path>
  </symbol>
  <symbol xmlns="http://www.w3.org/2000/svg" viewBox="0 0 19 18" id="ic_vk">
    <path d="M9.97179 14.2317C3.82188 14.2317 0.314127 10.0156 0.167969 3H3.24854C3.34973 8.14928 5.62076 10.3304 7.41963 10.7801V3H10.3204V7.44097C12.0968 7.24984 13.9629 5.22611 14.5925 3H17.4933C17.0098 5.74329 14.9861 7.76702 13.547 8.599C14.9861 9.27358 17.291 11.0387 18.168 14.2317H14.9749C14.289 12.0956 12.5803 10.4428 10.3204 10.218V14.2317H9.97179Z" fill="currentColor"></path>
  </symbol>
  <symbol xmlns="http://www.w3.org/2000/svg" viewBox="0 0 19 18" id="ic_youtube">
    <path fill-rule="evenodd" clip-rule="evenodd" d="M17.3526 3.96512C17.6321 4.24462 17.8335 4.59248 17.9368 4.97404C18.5313 7.36712 18.3939 11.1466 17.9483 13.6321C17.845 14.0136 17.6436 14.3615 17.3641 14.641C17.0846 14.9205 16.7368 15.1219 16.3552 15.2252C14.9584 15.6061 9.33642 15.6061 9.33642 15.6061C9.33642 15.6061 3.71446 15.6061 2.31763 15.2252C1.93607 15.1219 1.58822 14.9205 1.30871 14.641C1.0292 14.3615 0.827798 14.0136 0.72455 13.6321C0.126567 11.2494 0.290493 7.46755 0.713006 4.98558C0.816254 4.60402 1.01766 4.25617 1.29717 3.97666C1.57667 3.69715 1.92453 3.49575 2.30609 3.3925C3.70292 3.01154 9.32488 3 9.32488 3C9.32488 3 14.9468 3 16.3437 3.38095C16.7252 3.4842 17.0731 3.68561 17.3526 3.96512ZM12.1994 9.30312L7.53558 12.0044V6.60181L12.1994 9.30312Z" fill="currentColor"></path>
  </symbol>
  <symbol xmlns="http://www.w3.org/2000/svg" viewBox="0 0 30 30" id="ic_zoom">
    <path d="M21.5625 15.9375H8.4375C7.92 15.9375 7.5 15.5175 7.5 15C7.5 14.4825 7.92 14.0625 8.4375 14.0625H21.5625C22.08 14.0625 22.5 14.4825 22.5 15C22.5 15.5175 22.08 15.9375 21.5625 15.9375Z" fill="currentColor"></path>
    <path d="M15 22.5C14.4825 22.5 14.0625 22.08 14.0625 21.5625V8.4375C14.0625 7.92 14.4825 7.5 15 7.5C15.5175 7.5 15.9375 7.92 15.9375 8.4375V21.5625C15.9375 22.08 15.5175 22.5 15 22.5Z" fill="currentColor"></path>
    <path d="M26.5624 30H3.43758C1.54129 30 0 28.4587 0 26.5624V3.43758C0 1.54129 1.54129 0 3.43758 0H26.5624C28.4587 0 30 1.54129 30 3.43758V26.5624C30 28.4587 28.4587 30 26.5624 30ZM3.43758 1.875C2.57629 1.875 1.875 2.57629 1.875 3.43758V26.5624C1.875 27.4237 2.57629 28.125 3.43758 28.125H26.5624C27.4237 28.125 28.125 27.4237 28.125 26.5624V3.43758C28.125 2.57629 27.4237 1.875 26.5624 1.875H3.43758Z" fill="currentColor"></path>
  </symbol>
</svg>